<mxfile host="Electron" agent="Mozilla/5.0 (Windows NT 10.0; Win64; x64) AppleWebKit/537.36 (KHTML, like Gecko) draw.io/24.7.8 Chrome/128.0.6613.36 Electron/32.0.1 Safari/537.36" version="24.7.8" pages="2">
  <diagram name="Use Case" id="Z4my6rKFRtbFITWfHtku">
    <mxGraphModel dx="1932" dy="1823" grid="1" gridSize="10" guides="1" tooltips="1" connect="1" arrows="1" fold="1" page="1" pageScale="1" pageWidth="827" pageHeight="1169" math="0" shadow="0">
      <root>
        <mxCell id="0" />
        <mxCell id="1" parent="0" />
        <mxCell id="i-IRlz0IcXE_nXzK61zn-1" value="WorkPal" style="swimlane;whiteSpace=wrap;html=1;" parent="1" vertex="1">
          <mxGeometry x="240" y="-1045" width="839" height="2965" as="geometry" />
        </mxCell>
        <mxCell id="i-IRlz0IcXE_nXzK61zn-9" value="View the space events calendar" style="ellipse;whiteSpace=wrap;html=1;" parent="i-IRlz0IcXE_nXzK61zn-1" vertex="1">
          <mxGeometry x="80" y="538" width="220" height="40" as="geometry" />
        </mxCell>
        <mxCell id="5ZcLFVRebJDgtiHkzpdB-28" style="edgeStyle=orthogonalEdgeStyle;rounded=0;orthogonalLoop=1;jettySize=auto;html=1;exitX=0.5;exitY=1;exitDx=0;exitDy=0;entryX=0.5;entryY=0;entryDx=0;entryDy=0;endArrow=none;endFill=0;startArrow=blockThin;startFill=0;startSize=10;" parent="i-IRlz0IcXE_nXzK61zn-1" source="i-IRlz0IcXE_nXzK61zn-12" target="egsKetUkYShymG6PQGZg-6" edge="1">
          <mxGeometry relative="1" as="geometry" />
        </mxCell>
        <mxCell id="5ZcLFVRebJDgtiHkzpdB-29" style="edgeStyle=orthogonalEdgeStyle;rounded=0;orthogonalLoop=1;jettySize=auto;html=1;exitX=0.5;exitY=1;exitDx=0;exitDy=0;entryX=0.5;entryY=0;entryDx=0;entryDy=0;endArrow=none;endFill=0;startArrow=blockThin;startFill=0;startSize=10;" parent="i-IRlz0IcXE_nXzK61zn-1" source="i-IRlz0IcXE_nXzK61zn-12" target="egsKetUkYShymG6PQGZg-4" edge="1">
          <mxGeometry relative="1" as="geometry" />
        </mxCell>
        <mxCell id="5ZcLFVRebJDgtiHkzpdB-30" style="edgeStyle=orthogonalEdgeStyle;rounded=0;orthogonalLoop=1;jettySize=auto;html=1;exitX=0.5;exitY=1;exitDx=0;exitDy=0;entryX=0.5;entryY=0;entryDx=0;entryDy=0;endArrow=none;endFill=0;startArrow=blockThin;startFill=0;startSize=10;" parent="i-IRlz0IcXE_nXzK61zn-1" source="i-IRlz0IcXE_nXzK61zn-12" target="egsKetUkYShymG6PQGZg-1" edge="1">
          <mxGeometry relative="1" as="geometry" />
        </mxCell>
        <mxCell id="i-IRlz0IcXE_nXzK61zn-12" value="Search for space" style="ellipse;whiteSpace=wrap;html=1;" parent="i-IRlz0IcXE_nXzK61zn-1" vertex="1">
          <mxGeometry x="80" y="188" width="120" height="40" as="geometry" />
        </mxCell>
        <mxCell id="i-IRlz0IcXE_nXzK61zn-13" value="Book a space" style="ellipse;whiteSpace=wrap;html=1;" parent="i-IRlz0IcXE_nXzK61zn-1" vertex="1">
          <mxGeometry x="80" y="330" width="130" height="40" as="geometry" />
        </mxCell>
        <mxCell id="i-IRlz0IcXE_nXzK61zn-14" value="Save a space as favorite" style="ellipse;whiteSpace=wrap;html=1;" parent="i-IRlz0IcXE_nXzK61zn-1" vertex="1">
          <mxGeometry x="80" y="478" width="150" height="50" as="geometry" />
        </mxCell>
        <mxCell id="r7o-0eFES539iKnrsoc5-1" value="View Booked space detail" style="ellipse;whiteSpace=wrap;html=1;" parent="i-IRlz0IcXE_nXzK61zn-1" vertex="1">
          <mxGeometry x="80" y="428" width="160" height="40" as="geometry" />
        </mxCell>
        <mxCell id="egsKetUkYShymG6PQGZg-1" value="By date" style="ellipse;whiteSpace=wrap;html=1;" parent="i-IRlz0IcXE_nXzK61zn-1" vertex="1">
          <mxGeometry x="280" y="280" width="120" height="40" as="geometry" />
        </mxCell>
        <mxCell id="egsKetUkYShymG6PQGZg-4" value="By hour" style="ellipse;whiteSpace=wrap;html=1;" parent="i-IRlz0IcXE_nXzK61zn-1" vertex="1">
          <mxGeometry x="150" y="280" width="120" height="40" as="geometry" />
        </mxCell>
        <mxCell id="egsKetUkYShymG6PQGZg-6" value="By space type" style="ellipse;whiteSpace=wrap;html=1;" parent="i-IRlz0IcXE_nXzK61zn-1" vertex="1">
          <mxGeometry x="20" y="280" width="120" height="40" as="geometry" />
        </mxCell>
        <mxCell id="a3FcbvdhJmXR1AZgl7N_-1" value="Update personnel information" style="ellipse;whiteSpace=wrap;html=1;" parent="i-IRlz0IcXE_nXzK61zn-1" vertex="1">
          <mxGeometry x="80" y="90" width="180" height="40" as="geometry" />
        </mxCell>
        <mxCell id="hmTbpdO_2-0VxWjC-bMR-1" value="Sign up" style="ellipse;whiteSpace=wrap;html=1;" parent="i-IRlz0IcXE_nXzK61zn-1" vertex="1">
          <mxGeometry x="80" y="40" width="130" height="40" as="geometry" />
        </mxCell>
        <mxCell id="hmTbpdO_2-0VxWjC-bMR-9" value="Log out" style="ellipse;whiteSpace=wrap;html=1;" parent="i-IRlz0IcXE_nXzK61zn-1" vertex="1">
          <mxGeometry x="80" y="140" width="130" height="40" as="geometry" />
        </mxCell>
        <mxCell id="hmTbpdO_2-0VxWjC-bMR-16" style="rounded=0;orthogonalLoop=1;jettySize=auto;html=1;exitX=0;exitY=0.5;exitDx=0;exitDy=0;entryX=0.5;entryY=1;entryDx=0;entryDy=0;endArrow=openThin;endFill=0;dashed=1;endSize=15;" parent="i-IRlz0IcXE_nXzK61zn-1" source="hmTbpdO_2-0VxWjC-bMR-15" target="i-IRlz0IcXE_nXzK61zn-9" edge="1">
          <mxGeometry relative="1" as="geometry" />
        </mxCell>
        <mxCell id="hmTbpdO_2-0VxWjC-bMR-17" value="&amp;lt;&amp;lt;extend&amp;gt;&amp;gt;" style="edgeLabel;html=1;align=center;verticalAlign=middle;resizable=0;points=[];" parent="hmTbpdO_2-0VxWjC-bMR-16" vertex="1" connectable="0">
          <mxGeometry x="0.0211" y="1" relative="1" as="geometry">
            <mxPoint as="offset" />
          </mxGeometry>
        </mxCell>
        <mxCell id="hmTbpdO_2-0VxWjC-bMR-15" value="Sign up to an event" style="ellipse;whiteSpace=wrap;html=1;" parent="i-IRlz0IcXE_nXzK61zn-1" vertex="1">
          <mxGeometry x="300" y="608" width="130" height="40" as="geometry" />
        </mxCell>
        <mxCell id="hmTbpdO_2-0VxWjC-bMR-18" value="View booking history (past, upcoming)" style="ellipse;whiteSpace=wrap;html=1;" parent="i-IRlz0IcXE_nXzK61zn-1" vertex="1">
          <mxGeometry x="80" y="648" width="240" height="42" as="geometry" />
        </mxCell>
        <mxCell id="XO4-GuZk4sBoAiHKIsCW-1" value="Cancel an upcoming booking" style="ellipse;whiteSpace=wrap;html=1;" parent="i-IRlz0IcXE_nXzK61zn-1" vertex="1">
          <mxGeometry x="80" y="698" width="200" height="42" as="geometry" />
        </mxCell>
        <mxCell id="XO4-GuZk4sBoAiHKIsCW-2" value="Subscribe to a plan" style="ellipse;whiteSpace=wrap;html=1;" parent="i-IRlz0IcXE_nXzK61zn-1" vertex="1">
          <mxGeometry x="80" y="748" width="159" height="42" as="geometry" />
        </mxCell>
        <mxCell id="XO4-GuZk4sBoAiHKIsCW-3" value="Renew a subscription" style="ellipse;whiteSpace=wrap;html=1;" parent="i-IRlz0IcXE_nXzK61zn-1" vertex="1">
          <mxGeometry x="80" y="798" width="159" height="42" as="geometry" />
        </mxCell>
        <mxCell id="XO4-GuZk4sBoAiHKIsCW-4" value="Cancel a subscription" style="ellipse;whiteSpace=wrap;html=1;" parent="i-IRlz0IcXE_nXzK61zn-1" vertex="1">
          <mxGeometry x="80" y="848" width="159" height="42" as="geometry" />
        </mxCell>
        <mxCell id="XO4-GuZk4sBoAiHKIsCW-7" value="" style="rounded=0;orthogonalLoop=1;jettySize=auto;html=1;dashed=1;endArrow=none;endFill=0;startArrow=openThin;startFill=0;endSize=6;startSize=10;" parent="i-IRlz0IcXE_nXzK61zn-1" source="XO4-GuZk4sBoAiHKIsCW-5" target="XO4-GuZk4sBoAiHKIsCW-6" edge="1">
          <mxGeometry relative="1" as="geometry" />
        </mxCell>
        <mxCell id="XO4-GuZk4sBoAiHKIsCW-8" value="&amp;lt;&amp;lt;extend&amp;gt;&amp;gt;" style="edgeLabel;html=1;align=center;verticalAlign=middle;resizable=0;points=[];" parent="XO4-GuZk4sBoAiHKIsCW-7" vertex="1" connectable="0">
          <mxGeometry x="0.22" y="2" relative="1" as="geometry">
            <mxPoint as="offset" />
          </mxGeometry>
        </mxCell>
        <mxCell id="XO4-GuZk4sBoAiHKIsCW-5" value="View subscriptions history" style="ellipse;whiteSpace=wrap;html=1;" parent="i-IRlz0IcXE_nXzK61zn-1" vertex="1">
          <mxGeometry x="80" y="898" width="159" height="42" as="geometry" />
        </mxCell>
        <mxCell id="XO4-GuZk4sBoAiHKIsCW-6" value="View bills" style="ellipse;whiteSpace=wrap;html=1;" parent="i-IRlz0IcXE_nXzK61zn-1" vertex="1">
          <mxGeometry x="229" y="968" width="81" height="42" as="geometry" />
        </mxCell>
        <mxCell id="XO4-GuZk4sBoAiHKIsCW-9" value="Book additional service" style="ellipse;whiteSpace=wrap;html=1;" parent="i-IRlz0IcXE_nXzK61zn-1" vertex="1">
          <mxGeometry x="80" y="378" width="159" height="42" as="geometry" />
        </mxCell>
        <mxCell id="XO4-GuZk4sBoAiHKIsCW-12" value="" style="rounded=0;orthogonalLoop=1;jettySize=auto;html=1;dashed=1;endArrow=none;endFill=0;startArrow=openThin;startFill=0;startSize=10;" parent="i-IRlz0IcXE_nXzK61zn-1" source="XO4-GuZk4sBoAiHKIsCW-10" target="XO4-GuZk4sBoAiHKIsCW-11" edge="1">
          <mxGeometry relative="1" as="geometry" />
        </mxCell>
        <mxCell id="XO4-GuZk4sBoAiHKIsCW-13" value="&amp;lt;&amp;lt;extend&amp;gt;&amp;gt;" style="edgeLabel;html=1;align=center;verticalAlign=middle;resizable=0;points=[];" parent="XO4-GuZk4sBoAiHKIsCW-12" vertex="1" connectable="0">
          <mxGeometry x="0.16" y="-2" relative="1" as="geometry">
            <mxPoint as="offset" />
          </mxGeometry>
        </mxCell>
        <mxCell id="XO4-GuZk4sBoAiHKIsCW-10" value="Review a used space" style="ellipse;whiteSpace=wrap;html=1;" parent="i-IRlz0IcXE_nXzK61zn-1" vertex="1">
          <mxGeometry x="80" y="1008" width="159" height="42" as="geometry" />
        </mxCell>
        <mxCell id="XO4-GuZk4sBoAiHKIsCW-11" value="Rate a space" style="ellipse;whiteSpace=wrap;html=1;" parent="i-IRlz0IcXE_nXzK61zn-1" vertex="1">
          <mxGeometry x="229" y="1078" width="101" height="42" as="geometry" />
        </mxCell>
        <mxCell id="XO4-GuZk4sBoAiHKIsCW-41" value="Add a space" style="ellipse;whiteSpace=wrap;html=1;" parent="i-IRlz0IcXE_nXzK61zn-1" vertex="1">
          <mxGeometry x="79" y="1118" width="101" height="42" as="geometry" />
        </mxCell>
        <mxCell id="XO4-GuZk4sBoAiHKIsCW-44" value="Edit a space" style="ellipse;whiteSpace=wrap;html=1;" parent="i-IRlz0IcXE_nXzK61zn-1" vertex="1">
          <mxGeometry x="79" y="1168" width="101" height="42" as="geometry" />
        </mxCell>
        <mxCell id="XO4-GuZk4sBoAiHKIsCW-45" value="Delete a space" style="ellipse;whiteSpace=wrap;html=1;" parent="i-IRlz0IcXE_nXzK61zn-1" vertex="1">
          <mxGeometry x="79" y="1218" width="101" height="42" as="geometry" />
        </mxCell>
        <mxCell id="XO4-GuZk4sBoAiHKIsCW-46" value="View space bookings" style="ellipse;whiteSpace=wrap;html=1;" parent="i-IRlz0IcXE_nXzK61zn-1" vertex="1">
          <mxGeometry x="79" y="1268" width="137" height="42" as="geometry" />
        </mxCell>
        <mxCell id="XO4-GuZk4sBoAiHKIsCW-49" value="Cancel a booking of a space" style="ellipse;whiteSpace=wrap;html=1;" parent="i-IRlz0IcXE_nXzK61zn-1" vertex="1">
          <mxGeometry x="76" y="1318" width="174" height="42" as="geometry" />
        </mxCell>
        <mxCell id="XO4-GuZk4sBoAiHKIsCW-50" value="Edit a booking of a space" style="ellipse;whiteSpace=wrap;html=1;" parent="i-IRlz0IcXE_nXzK61zn-1" vertex="1">
          <mxGeometry x="76" y="1368" width="174" height="42" as="geometry" />
        </mxCell>
        <mxCell id="XO4-GuZk4sBoAiHKIsCW-51" value="Add a member" style="ellipse;whiteSpace=wrap;html=1;" parent="i-IRlz0IcXE_nXzK61zn-1" vertex="1">
          <mxGeometry x="76" y="1418" width="104" height="42" as="geometry" />
        </mxCell>
        <mxCell id="XO4-GuZk4sBoAiHKIsCW-52" value="Edit a member" style="ellipse;whiteSpace=wrap;html=1;" parent="i-IRlz0IcXE_nXzK61zn-1" vertex="1">
          <mxGeometry x="76" y="1468" width="104" height="42" as="geometry" />
        </mxCell>
        <mxCell id="XO4-GuZk4sBoAiHKIsCW-53" value="Delete a member" style="ellipse;whiteSpace=wrap;html=1;" parent="i-IRlz0IcXE_nXzK61zn-1" vertex="1">
          <mxGeometry x="76" y="1518" width="114" height="42" as="geometry" />
        </mxCell>
        <mxCell id="XO4-GuZk4sBoAiHKIsCW-54" value="Assign access level to a member" style="ellipse;whiteSpace=wrap;html=1;" parent="i-IRlz0IcXE_nXzK61zn-1" vertex="1">
          <mxGeometry x="76" y="1568" width="204" height="42" as="geometry" />
        </mxCell>
        <mxCell id="XO4-GuZk4sBoAiHKIsCW-55" value="Add a plan" style="ellipse;whiteSpace=wrap;html=1;" parent="i-IRlz0IcXE_nXzK61zn-1" vertex="1">
          <mxGeometry x="76" y="1618" width="104" height="42" as="geometry" />
        </mxCell>
        <mxCell id="XO4-GuZk4sBoAiHKIsCW-56" value="Edit a plan" style="ellipse;whiteSpace=wrap;html=1;" parent="i-IRlz0IcXE_nXzK61zn-1" vertex="1">
          <mxGeometry x="76" y="1668" width="104" height="42" as="geometry" />
        </mxCell>
        <mxCell id="XO4-GuZk4sBoAiHKIsCW-57" value="Delete a plan" style="ellipse;whiteSpace=wrap;html=1;" parent="i-IRlz0IcXE_nXzK61zn-1" vertex="1">
          <mxGeometry x="76" y="1718" width="104" height="42" as="geometry" />
        </mxCell>
        <mxCell id="XO4-GuZk4sBoAiHKIsCW-58" value="Generate a bill" style="ellipse;whiteSpace=wrap;html=1;" parent="i-IRlz0IcXE_nXzK61zn-1" vertex="1">
          <mxGeometry x="76" y="1768" width="104" height="42" as="geometry" />
        </mxCell>
        <mxCell id="XO4-GuZk4sBoAiHKIsCW-59" value="View payments history of a member" style="ellipse;whiteSpace=wrap;html=1;" parent="i-IRlz0IcXE_nXzK61zn-1" vertex="1">
          <mxGeometry x="76" y="1818" width="214" height="42" as="geometry" />
        </mxCell>
        <mxCell id="XO4-GuZk4sBoAiHKIsCW-60" value="Configurate alerts" style="ellipse;whiteSpace=wrap;html=1;" parent="i-IRlz0IcXE_nXzK61zn-1" vertex="1">
          <mxGeometry x="76" y="1870" width="124" height="42" as="geometry" />
        </mxCell>
        <mxCell id="XO4-GuZk4sBoAiHKIsCW-78" style="edgeStyle=elbowEdgeStyle;rounded=0;orthogonalLoop=1;jettySize=auto;html=1;exitX=0.5;exitY=0;exitDx=0;exitDy=0;entryX=0.5;entryY=1;entryDx=0;entryDy=0;elbow=vertical;endArrow=blockThin;endFill=0;endSize=10;" parent="i-IRlz0IcXE_nXzK61zn-1" source="XO4-GuZk4sBoAiHKIsCW-63" target="XO4-GuZk4sBoAiHKIsCW-60" edge="1">
          <mxGeometry relative="1" as="geometry" />
        </mxCell>
        <mxCell id="XO4-GuZk4sBoAiHKIsCW-63" value="For payments" style="ellipse;whiteSpace=wrap;html=1;" parent="i-IRlz0IcXE_nXzK61zn-1" vertex="1">
          <mxGeometry x="189" y="1950" width="124" height="42" as="geometry" />
        </mxCell>
        <mxCell id="XO4-GuZk4sBoAiHKIsCW-76" style="edgeStyle=elbowEdgeStyle;rounded=0;orthogonalLoop=1;jettySize=auto;html=1;exitX=0.5;exitY=0;exitDx=0;exitDy=0;entryX=0.5;entryY=1;entryDx=0;entryDy=0;elbow=vertical;endArrow=blockThin;endFill=0;endSize=10;" parent="i-IRlz0IcXE_nXzK61zn-1" source="XO4-GuZk4sBoAiHKIsCW-65" target="XO4-GuZk4sBoAiHKIsCW-60" edge="1">
          <mxGeometry relative="1" as="geometry" />
        </mxCell>
        <mxCell id="XO4-GuZk4sBoAiHKIsCW-65" value="For expired subscriptions" style="ellipse;whiteSpace=wrap;html=1;" parent="i-IRlz0IcXE_nXzK61zn-1" vertex="1">
          <mxGeometry x="16" y="1950" width="164" height="42" as="geometry" />
        </mxCell>
        <mxCell id="XO4-GuZk4sBoAiHKIsCW-67" value="Add service" style="ellipse;whiteSpace=wrap;html=1;" parent="i-IRlz0IcXE_nXzK61zn-1" vertex="1">
          <mxGeometry x="76" y="2000" width="104" height="42" as="geometry" />
        </mxCell>
        <mxCell id="XO4-GuZk4sBoAiHKIsCW-68" value="Edit service" style="ellipse;whiteSpace=wrap;html=1;" parent="i-IRlz0IcXE_nXzK61zn-1" vertex="1">
          <mxGeometry x="76" y="2050" width="104" height="42" as="geometry" />
        </mxCell>
        <mxCell id="XO4-GuZk4sBoAiHKIsCW-69" value="Delete service" style="ellipse;whiteSpace=wrap;html=1;" parent="i-IRlz0IcXE_nXzK61zn-1" vertex="1">
          <mxGeometry x="76" y="2100" width="104" height="42" as="geometry" />
        </mxCell>
        <mxCell id="XO4-GuZk4sBoAiHKIsCW-70" value="Generate report about the use of a space" style="ellipse;whiteSpace=wrap;html=1;" parent="i-IRlz0IcXE_nXzK61zn-1" vertex="1">
          <mxGeometry x="76" y="2150" width="244" height="42" as="geometry" />
        </mxCell>
        <mxCell id="XO4-GuZk4sBoAiHKIsCW-80" style="edgeStyle=elbowEdgeStyle;rounded=0;orthogonalLoop=1;jettySize=auto;html=1;exitX=0.5;exitY=0;exitDx=0;exitDy=0;entryX=0.5;entryY=1;entryDx=0;entryDy=0;elbow=vertical;endArrow=blockThin;endFill=0;endSize=10;" parent="i-IRlz0IcXE_nXzK61zn-1" source="XO4-GuZk4sBoAiHKIsCW-71" target="XO4-GuZk4sBoAiHKIsCW-70" edge="1">
          <mxGeometry relative="1" as="geometry" />
        </mxCell>
        <mxCell id="XO4-GuZk4sBoAiHKIsCW-71" value="About bookings" style="ellipse;whiteSpace=wrap;html=1;" parent="i-IRlz0IcXE_nXzK61zn-1" vertex="1">
          <mxGeometry x="76" y="2242" width="104" height="42" as="geometry" />
        </mxCell>
        <mxCell id="XO4-GuZk4sBoAiHKIsCW-79" style="edgeStyle=elbowEdgeStyle;rounded=0;orthogonalLoop=1;jettySize=auto;html=1;exitX=0.5;exitY=0;exitDx=0;exitDy=0;entryX=0.5;entryY=1;entryDx=0;entryDy=0;elbow=vertical;endArrow=blockThin;endFill=0;endSize=10;" parent="i-IRlz0IcXE_nXzK61zn-1" source="XO4-GuZk4sBoAiHKIsCW-73" target="XO4-GuZk4sBoAiHKIsCW-70" edge="1">
          <mxGeometry relative="1" as="geometry" />
        </mxCell>
        <mxCell id="XO4-GuZk4sBoAiHKIsCW-73" value="About incomes" style="ellipse;whiteSpace=wrap;html=1;" parent="i-IRlz0IcXE_nXzK61zn-1" vertex="1">
          <mxGeometry x="210" y="2242" width="104" height="42" as="geometry" />
        </mxCell>
        <mxCell id="XO4-GuZk4sBoAiHKIsCW-81" value="View statistics" style="ellipse;whiteSpace=wrap;html=1;" parent="i-IRlz0IcXE_nXzK61zn-1" vertex="1">
          <mxGeometry x="76" y="2300" width="104" height="42" as="geometry" />
        </mxCell>
        <mxCell id="XO4-GuZk4sBoAiHKIsCW-82" value="View done payments" style="ellipse;whiteSpace=wrap;html=1;" parent="i-IRlz0IcXE_nXzK61zn-1" vertex="1">
          <mxGeometry x="76" y="2350" width="144" height="42" as="geometry" />
        </mxCell>
        <mxCell id="5ZcLFVRebJDgtiHkzpdB-1" value="Add user" style="ellipse;whiteSpace=wrap;html=1;" parent="i-IRlz0IcXE_nXzK61zn-1" vertex="1">
          <mxGeometry x="77.5" y="2415" width="104" height="42" as="geometry" />
        </mxCell>
        <mxCell id="5ZcLFVRebJDgtiHkzpdB-2" value="Edit user infos" style="ellipse;whiteSpace=wrap;html=1;" parent="i-IRlz0IcXE_nXzK61zn-1" vertex="1">
          <mxGeometry x="77.5" y="2465" width="104" height="42" as="geometry" />
        </mxCell>
        <mxCell id="5ZcLFVRebJDgtiHkzpdB-3" value="Delete user" style="ellipse;whiteSpace=wrap;html=1;" parent="i-IRlz0IcXE_nXzK61zn-1" vertex="1">
          <mxGeometry x="77.5" y="2515" width="104" height="42" as="geometry" />
        </mxCell>
        <mxCell id="5ZcLFVRebJDgtiHkzpdB-4" value="Restrect user access" style="ellipse;whiteSpace=wrap;html=1;" parent="i-IRlz0IcXE_nXzK61zn-1" vertex="1">
          <mxGeometry x="77.5" y="2565" width="142.5" height="42" as="geometry" />
        </mxCell>
        <mxCell id="5ZcLFVRebJDgtiHkzpdB-5" value="Reset user password" style="ellipse;whiteSpace=wrap;html=1;" parent="i-IRlz0IcXE_nXzK61zn-1" vertex="1">
          <mxGeometry x="77.5" y="2615" width="142.5" height="42" as="geometry" />
        </mxCell>
        <mxCell id="5ZcLFVRebJDgtiHkzpdB-6" value="Configurate the global parameters" style="ellipse;whiteSpace=wrap;html=1;" parent="i-IRlz0IcXE_nXzK61zn-1" vertex="1">
          <mxGeometry x="77.5" y="2665" width="202.5" height="42" as="geometry" />
        </mxCell>
        <mxCell id="5ZcLFVRebJDgtiHkzpdB-10" style="edgeStyle=orthogonalEdgeStyle;rounded=0;orthogonalLoop=1;jettySize=auto;html=1;exitX=0.5;exitY=0;exitDx=0;exitDy=0;entryX=0.5;entryY=1;entryDx=0;entryDy=0;endArrow=blockThin;endFill=0;endSize=10;" parent="i-IRlz0IcXE_nXzK61zn-1" source="5ZcLFVRebJDgtiHkzpdB-7" target="5ZcLFVRebJDgtiHkzpdB-6" edge="1">
          <mxGeometry relative="1" as="geometry" />
        </mxCell>
        <mxCell id="5ZcLFVRebJDgtiHkzpdB-7" value="For space type" style="ellipse;whiteSpace=wrap;html=1;" parent="i-IRlz0IcXE_nXzK61zn-1" vertex="1">
          <mxGeometry x="77.5" y="2755" width="104" height="42" as="geometry" />
        </mxCell>
        <mxCell id="5ZcLFVRebJDgtiHkzpdB-11" style="edgeStyle=orthogonalEdgeStyle;rounded=0;orthogonalLoop=1;jettySize=auto;html=1;exitX=0.5;exitY=0;exitDx=0;exitDy=0;endArrow=blockThin;endFill=0;endSize=10;" parent="i-IRlz0IcXE_nXzK61zn-1" source="5ZcLFVRebJDgtiHkzpdB-8" target="5ZcLFVRebJDgtiHkzpdB-6" edge="1">
          <mxGeometry relative="1" as="geometry" />
        </mxCell>
        <mxCell id="5ZcLFVRebJDgtiHkzpdB-8" value="For booking politics" style="ellipse;whiteSpace=wrap;html=1;" parent="i-IRlz0IcXE_nXzK61zn-1" vertex="1">
          <mxGeometry x="187.5" y="2755" width="123" height="42" as="geometry" />
        </mxCell>
        <mxCell id="5ZcLFVRebJDgtiHkzpdB-12" style="edgeStyle=orthogonalEdgeStyle;rounded=0;orthogonalLoop=1;jettySize=auto;html=1;exitX=0.5;exitY=0;exitDx=0;exitDy=0;entryX=0.5;entryY=1;entryDx=0;entryDy=0;endArrow=blockThin;endFill=0;endSize=10;" parent="i-IRlz0IcXE_nXzK61zn-1" source="5ZcLFVRebJDgtiHkzpdB-9" target="5ZcLFVRebJDgtiHkzpdB-6" edge="1">
          <mxGeometry relative="1" as="geometry" />
        </mxCell>
        <mxCell id="5ZcLFVRebJDgtiHkzpdB-9" value="For payment options" style="ellipse;whiteSpace=wrap;html=1;" parent="i-IRlz0IcXE_nXzK61zn-1" vertex="1">
          <mxGeometry x="317.5" y="2755" width="125" height="42" as="geometry" />
        </mxCell>
        <mxCell id="5ZcLFVRebJDgtiHkzpdB-13" value="Configurate notification parameter" style="ellipse;whiteSpace=wrap;html=1;" parent="i-IRlz0IcXE_nXzK61zn-1" vertex="1">
          <mxGeometry x="77.5" y="2805" width="201" height="42" as="geometry" />
        </mxCell>
        <mxCell id="5ZcLFVRebJDgtiHkzpdB-14" value="Assign roles to users" style="ellipse;whiteSpace=wrap;html=1;" parent="i-IRlz0IcXE_nXzK61zn-1" vertex="1">
          <mxGeometry x="77.5" y="2855" width="139" height="42" as="geometry" />
        </mxCell>
        <mxCell id="5ZcLFVRebJDgtiHkzpdB-15" value="Assign permissions to users" style="ellipse;whiteSpace=wrap;html=1;" parent="i-IRlz0IcXE_nXzK61zn-1" vertex="1">
          <mxGeometry x="77.5" y="2905" width="173" height="42" as="geometry" />
        </mxCell>
        <mxCell id="i-IRlz0IcXE_nXzK61zn-32" style="rounded=0;orthogonalLoop=1;jettySize=auto;html=1;exitX=0.5;exitY=0.5;exitDx=0;exitDy=0;exitPerimeter=0;entryX=0;entryY=0.5;entryDx=0;entryDy=0;endArrow=none;endFill=0;edgeStyle=elbowEdgeStyle;" parent="1" source="i-IRlz0IcXE_nXzK61zn-19" target="i-IRlz0IcXE_nXzK61zn-9" edge="1">
          <mxGeometry relative="1" as="geometry" />
        </mxCell>
        <mxCell id="i-IRlz0IcXE_nXzK61zn-33" style="rounded=0;orthogonalLoop=1;jettySize=auto;html=1;exitX=0.5;exitY=0.5;exitDx=0;exitDy=0;exitPerimeter=0;entryX=0;entryY=0.5;entryDx=0;entryDy=0;endArrow=none;endFill=0;edgeStyle=elbowEdgeStyle;" parent="1" source="i-IRlz0IcXE_nXzK61zn-19" target="i-IRlz0IcXE_nXzK61zn-12" edge="1">
          <mxGeometry relative="1" as="geometry" />
        </mxCell>
        <mxCell id="i-IRlz0IcXE_nXzK61zn-34" style="rounded=0;orthogonalLoop=1;jettySize=auto;html=1;exitX=0.5;exitY=0.5;exitDx=0;exitDy=0;exitPerimeter=0;entryX=0;entryY=0.5;entryDx=0;entryDy=0;endArrow=none;endFill=0;edgeStyle=elbowEdgeStyle;" parent="1" source="i-IRlz0IcXE_nXzK61zn-19" target="i-IRlz0IcXE_nXzK61zn-13" edge="1">
          <mxGeometry relative="1" as="geometry" />
        </mxCell>
        <mxCell id="i-IRlz0IcXE_nXzK61zn-35" style="rounded=0;orthogonalLoop=1;jettySize=auto;html=1;exitX=0.5;exitY=0.5;exitDx=0;exitDy=0;exitPerimeter=0;entryX=0;entryY=0.5;entryDx=0;entryDy=0;endArrow=none;endFill=0;edgeStyle=elbowEdgeStyle;" parent="1" source="i-IRlz0IcXE_nXzK61zn-19" target="i-IRlz0IcXE_nXzK61zn-14" edge="1">
          <mxGeometry relative="1" as="geometry" />
        </mxCell>
        <mxCell id="r7o-0eFES539iKnrsoc5-2" style="rounded=0;orthogonalLoop=1;jettySize=auto;html=1;exitX=0.5;exitY=0.5;exitDx=0;exitDy=0;exitPerimeter=0;entryX=0;entryY=0.5;entryDx=0;entryDy=0;endArrow=none;endFill=0;edgeStyle=elbowEdgeStyle;" parent="1" source="i-IRlz0IcXE_nXzK61zn-19" target="r7o-0eFES539iKnrsoc5-1" edge="1">
          <mxGeometry relative="1" as="geometry" />
        </mxCell>
        <mxCell id="hmTbpdO_2-0VxWjC-bMR-5" style="rounded=0;orthogonalLoop=1;jettySize=auto;html=1;exitX=0.5;exitY=0;exitDx=0;exitDy=0;exitPerimeter=0;endArrow=blockThin;endFill=0;endSize=30;targetPerimeterSpacing=25;edgeStyle=elbowEdgeStyle;elbow=vertical;" parent="1" source="i-IRlz0IcXE_nXzK61zn-19" target="hmTbpdO_2-0VxWjC-bMR-2" edge="1">
          <mxGeometry relative="1" as="geometry" />
        </mxCell>
        <mxCell id="XO4-GuZk4sBoAiHKIsCW-14" style="rounded=0;orthogonalLoop=1;jettySize=auto;html=1;exitX=0.5;exitY=0.5;exitDx=0;exitDy=0;exitPerimeter=0;entryX=0;entryY=0.5;entryDx=0;entryDy=0;endArrow=none;endFill=0;edgeStyle=elbowEdgeStyle;" parent="1" source="i-IRlz0IcXE_nXzK61zn-19" target="hmTbpdO_2-0VxWjC-bMR-18" edge="1">
          <mxGeometry relative="1" as="geometry" />
        </mxCell>
        <mxCell id="XO4-GuZk4sBoAiHKIsCW-18" style="rounded=0;orthogonalLoop=1;jettySize=auto;html=1;exitX=0.5;exitY=0.5;exitDx=0;exitDy=0;exitPerimeter=0;entryX=0;entryY=0.5;entryDx=0;entryDy=0;endArrow=none;endFill=0;edgeStyle=elbowEdgeStyle;" parent="1" source="i-IRlz0IcXE_nXzK61zn-19" target="XO4-GuZk4sBoAiHKIsCW-1" edge="1">
          <mxGeometry relative="1" as="geometry" />
        </mxCell>
        <mxCell id="XO4-GuZk4sBoAiHKIsCW-19" style="rounded=0;orthogonalLoop=1;jettySize=auto;html=1;exitX=0.5;exitY=0.5;exitDx=0;exitDy=0;exitPerimeter=0;entryX=0;entryY=0.5;entryDx=0;entryDy=0;endArrow=none;endFill=0;edgeStyle=elbowEdgeStyle;" parent="1" source="i-IRlz0IcXE_nXzK61zn-19" target="XO4-GuZk4sBoAiHKIsCW-2" edge="1">
          <mxGeometry relative="1" as="geometry" />
        </mxCell>
        <mxCell id="XO4-GuZk4sBoAiHKIsCW-20" style="rounded=0;orthogonalLoop=1;jettySize=auto;html=1;exitX=0.5;exitY=0.5;exitDx=0;exitDy=0;exitPerimeter=0;entryX=0;entryY=0.5;entryDx=0;entryDy=0;endArrow=none;endFill=0;edgeStyle=elbowEdgeStyle;" parent="1" source="i-IRlz0IcXE_nXzK61zn-19" target="XO4-GuZk4sBoAiHKIsCW-3" edge="1">
          <mxGeometry relative="1" as="geometry" />
        </mxCell>
        <mxCell id="XO4-GuZk4sBoAiHKIsCW-21" style="rounded=0;orthogonalLoop=1;jettySize=auto;html=1;exitX=0.5;exitY=0.5;exitDx=0;exitDy=0;exitPerimeter=0;entryX=0;entryY=0.5;entryDx=0;entryDy=0;endArrow=none;endFill=0;edgeStyle=elbowEdgeStyle;" parent="1" source="i-IRlz0IcXE_nXzK61zn-19" target="XO4-GuZk4sBoAiHKIsCW-4" edge="1">
          <mxGeometry relative="1" as="geometry" />
        </mxCell>
        <mxCell id="XO4-GuZk4sBoAiHKIsCW-22" style="rounded=0;orthogonalLoop=1;jettySize=auto;html=1;exitX=0.5;exitY=0.5;exitDx=0;exitDy=0;exitPerimeter=0;entryX=0;entryY=0.5;entryDx=0;entryDy=0;endArrow=none;endFill=0;edgeStyle=elbowEdgeStyle;" parent="1" source="i-IRlz0IcXE_nXzK61zn-19" target="XO4-GuZk4sBoAiHKIsCW-5" edge="1">
          <mxGeometry relative="1" as="geometry" />
        </mxCell>
        <mxCell id="XO4-GuZk4sBoAiHKIsCW-23" style="rounded=0;orthogonalLoop=1;jettySize=auto;html=1;exitX=0.5;exitY=0.5;exitDx=0;exitDy=0;exitPerimeter=0;entryX=0;entryY=0.5;entryDx=0;entryDy=0;endArrow=none;endFill=0;edgeStyle=elbowEdgeStyle;" parent="1" source="i-IRlz0IcXE_nXzK61zn-19" target="XO4-GuZk4sBoAiHKIsCW-9" edge="1">
          <mxGeometry relative="1" as="geometry" />
        </mxCell>
        <mxCell id="XO4-GuZk4sBoAiHKIsCW-24" style="rounded=0;orthogonalLoop=1;jettySize=auto;html=1;exitX=0.5;exitY=0.5;exitDx=0;exitDy=0;exitPerimeter=0;entryX=0;entryY=0.5;entryDx=0;entryDy=0;endArrow=none;endFill=0;edgeStyle=elbowEdgeStyle;" parent="1" source="i-IRlz0IcXE_nXzK61zn-19" target="XO4-GuZk4sBoAiHKIsCW-10" edge="1">
          <mxGeometry relative="1" as="geometry" />
        </mxCell>
        <mxCell id="i-IRlz0IcXE_nXzK61zn-19" value="Member" style="shape=umlActor;verticalLabelPosition=bottom;verticalAlign=top;html=1;" parent="1" vertex="1">
          <mxGeometry x="90" y="-490" width="30" height="60" as="geometry" />
        </mxCell>
        <mxCell id="hmTbpdO_2-0VxWjC-bMR-8" style="rounded=0;orthogonalLoop=1;jettySize=auto;html=1;exitX=0.5;exitY=0;exitDx=0;exitDy=0;exitPerimeter=0;targetPerimeterSpacing=25;endSize=30;endArrow=blockThin;endFill=0;edgeStyle=elbowEdgeStyle;elbow=vertical;" parent="1" source="i-IRlz0IcXE_nXzK61zn-20" target="hmTbpdO_2-0VxWjC-bMR-2" edge="1">
          <mxGeometry relative="1" as="geometry" />
        </mxCell>
        <mxCell id="5ZcLFVRebJDgtiHkzpdB-16" style="edgeStyle=orthogonalEdgeStyle;rounded=0;orthogonalLoop=1;jettySize=auto;html=1;exitX=0.5;exitY=0.5;exitDx=0;exitDy=0;exitPerimeter=0;entryX=0;entryY=0.5;entryDx=0;entryDy=0;endArrow=none;endFill=0;" parent="1" source="i-IRlz0IcXE_nXzK61zn-20" target="5ZcLFVRebJDgtiHkzpdB-1" edge="1">
          <mxGeometry relative="1" as="geometry" />
        </mxCell>
        <mxCell id="5ZcLFVRebJDgtiHkzpdB-17" style="edgeStyle=orthogonalEdgeStyle;rounded=0;orthogonalLoop=1;jettySize=auto;html=1;exitX=0.5;exitY=0.5;exitDx=0;exitDy=0;exitPerimeter=0;entryX=0;entryY=0.5;entryDx=0;entryDy=0;endArrow=none;endFill=0;" parent="1" source="i-IRlz0IcXE_nXzK61zn-20" target="5ZcLFVRebJDgtiHkzpdB-2" edge="1">
          <mxGeometry relative="1" as="geometry" />
        </mxCell>
        <mxCell id="5ZcLFVRebJDgtiHkzpdB-18" style="edgeStyle=orthogonalEdgeStyle;rounded=0;orthogonalLoop=1;jettySize=auto;html=1;exitX=0.5;exitY=0.5;exitDx=0;exitDy=0;exitPerimeter=0;entryX=0;entryY=0.5;entryDx=0;entryDy=0;endArrow=none;endFill=0;" parent="1" source="i-IRlz0IcXE_nXzK61zn-20" target="5ZcLFVRebJDgtiHkzpdB-3" edge="1">
          <mxGeometry relative="1" as="geometry" />
        </mxCell>
        <mxCell id="5ZcLFVRebJDgtiHkzpdB-19" style="edgeStyle=orthogonalEdgeStyle;rounded=0;orthogonalLoop=1;jettySize=auto;html=1;exitX=0.5;exitY=0.5;exitDx=0;exitDy=0;exitPerimeter=0;entryX=0;entryY=0.5;entryDx=0;entryDy=0;endArrow=none;endFill=0;" parent="1" source="i-IRlz0IcXE_nXzK61zn-20" target="5ZcLFVRebJDgtiHkzpdB-4" edge="1">
          <mxGeometry relative="1" as="geometry" />
        </mxCell>
        <mxCell id="5ZcLFVRebJDgtiHkzpdB-20" style="edgeStyle=orthogonalEdgeStyle;rounded=0;orthogonalLoop=1;jettySize=auto;html=1;exitX=0.5;exitY=0.5;exitDx=0;exitDy=0;exitPerimeter=0;entryX=0;entryY=0.5;entryDx=0;entryDy=0;endArrow=none;endFill=0;" parent="1" source="i-IRlz0IcXE_nXzK61zn-20" target="5ZcLFVRebJDgtiHkzpdB-5" edge="1">
          <mxGeometry relative="1" as="geometry" />
        </mxCell>
        <mxCell id="5ZcLFVRebJDgtiHkzpdB-21" style="edgeStyle=orthogonalEdgeStyle;rounded=0;orthogonalLoop=1;jettySize=auto;html=1;exitX=0.5;exitY=0.5;exitDx=0;exitDy=0;exitPerimeter=0;entryX=0;entryY=0.5;entryDx=0;entryDy=0;endArrow=none;endFill=0;" parent="1" source="i-IRlz0IcXE_nXzK61zn-20" target="5ZcLFVRebJDgtiHkzpdB-6" edge="1">
          <mxGeometry relative="1" as="geometry" />
        </mxCell>
        <mxCell id="5ZcLFVRebJDgtiHkzpdB-22" style="edgeStyle=orthogonalEdgeStyle;rounded=0;orthogonalLoop=1;jettySize=auto;html=1;exitX=0.5;exitY=0.5;exitDx=0;exitDy=0;exitPerimeter=0;entryX=0;entryY=0.5;entryDx=0;entryDy=0;endArrow=none;endFill=0;" parent="1" source="i-IRlz0IcXE_nXzK61zn-20" target="5ZcLFVRebJDgtiHkzpdB-13" edge="1">
          <mxGeometry relative="1" as="geometry" />
        </mxCell>
        <mxCell id="5ZcLFVRebJDgtiHkzpdB-23" style="edgeStyle=orthogonalEdgeStyle;rounded=0;orthogonalLoop=1;jettySize=auto;html=1;exitX=0.5;exitY=0.5;exitDx=0;exitDy=0;exitPerimeter=0;entryX=0;entryY=0.5;entryDx=0;entryDy=0;endArrow=none;endFill=0;" parent="1" source="i-IRlz0IcXE_nXzK61zn-20" target="5ZcLFVRebJDgtiHkzpdB-14" edge="1">
          <mxGeometry relative="1" as="geometry" />
        </mxCell>
        <mxCell id="5ZcLFVRebJDgtiHkzpdB-24" style="edgeStyle=orthogonalEdgeStyle;rounded=0;orthogonalLoop=1;jettySize=auto;html=1;exitX=0.5;exitY=0.5;exitDx=0;exitDy=0;exitPerimeter=0;entryX=0;entryY=0.5;entryDx=0;entryDy=0;endArrow=none;endFill=0;" parent="1" source="i-IRlz0IcXE_nXzK61zn-20" target="5ZcLFVRebJDgtiHkzpdB-15" edge="1">
          <mxGeometry relative="1" as="geometry" />
        </mxCell>
        <mxCell id="i-IRlz0IcXE_nXzK61zn-20" value="Admin" style="shape=umlActor;verticalLabelPosition=bottom;verticalAlign=top;html=1;" parent="1" vertex="1">
          <mxGeometry x="-10" y="1570" width="30" height="60" as="geometry" />
        </mxCell>
        <mxCell id="hmTbpdO_2-0VxWjC-bMR-3" style="rounded=0;orthogonalLoop=1;jettySize=auto;html=1;exitX=0.5;exitY=0.5;exitDx=0;exitDy=0;exitPerimeter=0;entryX=0;entryY=0.5;entryDx=0;entryDy=0;endArrow=none;endFill=0;edgeStyle=elbowEdgeStyle;" parent="1" source="hmTbpdO_2-0VxWjC-bMR-2" target="hmTbpdO_2-0VxWjC-bMR-1" edge="1">
          <mxGeometry relative="1" as="geometry" />
        </mxCell>
        <mxCell id="hmTbpdO_2-0VxWjC-bMR-4" style="rounded=0;orthogonalLoop=1;jettySize=auto;html=1;exitX=0.5;exitY=0.5;exitDx=0;exitDy=0;exitPerimeter=0;entryX=0;entryY=0.5;entryDx=0;entryDy=0;endArrow=none;endFill=0;edgeStyle=elbowEdgeStyle;" parent="1" source="hmTbpdO_2-0VxWjC-bMR-2" target="a3FcbvdhJmXR1AZgl7N_-1" edge="1">
          <mxGeometry relative="1" as="geometry" />
        </mxCell>
        <mxCell id="hmTbpdO_2-0VxWjC-bMR-10" style="rounded=0;orthogonalLoop=1;jettySize=auto;html=1;exitX=0.5;exitY=0.5;exitDx=0;exitDy=0;exitPerimeter=0;entryX=0;entryY=0.5;entryDx=0;entryDy=0;endArrow=none;endFill=0;edgeStyle=elbowEdgeStyle;" parent="1" source="hmTbpdO_2-0VxWjC-bMR-2" target="hmTbpdO_2-0VxWjC-bMR-9" edge="1">
          <mxGeometry relative="1" as="geometry" />
        </mxCell>
        <mxCell id="hmTbpdO_2-0VxWjC-bMR-2" value="User" style="shape=umlActor;verticalLabelPosition=bottom;verticalAlign=top;html=1;outlineConnect=0;" parent="1" vertex="1">
          <mxGeometry y="-960" width="30" height="60" as="geometry" />
        </mxCell>
        <mxCell id="hmTbpdO_2-0VxWjC-bMR-7" style="rounded=0;orthogonalLoop=1;jettySize=auto;html=1;exitX=0.5;exitY=0;exitDx=0;exitDy=0;exitPerimeter=0;targetPerimeterSpacing=25;endSize=30;endArrow=blockThin;endFill=0;edgeStyle=elbowEdgeStyle;elbow=vertical;" parent="1" source="hmTbpdO_2-0VxWjC-bMR-6" target="hmTbpdO_2-0VxWjC-bMR-2" edge="1">
          <mxGeometry relative="1" as="geometry">
            <mxPoint x="120" y="-840" as="targetPoint" />
          </mxGeometry>
        </mxCell>
        <mxCell id="XO4-GuZk4sBoAiHKIsCW-83" style="edgeStyle=elbowEdgeStyle;rounded=0;orthogonalLoop=1;jettySize=auto;html=1;exitX=0.5;exitY=0.5;exitDx=0;exitDy=0;exitPerimeter=0;entryX=0;entryY=0.5;entryDx=0;entryDy=0;endArrow=none;endFill=0;" parent="1" source="hmTbpdO_2-0VxWjC-bMR-6" target="XO4-GuZk4sBoAiHKIsCW-41" edge="1">
          <mxGeometry relative="1" as="geometry" />
        </mxCell>
        <mxCell id="XO4-GuZk4sBoAiHKIsCW-84" style="edgeStyle=elbowEdgeStyle;rounded=0;orthogonalLoop=1;jettySize=auto;html=1;exitX=0.5;exitY=0.5;exitDx=0;exitDy=0;exitPerimeter=0;entryX=0;entryY=0.5;entryDx=0;entryDy=0;endArrow=none;endFill=0;" parent="1" source="hmTbpdO_2-0VxWjC-bMR-6" target="XO4-GuZk4sBoAiHKIsCW-44" edge="1">
          <mxGeometry relative="1" as="geometry" />
        </mxCell>
        <mxCell id="XO4-GuZk4sBoAiHKIsCW-85" style="edgeStyle=elbowEdgeStyle;rounded=0;orthogonalLoop=1;jettySize=auto;html=1;exitX=0.5;exitY=0.5;exitDx=0;exitDy=0;exitPerimeter=0;entryX=0;entryY=0.5;entryDx=0;entryDy=0;endArrow=none;endFill=0;" parent="1" source="hmTbpdO_2-0VxWjC-bMR-6" target="XO4-GuZk4sBoAiHKIsCW-45" edge="1">
          <mxGeometry relative="1" as="geometry" />
        </mxCell>
        <mxCell id="XO4-GuZk4sBoAiHKIsCW-86" style="edgeStyle=elbowEdgeStyle;rounded=0;orthogonalLoop=1;jettySize=auto;html=1;exitX=0.5;exitY=0.5;exitDx=0;exitDy=0;exitPerimeter=0;entryX=0;entryY=0.5;entryDx=0;entryDy=0;endArrow=none;endFill=0;" parent="1" source="hmTbpdO_2-0VxWjC-bMR-6" target="XO4-GuZk4sBoAiHKIsCW-46" edge="1">
          <mxGeometry relative="1" as="geometry" />
        </mxCell>
        <mxCell id="XO4-GuZk4sBoAiHKIsCW-87" style="edgeStyle=elbowEdgeStyle;rounded=0;orthogonalLoop=1;jettySize=auto;html=1;exitX=0.5;exitY=0.5;exitDx=0;exitDy=0;exitPerimeter=0;entryX=0;entryY=0.5;entryDx=0;entryDy=0;endArrow=none;endFill=0;" parent="1" source="hmTbpdO_2-0VxWjC-bMR-6" target="XO4-GuZk4sBoAiHKIsCW-49" edge="1">
          <mxGeometry relative="1" as="geometry" />
        </mxCell>
        <mxCell id="XO4-GuZk4sBoAiHKIsCW-88" style="edgeStyle=elbowEdgeStyle;rounded=0;orthogonalLoop=1;jettySize=auto;html=1;exitX=0.5;exitY=0.5;exitDx=0;exitDy=0;exitPerimeter=0;entryX=0;entryY=0.5;entryDx=0;entryDy=0;endArrow=none;endFill=0;" parent="1" source="hmTbpdO_2-0VxWjC-bMR-6" target="XO4-GuZk4sBoAiHKIsCW-50" edge="1">
          <mxGeometry relative="1" as="geometry" />
        </mxCell>
        <mxCell id="XO4-GuZk4sBoAiHKIsCW-89" style="edgeStyle=elbowEdgeStyle;rounded=0;orthogonalLoop=1;jettySize=auto;html=1;exitX=0.5;exitY=0.5;exitDx=0;exitDy=0;exitPerimeter=0;entryX=0;entryY=0.5;entryDx=0;entryDy=0;endArrow=none;endFill=0;" parent="1" source="hmTbpdO_2-0VxWjC-bMR-6" target="XO4-GuZk4sBoAiHKIsCW-51" edge="1">
          <mxGeometry relative="1" as="geometry" />
        </mxCell>
        <mxCell id="XO4-GuZk4sBoAiHKIsCW-90" style="edgeStyle=elbowEdgeStyle;rounded=0;orthogonalLoop=1;jettySize=auto;html=1;exitX=0.5;exitY=0.5;exitDx=0;exitDy=0;exitPerimeter=0;entryX=0;entryY=0.5;entryDx=0;entryDy=0;endArrow=none;endFill=0;" parent="1" source="hmTbpdO_2-0VxWjC-bMR-6" target="XO4-GuZk4sBoAiHKIsCW-52" edge="1">
          <mxGeometry relative="1" as="geometry" />
        </mxCell>
        <mxCell id="XO4-GuZk4sBoAiHKIsCW-91" style="edgeStyle=elbowEdgeStyle;rounded=0;orthogonalLoop=1;jettySize=auto;html=1;exitX=0.5;exitY=0.5;exitDx=0;exitDy=0;exitPerimeter=0;entryX=0;entryY=0.5;entryDx=0;entryDy=0;endArrow=none;endFill=0;" parent="1" source="hmTbpdO_2-0VxWjC-bMR-6" target="XO4-GuZk4sBoAiHKIsCW-53" edge="1">
          <mxGeometry relative="1" as="geometry" />
        </mxCell>
        <mxCell id="XO4-GuZk4sBoAiHKIsCW-92" style="edgeStyle=elbowEdgeStyle;rounded=0;orthogonalLoop=1;jettySize=auto;html=1;exitX=0.5;exitY=0.5;exitDx=0;exitDy=0;exitPerimeter=0;entryX=0;entryY=0.5;entryDx=0;entryDy=0;endArrow=none;endFill=0;" parent="1" source="hmTbpdO_2-0VxWjC-bMR-6" target="XO4-GuZk4sBoAiHKIsCW-54" edge="1">
          <mxGeometry relative="1" as="geometry" />
        </mxCell>
        <mxCell id="XO4-GuZk4sBoAiHKIsCW-93" style="edgeStyle=elbowEdgeStyle;rounded=0;orthogonalLoop=1;jettySize=auto;html=1;exitX=0.5;exitY=0.5;exitDx=0;exitDy=0;exitPerimeter=0;entryX=0;entryY=0.5;entryDx=0;entryDy=0;endArrow=none;endFill=0;" parent="1" source="hmTbpdO_2-0VxWjC-bMR-6" target="XO4-GuZk4sBoAiHKIsCW-55" edge="1">
          <mxGeometry relative="1" as="geometry" />
        </mxCell>
        <mxCell id="XO4-GuZk4sBoAiHKIsCW-94" style="edgeStyle=elbowEdgeStyle;rounded=0;orthogonalLoop=1;jettySize=auto;html=1;exitX=0.5;exitY=0.5;exitDx=0;exitDy=0;exitPerimeter=0;entryX=0;entryY=0.5;entryDx=0;entryDy=0;endArrow=none;endFill=0;" parent="1" source="hmTbpdO_2-0VxWjC-bMR-6" target="XO4-GuZk4sBoAiHKIsCW-56" edge="1">
          <mxGeometry relative="1" as="geometry" />
        </mxCell>
        <mxCell id="XO4-GuZk4sBoAiHKIsCW-95" style="edgeStyle=elbowEdgeStyle;rounded=0;orthogonalLoop=1;jettySize=auto;html=1;exitX=0.5;exitY=0.5;exitDx=0;exitDy=0;exitPerimeter=0;entryX=0;entryY=0.5;entryDx=0;entryDy=0;endArrow=none;endFill=0;" parent="1" source="hmTbpdO_2-0VxWjC-bMR-6" target="XO4-GuZk4sBoAiHKIsCW-57" edge="1">
          <mxGeometry relative="1" as="geometry" />
        </mxCell>
        <mxCell id="XO4-GuZk4sBoAiHKIsCW-96" style="edgeStyle=elbowEdgeStyle;rounded=0;orthogonalLoop=1;jettySize=auto;html=1;exitX=0.5;exitY=0.5;exitDx=0;exitDy=0;exitPerimeter=0;entryX=0;entryY=0.5;entryDx=0;entryDy=0;endArrow=none;endFill=0;" parent="1" source="hmTbpdO_2-0VxWjC-bMR-6" target="XO4-GuZk4sBoAiHKIsCW-58" edge="1">
          <mxGeometry relative="1" as="geometry" />
        </mxCell>
        <mxCell id="XO4-GuZk4sBoAiHKIsCW-97" style="edgeStyle=elbowEdgeStyle;rounded=0;orthogonalLoop=1;jettySize=auto;html=1;exitX=0.5;exitY=0.5;exitDx=0;exitDy=0;exitPerimeter=0;entryX=0;entryY=0.5;entryDx=0;entryDy=0;endArrow=none;endFill=0;" parent="1" source="hmTbpdO_2-0VxWjC-bMR-6" target="XO4-GuZk4sBoAiHKIsCW-59" edge="1">
          <mxGeometry relative="1" as="geometry" />
        </mxCell>
        <mxCell id="XO4-GuZk4sBoAiHKIsCW-98" style="edgeStyle=elbowEdgeStyle;rounded=0;orthogonalLoop=1;jettySize=auto;html=1;exitX=0.5;exitY=0.5;exitDx=0;exitDy=0;exitPerimeter=0;entryX=0;entryY=0.5;entryDx=0;entryDy=0;endArrow=none;endFill=0;" parent="1" source="hmTbpdO_2-0VxWjC-bMR-6" target="XO4-GuZk4sBoAiHKIsCW-60" edge="1">
          <mxGeometry relative="1" as="geometry" />
        </mxCell>
        <mxCell id="XO4-GuZk4sBoAiHKIsCW-99" style="edgeStyle=elbowEdgeStyle;rounded=0;orthogonalLoop=1;jettySize=auto;html=1;exitX=0.5;exitY=0.5;exitDx=0;exitDy=0;exitPerimeter=0;entryX=0;entryY=0.5;entryDx=0;entryDy=0;endArrow=none;endFill=0;" parent="1" source="hmTbpdO_2-0VxWjC-bMR-6" target="XO4-GuZk4sBoAiHKIsCW-67" edge="1">
          <mxGeometry relative="1" as="geometry" />
        </mxCell>
        <mxCell id="XO4-GuZk4sBoAiHKIsCW-100" style="edgeStyle=elbowEdgeStyle;rounded=0;orthogonalLoop=1;jettySize=auto;html=1;exitX=0.5;exitY=0.5;exitDx=0;exitDy=0;exitPerimeter=0;entryX=0;entryY=0.5;entryDx=0;entryDy=0;endArrow=none;endFill=0;" parent="1" source="hmTbpdO_2-0VxWjC-bMR-6" target="XO4-GuZk4sBoAiHKIsCW-68" edge="1">
          <mxGeometry relative="1" as="geometry" />
        </mxCell>
        <mxCell id="XO4-GuZk4sBoAiHKIsCW-101" style="edgeStyle=elbowEdgeStyle;rounded=0;orthogonalLoop=1;jettySize=auto;html=1;exitX=0.5;exitY=0.5;exitDx=0;exitDy=0;exitPerimeter=0;entryX=0;entryY=0.5;entryDx=0;entryDy=0;endArrow=none;endFill=0;" parent="1" source="hmTbpdO_2-0VxWjC-bMR-6" target="XO4-GuZk4sBoAiHKIsCW-69" edge="1">
          <mxGeometry relative="1" as="geometry" />
        </mxCell>
        <mxCell id="XO4-GuZk4sBoAiHKIsCW-102" style="edgeStyle=elbowEdgeStyle;rounded=0;orthogonalLoop=1;jettySize=auto;html=1;exitX=0.5;exitY=0.5;exitDx=0;exitDy=0;exitPerimeter=0;entryX=0;entryY=0.5;entryDx=0;entryDy=0;endArrow=none;endFill=0;" parent="1" source="hmTbpdO_2-0VxWjC-bMR-6" target="XO4-GuZk4sBoAiHKIsCW-70" edge="1">
          <mxGeometry relative="1" as="geometry" />
        </mxCell>
        <mxCell id="XO4-GuZk4sBoAiHKIsCW-103" style="edgeStyle=elbowEdgeStyle;rounded=0;orthogonalLoop=1;jettySize=auto;html=1;exitX=0.5;exitY=0.5;exitDx=0;exitDy=0;exitPerimeter=0;entryX=0;entryY=0.5;entryDx=0;entryDy=0;endArrow=none;endFill=0;" parent="1" source="hmTbpdO_2-0VxWjC-bMR-6" target="XO4-GuZk4sBoAiHKIsCW-81" edge="1">
          <mxGeometry relative="1" as="geometry" />
        </mxCell>
        <mxCell id="XO4-GuZk4sBoAiHKIsCW-104" style="edgeStyle=elbowEdgeStyle;rounded=0;orthogonalLoop=1;jettySize=auto;html=1;exitX=0.5;exitY=0.5;exitDx=0;exitDy=0;exitPerimeter=0;entryX=0;entryY=0.5;entryDx=0;entryDy=0;endArrow=none;endFill=0;" parent="1" source="hmTbpdO_2-0VxWjC-bMR-6" target="XO4-GuZk4sBoAiHKIsCW-82" edge="1">
          <mxGeometry relative="1" as="geometry" />
        </mxCell>
        <mxCell id="hmTbpdO_2-0VxWjC-bMR-6" value="Manager" style="shape=umlActor;verticalLabelPosition=bottom;verticalAlign=top;html=1;outlineConnect=0;" parent="1" vertex="1">
          <mxGeometry x="30" y="600" width="30" height="60" as="geometry" />
        </mxCell>
        <mxCell id="5ZcLFVRebJDgtiHkzpdB-36" value="&#xa;&lt;span style=&quot;color: rgb(0, 0, 0); font-family: Helvetica; font-size: 12px; font-style: normal; font-variant-ligatures: normal; font-variant-caps: normal; font-weight: 400; letter-spacing: normal; orphans: 2; text-align: center; text-indent: 0px; text-transform: none; widows: 2; word-spacing: 0px; -webkit-text-stroke-width: 0px; white-space: nowrap; background-color: rgb(251, 251, 251); text-decoration-thickness: initial; text-decoration-style: initial; text-decoration-color: initial; display: inline !important; float: none;&quot;&gt;&amp;lt;&amp;lt;include&amp;gt;&amp;gt;&lt;/span&gt;&#xa;&#xa;" style="edgeStyle=orthogonalEdgeStyle;rounded=0;orthogonalLoop=1;jettySize=auto;html=1;exitX=0;exitY=0.5;exitDx=0;exitDy=0;entryX=1;entryY=0.5;entryDx=0;entryDy=0;dashed=1;endArrow=none;endFill=0;startArrow=openThin;startFill=0;startSize=20;" parent="1" source="5ZcLFVRebJDgtiHkzpdB-32" target="a3FcbvdhJmXR1AZgl7N_-1" edge="1">
          <mxGeometry x="0.7207" relative="1" as="geometry">
            <Array as="points">
              <mxPoint x="820" y="355" />
              <mxPoint x="820" y="-935" />
            </Array>
            <mxPoint as="offset" />
          </mxGeometry>
        </mxCell>
        <mxCell id="5ZcLFVRebJDgtiHkzpdB-37" value="&#xa;&lt;span style=&quot;color: rgb(0, 0, 0); font-family: Helvetica; font-size: 12px; font-style: normal; font-variant-ligatures: normal; font-variant-caps: normal; font-weight: 400; letter-spacing: normal; orphans: 2; text-align: center; text-indent: 0px; text-transform: none; widows: 2; word-spacing: 0px; -webkit-text-stroke-width: 0px; white-space: nowrap; background-color: rgb(251, 251, 251); text-decoration-thickness: initial; text-decoration-style: initial; text-decoration-color: initial; display: inline !important; float: none;&quot;&gt;&amp;lt;&amp;lt;include&amp;gt;&amp;gt;&lt;/span&gt;&#xa;&#xa;" style="edgeStyle=orthogonalEdgeStyle;rounded=0;orthogonalLoop=1;jettySize=auto;html=1;exitX=0;exitY=0.5;exitDx=0;exitDy=0;entryX=1;entryY=0.5;entryDx=0;entryDy=0;dashed=1;endArrow=none;endFill=0;startArrow=openThin;startFill=0;startSize=20;" parent="1" source="5ZcLFVRebJDgtiHkzpdB-32" target="hmTbpdO_2-0VxWjC-bMR-9" edge="1">
          <mxGeometry x="0.8225" relative="1" as="geometry">
            <mxPoint x="460" y="-890" as="targetPoint" />
            <Array as="points">
              <mxPoint x="820" y="355" />
              <mxPoint x="820" y="-885" />
            </Array>
            <mxPoint as="offset" />
          </mxGeometry>
        </mxCell>
        <mxCell id="5ZcLFVRebJDgtiHkzpdB-38" value="&#xa;&lt;span style=&quot;color: rgb(0, 0, 0); font-family: Helvetica; font-size: 12px; font-style: normal; font-variant-ligatures: normal; font-variant-caps: normal; font-weight: 400; letter-spacing: normal; orphans: 2; text-align: center; text-indent: 0px; text-transform: none; widows: 2; word-spacing: 0px; -webkit-text-stroke-width: 0px; white-space: nowrap; background-color: rgb(251, 251, 251); text-decoration-thickness: initial; text-decoration-style: initial; text-decoration-color: initial; display: inline !important; float: none;&quot;&gt;&amp;lt;&amp;lt;include&amp;gt;&amp;gt;&lt;/span&gt;&#xa;&#xa;" style="edgeStyle=orthogonalEdgeStyle;rounded=0;orthogonalLoop=1;jettySize=auto;html=1;exitX=0;exitY=0.5;exitDx=0;exitDy=0;entryX=1;entryY=0.5;entryDx=0;entryDy=0;dashed=1;endArrow=none;endFill=0;startArrow=openThin;startFill=0;startSize=20;" parent="1" source="5ZcLFVRebJDgtiHkzpdB-32" target="i-IRlz0IcXE_nXzK61zn-12" edge="1">
          <mxGeometry x="0.8184" relative="1" as="geometry">
            <Array as="points">
              <mxPoint x="820" y="355" />
              <mxPoint x="820" y="-837" />
            </Array>
            <mxPoint as="offset" />
          </mxGeometry>
        </mxCell>
        <mxCell id="5ZcLFVRebJDgtiHkzpdB-39" value="&#xa;&lt;span style=&quot;color: rgb(0, 0, 0); font-family: Helvetica; font-size: 12px; font-style: normal; font-variant-ligatures: normal; font-variant-caps: normal; font-weight: 400; letter-spacing: normal; orphans: 2; text-align: center; text-indent: 0px; text-transform: none; widows: 2; word-spacing: 0px; -webkit-text-stroke-width: 0px; white-space: nowrap; background-color: rgb(251, 251, 251); text-decoration-thickness: initial; text-decoration-style: initial; text-decoration-color: initial; display: inline !important; float: none;&quot;&gt;&amp;lt;&amp;lt;include&amp;gt;&amp;gt;&lt;/span&gt;&#xa;&#xa;" style="edgeStyle=orthogonalEdgeStyle;rounded=0;orthogonalLoop=1;jettySize=auto;html=1;exitX=0;exitY=0.5;exitDx=0;exitDy=0;entryX=1;entryY=0.5;entryDx=0;entryDy=0;dashed=1;endArrow=none;endFill=0;startArrow=openThin;startFill=0;startSize=20;" parent="1" source="5ZcLFVRebJDgtiHkzpdB-32" target="i-IRlz0IcXE_nXzK61zn-13" edge="1">
          <mxGeometry x="0.8" relative="1" as="geometry">
            <Array as="points">
              <mxPoint x="820" y="355" />
              <mxPoint x="820" y="-695" />
            </Array>
            <mxPoint x="1" as="offset" />
          </mxGeometry>
        </mxCell>
        <mxCell id="5ZcLFVRebJDgtiHkzpdB-40" value="&#xa;&lt;span style=&quot;color: rgb(0, 0, 0); font-family: Helvetica; font-size: 12px; font-style: normal; font-variant-ligatures: normal; font-variant-caps: normal; font-weight: 400; letter-spacing: normal; orphans: 2; text-align: center; text-indent: 0px; text-transform: none; widows: 2; word-spacing: 0px; -webkit-text-stroke-width: 0px; white-space: nowrap; background-color: rgb(251, 251, 251); text-decoration-thickness: initial; text-decoration-style: initial; text-decoration-color: initial; display: inline !important; float: none;&quot;&gt;&amp;lt;&amp;lt;include&amp;gt;&amp;gt;&lt;/span&gt;&#xa;&#xa;" style="edgeStyle=orthogonalEdgeStyle;rounded=0;orthogonalLoop=1;jettySize=auto;html=1;exitX=0;exitY=0.5;exitDx=0;exitDy=0;entryX=1;entryY=0.5;entryDx=0;entryDy=0;dashed=1;endArrow=none;endFill=0;startArrow=openThin;startFill=0;startSize=20;" parent="1" target="r7o-0eFES539iKnrsoc5-1" edge="1">
          <mxGeometry x="0.8031" y="-3" relative="1" as="geometry">
            <Array as="points">
              <mxPoint x="820" y="405" />
              <mxPoint x="820" y="-597" />
            </Array>
            <mxPoint as="offset" />
            <mxPoint x="899.9999999999941" y="405" as="sourcePoint" />
          </mxGeometry>
        </mxCell>
        <mxCell id="5ZcLFVRebJDgtiHkzpdB-42" value="&#xa;&lt;span style=&quot;color: rgb(0, 0, 0); font-family: Helvetica; font-size: 12px; font-style: normal; font-variant-ligatures: normal; font-variant-caps: normal; font-weight: 400; letter-spacing: normal; orphans: 2; text-align: center; text-indent: 0px; text-transform: none; widows: 2; word-spacing: 0px; -webkit-text-stroke-width: 0px; white-space: nowrap; background-color: rgb(251, 251, 251); text-decoration-thickness: initial; text-decoration-style: initial; text-decoration-color: initial; display: inline !important; float: none;&quot;&gt;&amp;lt;&amp;lt;include&amp;gt;&amp;gt;&lt;/span&gt;&#xa;&#xa;" style="edgeStyle=orthogonalEdgeStyle;rounded=0;orthogonalLoop=1;jettySize=auto;html=1;exitX=0;exitY=0.5;exitDx=0;exitDy=0;entryX=1;entryY=0.5;entryDx=0;entryDy=0;dashed=1;endArrow=none;endFill=0;startArrow=openThin;startFill=0;startSize=20;" parent="1" target="i-IRlz0IcXE_nXzK61zn-9" edge="1">
          <mxGeometry x="0.7923" y="-3" relative="1" as="geometry">
            <Array as="points">
              <mxPoint x="820" y="405" />
              <mxPoint x="820" y="-487" />
            </Array>
            <mxPoint as="offset" />
            <mxPoint x="899.9999999999941" y="405" as="sourcePoint" />
          </mxGeometry>
        </mxCell>
        <mxCell id="5ZcLFVRebJDgtiHkzpdB-43" value="&#xa;&lt;span style=&quot;color: rgb(0, 0, 0); font-family: Helvetica; font-size: 12px; font-style: normal; font-variant-ligatures: normal; font-variant-caps: normal; font-weight: 400; letter-spacing: normal; orphans: 2; text-align: center; text-indent: 0px; text-transform: none; widows: 2; word-spacing: 0px; -webkit-text-stroke-width: 0px; white-space: nowrap; background-color: rgb(251, 251, 251); text-decoration-thickness: initial; text-decoration-style: initial; text-decoration-color: initial; display: inline !important; float: none;&quot;&gt;&amp;lt;&amp;lt;include&amp;gt;&amp;gt;&lt;/span&gt;&#xa;&#xa;" style="edgeStyle=orthogonalEdgeStyle;rounded=0;orthogonalLoop=1;jettySize=auto;html=1;exitX=0;exitY=0.5;exitDx=0;exitDy=0;entryX=1;entryY=0.5;entryDx=0;entryDy=0;dashed=1;endArrow=none;endFill=0;startArrow=openThin;startFill=0;startSize=20;" parent="1" target="hmTbpdO_2-0VxWjC-bMR-18" edge="1">
          <mxGeometry x="0.8038" y="6" relative="1" as="geometry">
            <Array as="points">
              <mxPoint x="820" y="405" />
              <mxPoint x="820" y="-376" />
            </Array>
            <mxPoint as="offset" />
            <mxPoint x="899.9999999999941" y="405" as="sourcePoint" />
          </mxGeometry>
        </mxCell>
        <mxCell id="5ZcLFVRebJDgtiHkzpdB-44" value="&#xa;&lt;span style=&quot;color: rgb(0, 0, 0); font-family: Helvetica; font-size: 12px; font-style: normal; font-variant-ligatures: normal; font-variant-caps: normal; font-weight: 400; letter-spacing: normal; orphans: 2; text-align: center; text-indent: 0px; text-transform: none; widows: 2; word-spacing: 0px; -webkit-text-stroke-width: 0px; white-space: nowrap; background-color: rgb(251, 251, 251); text-decoration-thickness: initial; text-decoration-style: initial; text-decoration-color: initial; display: inline !important; float: none;&quot;&gt;&amp;lt;&amp;lt;include&amp;gt;&amp;gt;&lt;/span&gt;&#xa;&#xa;" style="edgeStyle=orthogonalEdgeStyle;rounded=0;orthogonalLoop=1;jettySize=auto;html=1;exitX=0;exitY=0.5;exitDx=0;exitDy=0;entryX=1;entryY=0.5;entryDx=0;entryDy=0;dashed=1;endArrow=none;endFill=0;startArrow=openThin;startFill=0;startSize=20;" parent="1" target="XO4-GuZk4sBoAiHKIsCW-1" edge="1">
          <mxGeometry x="0.748" relative="1" as="geometry">
            <Array as="points">
              <mxPoint x="820" y="405" />
              <mxPoint x="820" y="-326" />
            </Array>
            <mxPoint as="offset" />
            <mxPoint x="899.9999999999941" y="405" as="sourcePoint" />
          </mxGeometry>
        </mxCell>
        <mxCell id="5ZcLFVRebJDgtiHkzpdB-45" value="&#xa;&lt;span style=&quot;color: rgb(0, 0, 0); font-family: Helvetica; font-size: 12px; font-style: normal; font-variant-ligatures: normal; font-variant-caps: normal; font-weight: 400; letter-spacing: normal; orphans: 2; text-align: center; text-indent: 0px; text-transform: none; widows: 2; word-spacing: 0px; -webkit-text-stroke-width: 0px; white-space: nowrap; background-color: rgb(251, 251, 251); text-decoration-thickness: initial; text-decoration-style: initial; text-decoration-color: initial; display: inline !important; float: none;&quot;&gt;&amp;lt;&amp;lt;include&amp;gt;&amp;gt;&lt;/span&gt;&#xa;&#xa;" style="edgeStyle=orthogonalEdgeStyle;rounded=0;orthogonalLoop=1;jettySize=auto;html=1;exitX=0;exitY=0.5;exitDx=0;exitDy=0;entryX=1;entryY=0.5;entryDx=0;entryDy=0;dashed=1;endArrow=none;endFill=0;startArrow=openThin;startFill=0;startSize=20;" parent="1" target="XO4-GuZk4sBoAiHKIsCW-2" edge="1">
          <mxGeometry x="0.7623" relative="1" as="geometry">
            <Array as="points">
              <mxPoint x="820" y="405" />
              <mxPoint x="820" y="-276" />
            </Array>
            <mxPoint as="offset" />
            <mxPoint x="899.9999999999941" y="405" as="sourcePoint" />
          </mxGeometry>
        </mxCell>
        <mxCell id="5ZcLFVRebJDgtiHkzpdB-46" value="&#xa;&lt;span style=&quot;color: rgb(0, 0, 0); font-family: Helvetica; font-size: 12px; font-style: normal; font-variant-ligatures: normal; font-variant-caps: normal; font-weight: 400; letter-spacing: normal; orphans: 2; text-align: center; text-indent: 0px; text-transform: none; widows: 2; word-spacing: 0px; -webkit-text-stroke-width: 0px; white-space: nowrap; background-color: rgb(251, 251, 251); text-decoration-thickness: initial; text-decoration-style: initial; text-decoration-color: initial; display: inline !important; float: none;&quot;&gt;&amp;lt;&amp;lt;include&amp;gt;&amp;gt;&lt;/span&gt;&#xa;&#xa;" style="edgeStyle=orthogonalEdgeStyle;rounded=0;orthogonalLoop=1;jettySize=auto;html=1;exitX=0;exitY=0.5;exitDx=0;exitDy=0;entryX=1;entryY=0.5;entryDx=0;entryDy=0;dashed=1;endArrow=none;endFill=0;startArrow=openThin;startFill=0;startSize=20;" parent="1" target="XO4-GuZk4sBoAiHKIsCW-3" edge="1">
          <mxGeometry x="0.751" relative="1" as="geometry">
            <Array as="points">
              <mxPoint x="820" y="405" />
              <mxPoint x="820" y="-226" />
            </Array>
            <mxPoint as="offset" />
            <mxPoint x="899.9999999999941" y="405" as="sourcePoint" />
          </mxGeometry>
        </mxCell>
        <mxCell id="5ZcLFVRebJDgtiHkzpdB-47" value="&#xa;&lt;span style=&quot;color: rgb(0, 0, 0); font-family: Helvetica; font-size: 12px; font-style: normal; font-variant-ligatures: normal; font-variant-caps: normal; font-weight: 400; letter-spacing: normal; orphans: 2; text-align: center; text-indent: 0px; text-transform: none; widows: 2; word-spacing: 0px; -webkit-text-stroke-width: 0px; white-space: nowrap; background-color: rgb(251, 251, 251); text-decoration-thickness: initial; text-decoration-style: initial; text-decoration-color: initial; display: inline !important; float: none;&quot;&gt;&amp;lt;&amp;lt;include&amp;gt;&amp;gt;&lt;/span&gt;&#xa;&#xa;" style="edgeStyle=orthogonalEdgeStyle;rounded=0;orthogonalLoop=1;jettySize=auto;html=1;exitX=0;exitY=0.5;exitDx=0;exitDy=0;entryX=1;entryY=0.5;entryDx=0;entryDy=0;dashed=1;endArrow=none;endFill=0;startArrow=openThin;startFill=0;startSize=20;" parent="1" target="XO4-GuZk4sBoAiHKIsCW-4" edge="1">
          <mxGeometry x="0.7385" relative="1" as="geometry">
            <Array as="points">
              <mxPoint x="820" y="405" />
              <mxPoint x="820" y="-176" />
            </Array>
            <mxPoint as="offset" />
            <mxPoint x="899.9999999999941" y="405" as="sourcePoint" />
          </mxGeometry>
        </mxCell>
        <mxCell id="5ZcLFVRebJDgtiHkzpdB-48" value="&#xa;&lt;span style=&quot;color: rgb(0, 0, 0); font-family: Helvetica; font-size: 12px; font-style: normal; font-variant-ligatures: normal; font-variant-caps: normal; font-weight: 400; letter-spacing: normal; orphans: 2; text-align: center; text-indent: 0px; text-transform: none; widows: 2; word-spacing: 0px; -webkit-text-stroke-width: 0px; white-space: nowrap; background-color: rgb(251, 251, 251); text-decoration-thickness: initial; text-decoration-style: initial; text-decoration-color: initial; display: inline !important; float: none;&quot;&gt;&amp;lt;&amp;lt;include&amp;gt;&amp;gt;&lt;/span&gt;&#xa;&#xa;" style="edgeStyle=orthogonalEdgeStyle;rounded=0;orthogonalLoop=1;jettySize=auto;html=1;exitX=0;exitY=0.5;exitDx=0;exitDy=0;entryX=1;entryY=0.5;entryDx=0;entryDy=0;dashed=1;endArrow=none;endFill=0;startArrow=openThin;startFill=0;startSize=20;" parent="1" target="XO4-GuZk4sBoAiHKIsCW-5" edge="1">
          <mxGeometry x="0.7248" relative="1" as="geometry">
            <Array as="points">
              <mxPoint x="820" y="405" />
              <mxPoint x="820" y="-126" />
            </Array>
            <mxPoint as="offset" />
            <mxPoint x="899.9999999999941" y="405" as="sourcePoint" />
          </mxGeometry>
        </mxCell>
        <mxCell id="5ZcLFVRebJDgtiHkzpdB-49" value="&#xa;&lt;span style=&quot;color: rgb(0, 0, 0); font-family: Helvetica; font-size: 12px; font-style: normal; font-variant-ligatures: normal; font-variant-caps: normal; font-weight: 400; letter-spacing: normal; orphans: 2; text-align: center; text-indent: 0px; text-transform: none; widows: 2; word-spacing: 0px; -webkit-text-stroke-width: 0px; white-space: nowrap; background-color: rgb(251, 251, 251); text-decoration-thickness: initial; text-decoration-style: initial; text-decoration-color: initial; display: inline !important; float: none;&quot;&gt;&amp;lt;&amp;lt;include&amp;gt;&amp;gt;&lt;/span&gt;&#xa;&#xa;" style="edgeStyle=orthogonalEdgeStyle;rounded=0;orthogonalLoop=1;jettySize=auto;html=1;exitX=0;exitY=0.5;exitDx=0;exitDy=0;entryX=1;entryY=0.5;entryDx=0;entryDy=0;dashed=1;endArrow=none;endFill=0;startArrow=openThin;startFill=0;startSize=20;" parent="1" target="XO4-GuZk4sBoAiHKIsCW-9" edge="1">
          <mxGeometry x="0.7126" relative="1" as="geometry">
            <Array as="points">
              <mxPoint x="820" y="-225" />
              <mxPoint x="820" y="-646" />
            </Array>
            <mxPoint as="offset" />
            <mxPoint x="899.9999999999941" y="-225" as="sourcePoint" />
          </mxGeometry>
        </mxCell>
        <mxCell id="5ZcLFVRebJDgtiHkzpdB-50" value="&#xa;&lt;span style=&quot;color: rgb(0, 0, 0); font-family: Helvetica; font-size: 12px; font-style: normal; font-variant-ligatures: normal; font-variant-caps: normal; font-weight: 400; letter-spacing: normal; orphans: 2; text-align: center; text-indent: 0px; text-transform: none; widows: 2; word-spacing: 0px; -webkit-text-stroke-width: 0px; white-space: nowrap; background-color: rgb(251, 251, 251); text-decoration-thickness: initial; text-decoration-style: initial; text-decoration-color: initial; display: inline !important; float: none;&quot;&gt;&amp;lt;&amp;lt;include&amp;gt;&amp;gt;&lt;/span&gt;&#xa;&#xa;" style="edgeStyle=orthogonalEdgeStyle;rounded=0;orthogonalLoop=1;jettySize=auto;html=1;exitX=0;exitY=0.5;exitDx=0;exitDy=0;entryX=1;entryY=0.5;entryDx=0;entryDy=0;dashed=1;endArrow=none;endFill=0;startArrow=openThin;startFill=0;startSize=20;" parent="1" source="5ZcLFVRebJDgtiHkzpdB-32" target="XO4-GuZk4sBoAiHKIsCW-10" edge="1">
          <mxGeometry x="0.6692" relative="1" as="geometry">
            <Array as="points">
              <mxPoint x="820" y="355" />
              <mxPoint x="820" y="-16" />
            </Array>
            <mxPoint as="offset" />
          </mxGeometry>
        </mxCell>
        <mxCell id="5ZcLFVRebJDgtiHkzpdB-51" value="&#xa;&lt;span style=&quot;color: rgb(0, 0, 0); font-family: Helvetica; font-size: 12px; font-style: normal; font-variant-ligatures: normal; font-variant-caps: normal; font-weight: 400; letter-spacing: normal; orphans: 2; text-align: center; text-indent: 0px; text-transform: none; widows: 2; word-spacing: 0px; -webkit-text-stroke-width: 0px; white-space: nowrap; background-color: rgb(251, 251, 251); text-decoration-thickness: initial; text-decoration-style: initial; text-decoration-color: initial; display: inline !important; float: none;&quot;&gt;&amp;lt;&amp;lt;include&amp;gt;&amp;gt;&lt;/span&gt;&#xa;&#xa;" style="edgeStyle=orthogonalEdgeStyle;rounded=0;orthogonalLoop=1;jettySize=auto;html=1;exitX=0;exitY=0.5;exitDx=0;exitDy=0;entryX=1;entryY=0.5;entryDx=0;entryDy=0;dashed=1;endArrow=none;endFill=0;startArrow=openThin;startFill=0;startSize=20;" parent="1" source="5ZcLFVRebJDgtiHkzpdB-32" target="XO4-GuZk4sBoAiHKIsCW-41" edge="1">
          <mxGeometry x="0.5682" y="6" relative="1" as="geometry">
            <Array as="points">
              <mxPoint x="820" y="355" />
              <mxPoint x="820" y="94" />
            </Array>
            <mxPoint as="offset" />
          </mxGeometry>
        </mxCell>
        <mxCell id="5ZcLFVRebJDgtiHkzpdB-52" value="&#xa;&lt;span style=&quot;color: rgb(0, 0, 0); font-family: Helvetica; font-size: 12px; font-style: normal; font-variant-ligatures: normal; font-variant-caps: normal; font-weight: 400; letter-spacing: normal; orphans: 2; text-align: center; text-indent: 0px; text-transform: none; widows: 2; word-spacing: 0px; -webkit-text-stroke-width: 0px; white-space: nowrap; background-color: rgb(251, 251, 251); text-decoration-thickness: initial; text-decoration-style: initial; text-decoration-color: initial; display: inline !important; float: none;&quot;&gt;&amp;lt;&amp;lt;include&amp;gt;&amp;gt;&lt;/span&gt;&#xa;&#xa;" style="edgeStyle=orthogonalEdgeStyle;rounded=0;orthogonalLoop=1;jettySize=auto;html=1;exitX=0;exitY=0.5;exitDx=0;exitDy=0;entryX=1;entryY=0.5;entryDx=0;entryDy=0;dashed=1;endArrow=none;endFill=0;startArrow=openThin;startFill=0;startSize=20;" parent="1" source="5ZcLFVRebJDgtiHkzpdB-32" target="XO4-GuZk4sBoAiHKIsCW-44" edge="1">
          <mxGeometry x="0.5948" y="6" relative="1" as="geometry">
            <Array as="points">
              <mxPoint x="820" y="355" />
              <mxPoint x="820" y="144" />
            </Array>
            <mxPoint as="offset" />
          </mxGeometry>
        </mxCell>
        <mxCell id="5ZcLFVRebJDgtiHkzpdB-53" value="&#xa;&lt;span style=&quot;color: rgb(0, 0, 0); font-family: Helvetica; font-size: 12px; font-style: normal; font-variant-ligatures: normal; font-variant-caps: normal; font-weight: 400; letter-spacing: normal; orphans: 2; text-align: center; text-indent: 0px; text-transform: none; widows: 2; word-spacing: 0px; -webkit-text-stroke-width: 0px; white-space: nowrap; background-color: rgb(251, 251, 251); text-decoration-thickness: initial; text-decoration-style: initial; text-decoration-color: initial; display: inline !important; float: none;&quot;&gt;&amp;lt;&amp;lt;include&amp;gt;&amp;gt;&lt;/span&gt;&#xa;&#xa;" style="edgeStyle=orthogonalEdgeStyle;rounded=0;orthogonalLoop=1;jettySize=auto;html=1;exitX=0;exitY=0.5;exitDx=0;exitDy=0;entryX=1;entryY=0.5;entryDx=0;entryDy=0;dashed=1;endArrow=none;endFill=0;startArrow=openThin;startFill=0;startSize=20;" parent="1" source="5ZcLFVRebJDgtiHkzpdB-32" target="XO4-GuZk4sBoAiHKIsCW-45" edge="1">
          <mxGeometry x="0.532" relative="1" as="geometry">
            <Array as="points">
              <mxPoint x="820" y="355" />
              <mxPoint x="820" y="194" />
            </Array>
            <mxPoint as="offset" />
          </mxGeometry>
        </mxCell>
        <mxCell id="5ZcLFVRebJDgtiHkzpdB-54" value="&#xa;&lt;span style=&quot;color: rgb(0, 0, 0); font-family: Helvetica; font-size: 12px; font-style: normal; font-variant-ligatures: normal; font-variant-caps: normal; font-weight: 400; letter-spacing: normal; orphans: 2; text-align: center; text-indent: 0px; text-transform: none; widows: 2; word-spacing: 0px; -webkit-text-stroke-width: 0px; white-space: nowrap; background-color: rgb(251, 251, 251); text-decoration-thickness: initial; text-decoration-style: initial; text-decoration-color: initial; display: inline !important; float: none;&quot;&gt;&amp;lt;&amp;lt;include&amp;gt;&amp;gt;&lt;/span&gt;&#xa;&#xa;" style="edgeStyle=orthogonalEdgeStyle;rounded=0;orthogonalLoop=1;jettySize=auto;html=1;exitX=0;exitY=0.5;exitDx=0;exitDy=0;entryX=1;entryY=0.5;entryDx=0;entryDy=0;dashed=1;endArrow=none;endFill=0;startArrow=openThin;startFill=0;startSize=20;" parent="1" source="5ZcLFVRebJDgtiHkzpdB-32" target="XO4-GuZk4sBoAiHKIsCW-46" edge="1">
          <mxGeometry x="0.5532" relative="1" as="geometry">
            <Array as="points">
              <mxPoint x="820" y="355" />
              <mxPoint x="820" y="244" />
            </Array>
            <mxPoint as="offset" />
          </mxGeometry>
        </mxCell>
        <mxCell id="5ZcLFVRebJDgtiHkzpdB-55" value="&#xa;&lt;span style=&quot;color: rgb(0, 0, 0); font-family: Helvetica; font-size: 12px; font-style: normal; font-variant-ligatures: normal; font-variant-caps: normal; font-weight: 400; letter-spacing: normal; orphans: 2; text-align: center; text-indent: 0px; text-transform: none; widows: 2; word-spacing: 0px; -webkit-text-stroke-width: 0px; white-space: nowrap; background-color: rgb(251, 251, 251); text-decoration-thickness: initial; text-decoration-style: initial; text-decoration-color: initial; display: inline !important; float: none;&quot;&gt;&amp;lt;&amp;lt;include&amp;gt;&amp;gt;&lt;/span&gt;&#xa;&#xa;" style="edgeStyle=orthogonalEdgeStyle;rounded=0;orthogonalLoop=1;jettySize=auto;html=1;exitX=0;exitY=0.5;exitDx=0;exitDy=0;entryX=1;entryY=0.5;entryDx=0;entryDy=0;dashed=1;endArrow=none;endFill=0;startArrow=openThin;startFill=0;startSize=20;" parent="1" source="5ZcLFVRebJDgtiHkzpdB-32" target="XO4-GuZk4sBoAiHKIsCW-49" edge="1">
          <mxGeometry x="0.4905" relative="1" as="geometry">
            <Array as="points">
              <mxPoint x="820" y="355" />
              <mxPoint x="820" y="294" />
            </Array>
            <mxPoint as="offset" />
          </mxGeometry>
        </mxCell>
        <mxCell id="5ZcLFVRebJDgtiHkzpdB-56" value="&#xa;&lt;span style=&quot;color: rgb(0, 0, 0); font-family: Helvetica; font-size: 12px; font-style: normal; font-variant-ligatures: normal; font-variant-caps: normal; font-weight: 400; letter-spacing: normal; orphans: 2; text-align: center; text-indent: 0px; text-transform: none; widows: 2; word-spacing: 0px; -webkit-text-stroke-width: 0px; white-space: nowrap; background-color: rgb(251, 251, 251); text-decoration-thickness: initial; text-decoration-style: initial; text-decoration-color: initial; display: inline !important; float: none;&quot;&gt;&amp;lt;&amp;lt;include&amp;gt;&amp;gt;&lt;/span&gt;&#xa;&#xa;" style="edgeStyle=orthogonalEdgeStyle;rounded=0;orthogonalLoop=1;jettySize=auto;html=1;exitX=0;exitY=0.5;exitDx=0;exitDy=0;entryX=1;entryY=0.5;entryDx=0;entryDy=0;dashed=1;endArrow=none;endFill=0;startArrow=openThin;startFill=0;startSize=20;" parent="1" source="5ZcLFVRebJDgtiHkzpdB-32" target="XO4-GuZk4sBoAiHKIsCW-50" edge="1">
          <mxGeometry x="0.43" y="6" relative="1" as="geometry">
            <Array as="points">
              <mxPoint x="820" y="355" />
              <mxPoint x="820" y="344" />
            </Array>
            <mxPoint as="offset" />
          </mxGeometry>
        </mxCell>
        <mxCell id="5ZcLFVRebJDgtiHkzpdB-57" value="&#xa;&lt;span style=&quot;color: rgb(0, 0, 0); font-family: Helvetica; font-size: 12px; font-style: normal; font-variant-ligatures: normal; font-variant-caps: normal; font-weight: 400; letter-spacing: normal; orphans: 2; text-align: center; text-indent: 0px; text-transform: none; widows: 2; word-spacing: 0px; -webkit-text-stroke-width: 0px; white-space: nowrap; background-color: rgb(251, 251, 251); text-decoration-thickness: initial; text-decoration-style: initial; text-decoration-color: initial; display: inline !important; float: none;&quot;&gt;&amp;lt;&amp;lt;include&amp;gt;&amp;gt;&lt;/span&gt;&#xa;&#xa;" style="edgeStyle=orthogonalEdgeStyle;rounded=0;orthogonalLoop=1;jettySize=auto;html=1;exitX=0;exitY=0.5;exitDx=0;exitDy=0;entryX=1;entryY=0.5;entryDx=0;entryDy=0;dashed=1;endArrow=none;endFill=0;startArrow=openThin;startFill=0;startSize=20;" parent="1" source="5ZcLFVRebJDgtiHkzpdB-32" target="XO4-GuZk4sBoAiHKIsCW-51" edge="1">
          <mxGeometry x="0.4604" relative="1" as="geometry">
            <Array as="points">
              <mxPoint x="820" y="355" />
              <mxPoint x="820" y="394" />
            </Array>
            <mxPoint as="offset" />
          </mxGeometry>
        </mxCell>
        <mxCell id="5ZcLFVRebJDgtiHkzpdB-58" value="&#xa;&lt;span style=&quot;color: rgb(0, 0, 0); font-family: Helvetica; font-size: 12px; font-style: normal; font-variant-ligatures: normal; font-variant-caps: normal; font-weight: 400; letter-spacing: normal; orphans: 2; text-align: center; text-indent: 0px; text-transform: none; widows: 2; word-spacing: 0px; -webkit-text-stroke-width: 0px; white-space: nowrap; background-color: rgb(251, 251, 251); text-decoration-thickness: initial; text-decoration-style: initial; text-decoration-color: initial; display: inline !important; float: none;&quot;&gt;&amp;lt;&amp;lt;include&amp;gt;&amp;gt;&lt;/span&gt;&#xa;&#xa;" style="edgeStyle=orthogonalEdgeStyle;rounded=0;orthogonalLoop=1;jettySize=auto;html=1;exitX=0;exitY=0.5;exitDx=0;exitDy=0;entryX=1;entryY=0.5;entryDx=0;entryDy=0;dashed=1;endArrow=none;endFill=0;startArrow=openThin;startFill=0;startSize=20;" parent="1" source="5ZcLFVRebJDgtiHkzpdB-32" target="XO4-GuZk4sBoAiHKIsCW-52" edge="1">
          <mxGeometry x="0.4727" relative="1" as="geometry">
            <Array as="points">
              <mxPoint x="820" y="355" />
              <mxPoint x="820" y="444" />
            </Array>
            <mxPoint as="offset" />
          </mxGeometry>
        </mxCell>
        <mxCell id="5ZcLFVRebJDgtiHkzpdB-59" value="&#xa;&lt;span style=&quot;color: rgb(0, 0, 0); font-family: Helvetica; font-size: 12px; font-style: normal; font-variant-ligatures: normal; font-variant-caps: normal; font-weight: 400; letter-spacing: normal; orphans: 2; text-align: center; text-indent: 0px; text-transform: none; widows: 2; word-spacing: 0px; -webkit-text-stroke-width: 0px; white-space: nowrap; background-color: rgb(251, 251, 251); text-decoration-thickness: initial; text-decoration-style: initial; text-decoration-color: initial; display: inline !important; float: none;&quot;&gt;&amp;lt;&amp;lt;include&amp;gt;&amp;gt;&lt;/span&gt;&#xa;&#xa;" style="edgeStyle=orthogonalEdgeStyle;rounded=0;orthogonalLoop=1;jettySize=auto;html=1;exitX=0;exitY=0.5;exitDx=0;exitDy=0;entryX=1;entryY=0.5;entryDx=0;entryDy=0;dashed=1;endArrow=none;endFill=0;startArrow=openThin;startFill=0;startSize=20;" parent="1" source="5ZcLFVRebJDgtiHkzpdB-32" target="XO4-GuZk4sBoAiHKIsCW-53" edge="1">
          <mxGeometry x="0.5402" relative="1" as="geometry">
            <Array as="points">
              <mxPoint x="820" y="355" />
              <mxPoint x="820" y="494" />
            </Array>
            <mxPoint as="offset" />
          </mxGeometry>
        </mxCell>
        <mxCell id="5ZcLFVRebJDgtiHkzpdB-60" value="&#xa;&lt;span style=&quot;color: rgb(0, 0, 0); font-family: Helvetica; font-size: 12px; font-style: normal; font-variant-ligatures: normal; font-variant-caps: normal; font-weight: 400; letter-spacing: normal; orphans: 2; text-align: center; text-indent: 0px; text-transform: none; widows: 2; word-spacing: 0px; -webkit-text-stroke-width: 0px; white-space: nowrap; background-color: rgb(251, 251, 251); text-decoration-thickness: initial; text-decoration-style: initial; text-decoration-color: initial; display: inline !important; float: none;&quot;&gt;&amp;lt;&amp;lt;include&amp;gt;&amp;gt;&lt;/span&gt;&#xa;&#xa;" style="edgeStyle=orthogonalEdgeStyle;rounded=0;orthogonalLoop=1;jettySize=auto;html=1;exitX=0;exitY=0.5;exitDx=0;exitDy=0;entryX=1;entryY=0.5;entryDx=0;entryDy=0;dashed=1;endArrow=none;endFill=0;startArrow=openThin;startFill=0;startSize=20;" parent="1" source="5ZcLFVRebJDgtiHkzpdB-32" target="XO4-GuZk4sBoAiHKIsCW-54" edge="1">
          <mxGeometry x="0.4375" relative="1" as="geometry">
            <Array as="points">
              <mxPoint x="820" y="355" />
              <mxPoint x="820" y="544" />
            </Array>
            <mxPoint as="offset" />
          </mxGeometry>
        </mxCell>
        <mxCell id="5ZcLFVRebJDgtiHkzpdB-61" value="&#xa;&lt;span style=&quot;color: rgb(0, 0, 0); font-family: Helvetica; font-size: 12px; font-style: normal; font-variant-ligatures: normal; font-variant-caps: normal; font-weight: 400; letter-spacing: normal; orphans: 2; text-align: center; text-indent: 0px; text-transform: none; widows: 2; word-spacing: 0px; -webkit-text-stroke-width: 0px; white-space: nowrap; background-color: rgb(251, 251, 251); text-decoration-thickness: initial; text-decoration-style: initial; text-decoration-color: initial; display: inline !important; float: none;&quot;&gt;&amp;lt;&amp;lt;include&amp;gt;&amp;gt;&lt;/span&gt;&#xa;&#xa;" style="edgeStyle=orthogonalEdgeStyle;rounded=0;orthogonalLoop=1;jettySize=auto;html=1;exitX=0;exitY=0.5;exitDx=0;exitDy=0;entryX=1;entryY=0.5;entryDx=0;entryDy=0;dashed=1;endArrow=none;endFill=0;startArrow=openThin;startFill=0;startSize=20;" parent="1" source="5ZcLFVRebJDgtiHkzpdB-32" target="XO4-GuZk4sBoAiHKIsCW-55" edge="1">
          <mxGeometry x="0.388" relative="1" as="geometry">
            <Array as="points">
              <mxPoint x="820" y="355" />
              <mxPoint x="820" y="594" />
            </Array>
            <mxPoint as="offset" />
          </mxGeometry>
        </mxCell>
        <mxCell id="5ZcLFVRebJDgtiHkzpdB-63" value="&#xa;&lt;span style=&quot;color: rgb(0, 0, 0); font-family: Helvetica; font-size: 12px; font-style: normal; font-variant-ligatures: normal; font-variant-caps: normal; font-weight: 400; letter-spacing: normal; orphans: 2; text-align: center; text-indent: 0px; text-transform: none; widows: 2; word-spacing: 0px; -webkit-text-stroke-width: 0px; white-space: nowrap; background-color: rgb(251, 251, 251); text-decoration-thickness: initial; text-decoration-style: initial; text-decoration-color: initial; display: inline !important; float: none;&quot;&gt;&amp;lt;&amp;lt;include&amp;gt;&amp;gt;&lt;/span&gt;&#xa;&#xa;" style="edgeStyle=orthogonalEdgeStyle;rounded=0;orthogonalLoop=1;jettySize=auto;html=1;exitX=0;exitY=0.5;exitDx=0;exitDy=0;entryX=1;entryY=0.5;entryDx=0;entryDy=0;dashed=1;endArrow=none;endFill=0;startArrow=openThin;startFill=0;startSize=20;" parent="1" source="5ZcLFVRebJDgtiHkzpdB-32" target="XO4-GuZk4sBoAiHKIsCW-56" edge="1">
          <mxGeometry x="0.6098" relative="1" as="geometry">
            <Array as="points">
              <mxPoint x="820" y="355" />
              <mxPoint x="820" y="644" />
            </Array>
            <mxPoint as="offset" />
          </mxGeometry>
        </mxCell>
        <mxCell id="5ZcLFVRebJDgtiHkzpdB-64" value="&#xa;&lt;span style=&quot;color: rgb(0, 0, 0); font-family: Helvetica; font-size: 12px; font-style: normal; font-variant-ligatures: normal; font-variant-caps: normal; font-weight: 400; letter-spacing: normal; orphans: 2; text-align: center; text-indent: 0px; text-transform: none; widows: 2; word-spacing: 0px; -webkit-text-stroke-width: 0px; white-space: nowrap; background-color: rgb(251, 251, 251); text-decoration-thickness: initial; text-decoration-style: initial; text-decoration-color: initial; display: inline !important; float: none;&quot;&gt;&amp;lt;&amp;lt;include&amp;gt;&amp;gt;&lt;/span&gt;&#xa;&#xa;" style="edgeStyle=orthogonalEdgeStyle;rounded=0;orthogonalLoop=1;jettySize=auto;html=1;exitX=0;exitY=0.5;exitDx=0;exitDy=0;entryX=1;entryY=0.5;entryDx=0;entryDy=0;dashed=1;endArrow=none;endFill=0;startArrow=openThin;startFill=0;startSize=20;" parent="1" source="5ZcLFVRebJDgtiHkzpdB-32" target="XO4-GuZk4sBoAiHKIsCW-57" edge="1">
          <mxGeometry x="0.6337" relative="1" as="geometry">
            <Array as="points">
              <mxPoint x="820" y="355" />
              <mxPoint x="820" y="694" />
            </Array>
            <mxPoint as="offset" />
          </mxGeometry>
        </mxCell>
        <mxCell id="5ZcLFVRebJDgtiHkzpdB-65" value="&#xa;&lt;span style=&quot;color: rgb(0, 0, 0); font-family: Helvetica; font-size: 12px; font-style: normal; font-variant-ligatures: normal; font-variant-caps: normal; font-weight: 400; letter-spacing: normal; orphans: 2; text-align: center; text-indent: 0px; text-transform: none; widows: 2; word-spacing: 0px; -webkit-text-stroke-width: 0px; white-space: nowrap; background-color: rgb(251, 251, 251); text-decoration-thickness: initial; text-decoration-style: initial; text-decoration-color: initial; display: inline !important; float: none;&quot;&gt;&amp;lt;&amp;lt;include&amp;gt;&amp;gt;&lt;/span&gt;&#xa;&#xa;" style="edgeStyle=orthogonalEdgeStyle;rounded=0;orthogonalLoop=1;jettySize=auto;html=1;exitX=0;exitY=0.5;exitDx=0;exitDy=0;entryX=1;entryY=0.5;entryDx=0;entryDy=0;dashed=1;endArrow=none;endFill=0;startArrow=openThin;startFill=0;startSize=20;" parent="1" source="5ZcLFVRebJDgtiHkzpdB-32" target="XO4-GuZk4sBoAiHKIsCW-58" edge="1">
          <mxGeometry x="0.4936" relative="1" as="geometry">
            <Array as="points">
              <mxPoint x="820" y="355" />
              <mxPoint x="820" y="744" />
            </Array>
            <mxPoint as="offset" />
          </mxGeometry>
        </mxCell>
        <mxCell id="5ZcLFVRebJDgtiHkzpdB-66" value="&#xa;&lt;span style=&quot;color: rgb(0, 0, 0); font-family: Helvetica; font-size: 12px; font-style: normal; font-variant-ligatures: normal; font-variant-caps: normal; font-weight: 400; letter-spacing: normal; orphans: 2; text-align: center; text-indent: 0px; text-transform: none; widows: 2; word-spacing: 0px; -webkit-text-stroke-width: 0px; white-space: nowrap; background-color: rgb(251, 251, 251); text-decoration-thickness: initial; text-decoration-style: initial; text-decoration-color: initial; display: inline !important; float: none;&quot;&gt;&amp;lt;&amp;lt;include&amp;gt;&amp;gt;&lt;/span&gt;&#xa;&#xa;" style="edgeStyle=orthogonalEdgeStyle;rounded=0;orthogonalLoop=1;jettySize=auto;html=1;exitX=0;exitY=0.5;exitDx=0;exitDy=0;entryX=1;entryY=0.5;entryDx=0;entryDy=0;dashed=1;endArrow=none;endFill=0;startArrow=openThin;startFill=0;startSize=20;" parent="1" source="5ZcLFVRebJDgtiHkzpdB-32" target="XO4-GuZk4sBoAiHKIsCW-59" edge="1">
          <mxGeometry x="0.7033" relative="1" as="geometry">
            <Array as="points">
              <mxPoint x="820" y="355" />
              <mxPoint x="820" y="794" />
            </Array>
            <mxPoint as="offset" />
          </mxGeometry>
        </mxCell>
        <mxCell id="5ZcLFVRebJDgtiHkzpdB-67" value="&#xa;&lt;span style=&quot;color: rgb(0, 0, 0); font-family: Helvetica; font-size: 12px; font-style: normal; font-variant-ligatures: normal; font-variant-caps: normal; font-weight: 400; letter-spacing: normal; orphans: 2; text-align: center; text-indent: 0px; text-transform: none; widows: 2; word-spacing: 0px; -webkit-text-stroke-width: 0px; white-space: nowrap; background-color: rgb(251, 251, 251); text-decoration-thickness: initial; text-decoration-style: initial; text-decoration-color: initial; display: inline !important; float: none;&quot;&gt;&amp;lt;&amp;lt;include&amp;gt;&amp;gt;&lt;/span&gt;&#xa;&#xa;" style="edgeStyle=orthogonalEdgeStyle;rounded=0;orthogonalLoop=1;jettySize=auto;html=1;exitX=0;exitY=0.5;exitDx=0;exitDy=0;entryX=1;entryY=0.5;entryDx=0;entryDy=0;dashed=1;endArrow=none;endFill=0;startArrow=openThin;startFill=0;startSize=20;" parent="1" source="5ZcLFVRebJDgtiHkzpdB-32" target="XO4-GuZk4sBoAiHKIsCW-60" edge="1">
          <mxGeometry x="0.5583" relative="1" as="geometry">
            <Array as="points">
              <mxPoint x="820" y="355" />
              <mxPoint x="820" y="846" />
            </Array>
            <mxPoint x="1" as="offset" />
          </mxGeometry>
        </mxCell>
        <mxCell id="5ZcLFVRebJDgtiHkzpdB-68" value="&#xa;&lt;span style=&quot;color: rgb(0, 0, 0); font-family: Helvetica; font-size: 12px; font-style: normal; font-variant-ligatures: normal; font-variant-caps: normal; font-weight: 400; letter-spacing: normal; orphans: 2; text-align: center; text-indent: 0px; text-transform: none; widows: 2; word-spacing: 0px; -webkit-text-stroke-width: 0px; white-space: nowrap; background-color: rgb(251, 251, 251); text-decoration-thickness: initial; text-decoration-style: initial; text-decoration-color: initial; display: inline !important; float: none;&quot;&gt;&amp;lt;&amp;lt;include&amp;gt;&amp;gt;&lt;/span&gt;&#xa;&#xa;" style="edgeStyle=orthogonalEdgeStyle;rounded=0;orthogonalLoop=1;jettySize=auto;html=1;exitX=0;exitY=0.5;exitDx=0;exitDy=0;entryX=1;entryY=0.5;entryDx=0;entryDy=0;dashed=1;endArrow=none;endFill=0;startArrow=openThin;startFill=0;startSize=20;" parent="1" source="5ZcLFVRebJDgtiHkzpdB-32" target="XO4-GuZk4sBoAiHKIsCW-67" edge="1">
          <mxGeometry x="0.673" relative="1" as="geometry">
            <Array as="points">
              <mxPoint x="820" y="355" />
              <mxPoint x="820" y="976" />
            </Array>
            <mxPoint as="offset" />
          </mxGeometry>
        </mxCell>
        <mxCell id="5ZcLFVRebJDgtiHkzpdB-69" value="&#xa;&lt;span style=&quot;color: rgb(0, 0, 0); font-family: Helvetica; font-size: 12px; font-style: normal; font-variant-ligatures: normal; font-variant-caps: normal; font-weight: 400; letter-spacing: normal; orphans: 2; text-align: center; text-indent: 0px; text-transform: none; widows: 2; word-spacing: 0px; -webkit-text-stroke-width: 0px; white-space: nowrap; background-color: rgb(251, 251, 251); text-decoration-thickness: initial; text-decoration-style: initial; text-decoration-color: initial; display: inline !important; float: none;&quot;&gt;&amp;lt;&amp;lt;include&amp;gt;&amp;gt;&lt;/span&gt;&#xa;&#xa;" style="edgeStyle=orthogonalEdgeStyle;rounded=0;orthogonalLoop=1;jettySize=auto;html=1;exitX=0;exitY=0.5;exitDx=0;exitDy=0;entryX=1;entryY=0.5;entryDx=0;entryDy=0;dashed=1;endArrow=none;endFill=0;startArrow=openThin;startFill=0;startSize=20;" parent="1" source="5ZcLFVRebJDgtiHkzpdB-32" target="XO4-GuZk4sBoAiHKIsCW-68" edge="1">
          <mxGeometry x="0.7567" relative="1" as="geometry">
            <Array as="points">
              <mxPoint x="820" y="355" />
              <mxPoint x="820" y="1026" />
            </Array>
            <mxPoint as="offset" />
          </mxGeometry>
        </mxCell>
        <mxCell id="5ZcLFVRebJDgtiHkzpdB-70" value="&#xa;&lt;span style=&quot;color: rgb(0, 0, 0); font-family: Helvetica; font-size: 12px; font-style: normal; font-variant-ligatures: normal; font-variant-caps: normal; font-weight: 400; letter-spacing: normal; orphans: 2; text-align: center; text-indent: 0px; text-transform: none; widows: 2; word-spacing: 0px; -webkit-text-stroke-width: 0px; white-space: nowrap; background-color: rgb(251, 251, 251); text-decoration-thickness: initial; text-decoration-style: initial; text-decoration-color: initial; display: inline !important; float: none;&quot;&gt;&amp;lt;&amp;lt;include&amp;gt;&amp;gt;&lt;/span&gt;&#xa;&#xa;" style="edgeStyle=orthogonalEdgeStyle;rounded=0;orthogonalLoop=1;jettySize=auto;html=1;exitX=0;exitY=0.5;exitDx=0;exitDy=0;entryX=1;entryY=0.5;entryDx=0;entryDy=0;dashed=1;endArrow=none;endFill=0;startArrow=openThin;startFill=0;startSize=20;" parent="1" source="5ZcLFVRebJDgtiHkzpdB-32" target="XO4-GuZk4sBoAiHKIsCW-69" edge="1">
          <mxGeometry x="0.7668" relative="1" as="geometry">
            <Array as="points">
              <mxPoint x="820" y="355" />
              <mxPoint x="820" y="1076" />
            </Array>
            <mxPoint as="offset" />
          </mxGeometry>
        </mxCell>
        <mxCell id="5ZcLFVRebJDgtiHkzpdB-71" value="&#xa;&lt;span style=&quot;color: rgb(0, 0, 0); font-family: Helvetica; font-size: 12px; font-style: normal; font-variant-ligatures: normal; font-variant-caps: normal; font-weight: 400; letter-spacing: normal; orphans: 2; text-align: center; text-indent: 0px; text-transform: none; widows: 2; word-spacing: 0px; -webkit-text-stroke-width: 0px; white-space: nowrap; background-color: rgb(251, 251, 251); text-decoration-thickness: initial; text-decoration-style: initial; text-decoration-color: initial; display: inline !important; float: none;&quot;&gt;&amp;lt;&amp;lt;include&amp;gt;&amp;gt;&lt;/span&gt;&#xa;&#xa;" style="edgeStyle=orthogonalEdgeStyle;rounded=0;orthogonalLoop=1;jettySize=auto;html=1;exitX=0;exitY=0.5;exitDx=0;exitDy=0;entryX=1;entryY=0.5;entryDx=0;entryDy=0;dashed=1;endArrow=none;endFill=0;startArrow=openThin;startFill=0;startSize=20;" parent="1" source="5ZcLFVRebJDgtiHkzpdB-32" target="XO4-GuZk4sBoAiHKIsCW-70" edge="1">
          <mxGeometry x="0.82" relative="1" as="geometry">
            <Array as="points">
              <mxPoint x="820" y="355" />
              <mxPoint x="820" y="1126" />
            </Array>
            <mxPoint as="offset" />
          </mxGeometry>
        </mxCell>
        <mxCell id="5ZcLFVRebJDgtiHkzpdB-72" value="&#xa;&lt;span style=&quot;color: rgb(0, 0, 0); font-family: Helvetica; font-size: 12px; font-style: normal; font-variant-ligatures: normal; font-variant-caps: normal; font-weight: 400; letter-spacing: normal; orphans: 2; text-align: center; text-indent: 0px; text-transform: none; widows: 2; word-spacing: 0px; -webkit-text-stroke-width: 0px; white-space: nowrap; background-color: rgb(251, 251, 251); text-decoration-thickness: initial; text-decoration-style: initial; text-decoration-color: initial; display: inline !important; float: none;&quot;&gt;&amp;lt;&amp;lt;include&amp;gt;&amp;gt;&lt;/span&gt;&#xa;&#xa;" style="edgeStyle=orthogonalEdgeStyle;rounded=0;orthogonalLoop=1;jettySize=auto;html=1;exitX=0;exitY=0.5;exitDx=0;exitDy=0;entryX=1;entryY=0.5;entryDx=0;entryDy=0;dashed=1;endArrow=none;endFill=0;startArrow=openThin;startFill=0;startSize=20;" parent="1" source="5ZcLFVRebJDgtiHkzpdB-32" target="XO4-GuZk4sBoAiHKIsCW-81" edge="1">
          <mxGeometry x="0.8001" relative="1" as="geometry">
            <Array as="points">
              <mxPoint x="820" y="355" />
              <mxPoint x="820" y="1276" />
            </Array>
            <mxPoint as="offset" />
          </mxGeometry>
        </mxCell>
        <mxCell id="5ZcLFVRebJDgtiHkzpdB-73" value="&#xa;&lt;span style=&quot;color: rgb(0, 0, 0); font-family: Helvetica; font-size: 12px; font-style: normal; font-variant-ligatures: normal; font-variant-caps: normal; font-weight: 400; letter-spacing: normal; orphans: 2; text-align: center; text-indent: 0px; text-transform: none; widows: 2; word-spacing: 0px; -webkit-text-stroke-width: 0px; white-space: nowrap; background-color: rgb(251, 251, 251); text-decoration-thickness: initial; text-decoration-style: initial; text-decoration-color: initial; display: inline !important; float: none;&quot;&gt;&amp;lt;&amp;lt;include&amp;gt;&amp;gt;&lt;/span&gt;&#xa;&#xa;" style="edgeStyle=orthogonalEdgeStyle;rounded=0;orthogonalLoop=1;jettySize=auto;html=1;exitX=0;exitY=0.5;exitDx=0;exitDy=0;entryX=1;entryY=0.5;entryDx=0;entryDy=0;dashed=1;endArrow=none;endFill=0;startArrow=openThin;startFill=0;startSize=20;" parent="1" source="5ZcLFVRebJDgtiHkzpdB-32" target="XO4-GuZk4sBoAiHKIsCW-82" edge="1">
          <mxGeometry x="0.8016" relative="1" as="geometry">
            <Array as="points">
              <mxPoint x="820" y="355" />
              <mxPoint x="820" y="1326" />
            </Array>
            <mxPoint as="offset" />
          </mxGeometry>
        </mxCell>
        <mxCell id="5ZcLFVRebJDgtiHkzpdB-74" value="&#xa;&lt;span style=&quot;color: rgb(0, 0, 0); font-family: Helvetica; font-size: 12px; font-style: normal; font-variant-ligatures: normal; font-variant-caps: normal; font-weight: 400; letter-spacing: normal; orphans: 2; text-align: center; text-indent: 0px; text-transform: none; widows: 2; word-spacing: 0px; -webkit-text-stroke-width: 0px; white-space: nowrap; background-color: rgb(251, 251, 251); text-decoration-thickness: initial; text-decoration-style: initial; text-decoration-color: initial; display: inline !important; float: none;&quot;&gt;&amp;lt;&amp;lt;include&amp;gt;&amp;gt;&lt;/span&gt;&#xa;&#xa;" style="edgeStyle=orthogonalEdgeStyle;rounded=0;orthogonalLoop=1;jettySize=auto;html=1;exitX=0;exitY=0.5;exitDx=0;exitDy=0;entryX=1;entryY=0.5;entryDx=0;entryDy=0;dashed=1;endArrow=none;endFill=0;startArrow=openThin;startFill=0;startSize=20;" parent="1" source="5ZcLFVRebJDgtiHkzpdB-32" target="5ZcLFVRebJDgtiHkzpdB-1" edge="1">
          <mxGeometry x="0.8171" y="9" relative="1" as="geometry">
            <Array as="points">
              <mxPoint x="820" y="355" />
              <mxPoint x="820" y="1391" />
            </Array>
            <mxPoint as="offset" />
          </mxGeometry>
        </mxCell>
        <mxCell id="5ZcLFVRebJDgtiHkzpdB-75" value="&#xa;&lt;span style=&quot;color: rgb(0, 0, 0); font-family: Helvetica; font-size: 12px; font-style: normal; font-variant-ligatures: normal; font-variant-caps: normal; font-weight: 400; letter-spacing: normal; orphans: 2; text-align: center; text-indent: 0px; text-transform: none; widows: 2; word-spacing: 0px; -webkit-text-stroke-width: 0px; white-space: nowrap; background-color: rgb(251, 251, 251); text-decoration-thickness: initial; text-decoration-style: initial; text-decoration-color: initial; display: inline !important; float: none;&quot;&gt;&amp;lt;&amp;lt;include&amp;gt;&amp;gt;&lt;/span&gt;&#xa;&#xa;" style="edgeStyle=orthogonalEdgeStyle;rounded=0;orthogonalLoop=1;jettySize=auto;html=1;exitX=0;exitY=0.5;exitDx=0;exitDy=0;entryX=1;entryY=0.5;entryDx=0;entryDy=0;dashed=1;endArrow=none;endFill=0;startArrow=openThin;startFill=0;startSize=20;" parent="1" source="5ZcLFVRebJDgtiHkzpdB-32" target="5ZcLFVRebJDgtiHkzpdB-2" edge="1">
          <mxGeometry x="0.8229" relative="1" as="geometry">
            <Array as="points">
              <mxPoint x="820" y="355" />
              <mxPoint x="820" y="1441" />
            </Array>
            <mxPoint as="offset" />
          </mxGeometry>
        </mxCell>
        <mxCell id="5ZcLFVRebJDgtiHkzpdB-76" value="&#xa;&lt;span style=&quot;color: rgb(0, 0, 0); font-family: Helvetica; font-size: 12px; font-style: normal; font-variant-ligatures: normal; font-variant-caps: normal; font-weight: 400; letter-spacing: normal; orphans: 2; text-align: center; text-indent: 0px; text-transform: none; widows: 2; word-spacing: 0px; -webkit-text-stroke-width: 0px; white-space: nowrap; background-color: rgb(251, 251, 251); text-decoration-thickness: initial; text-decoration-style: initial; text-decoration-color: initial; display: inline !important; float: none;&quot;&gt;&amp;lt;&amp;lt;include&amp;gt;&amp;gt;&lt;/span&gt;&#xa;&#xa;" style="edgeStyle=orthogonalEdgeStyle;rounded=0;orthogonalLoop=1;jettySize=auto;html=1;exitX=0;exitY=0.5;exitDx=0;exitDy=0;entryX=1;entryY=0.5;entryDx=0;entryDy=0;dashed=1;endArrow=none;endFill=0;startArrow=openThin;startFill=0;startSize=20;" parent="1" source="5ZcLFVRebJDgtiHkzpdB-32" target="5ZcLFVRebJDgtiHkzpdB-3" edge="1">
          <mxGeometry x="0.8284" relative="1" as="geometry">
            <Array as="points">
              <mxPoint x="820" y="355" />
              <mxPoint x="820" y="1491" />
            </Array>
            <mxPoint as="offset" />
          </mxGeometry>
        </mxCell>
        <mxCell id="5ZcLFVRebJDgtiHkzpdB-77" value="&#xa;&lt;span style=&quot;color: rgb(0, 0, 0); font-family: Helvetica; font-size: 12px; font-style: normal; font-variant-ligatures: normal; font-variant-caps: normal; font-weight: 400; letter-spacing: normal; orphans: 2; text-align: center; text-indent: 0px; text-transform: none; widows: 2; word-spacing: 0px; -webkit-text-stroke-width: 0px; white-space: nowrap; background-color: rgb(251, 251, 251); text-decoration-thickness: initial; text-decoration-style: initial; text-decoration-color: initial; display: inline !important; float: none;&quot;&gt;&amp;lt;&amp;lt;include&amp;gt;&amp;gt;&lt;/span&gt;&#xa;&#xa;" style="edgeStyle=orthogonalEdgeStyle;rounded=0;orthogonalLoop=1;jettySize=auto;html=1;exitX=0;exitY=0.5;exitDx=0;exitDy=0;entryX=1;entryY=0.5;entryDx=0;entryDy=0;dashed=1;endArrow=none;endFill=0;startArrow=openThin;startFill=0;startSize=20;" parent="1" source="5ZcLFVRebJDgtiHkzpdB-32" target="5ZcLFVRebJDgtiHkzpdB-4" edge="1">
          <mxGeometry x="0.8401" relative="1" as="geometry">
            <Array as="points">
              <mxPoint x="820" y="355" />
              <mxPoint x="820" y="1541" />
            </Array>
            <mxPoint as="offset" />
          </mxGeometry>
        </mxCell>
        <mxCell id="5ZcLFVRebJDgtiHkzpdB-78" value="&#xa;&lt;span style=&quot;color: rgb(0, 0, 0); font-family: Helvetica; font-size: 12px; font-style: normal; font-variant-ligatures: normal; font-variant-caps: normal; font-weight: 400; letter-spacing: normal; orphans: 2; text-align: center; text-indent: 0px; text-transform: none; widows: 2; word-spacing: 0px; -webkit-text-stroke-width: 0px; white-space: nowrap; background-color: rgb(251, 251, 251); text-decoration-thickness: initial; text-decoration-style: initial; text-decoration-color: initial; display: inline !important; float: none;&quot;&gt;&amp;lt;&amp;lt;include&amp;gt;&amp;gt;&lt;/span&gt;&#xa;&#xa;" style="edgeStyle=orthogonalEdgeStyle;rounded=0;orthogonalLoop=1;jettySize=auto;html=1;exitX=0;exitY=0.5;exitDx=0;exitDy=0;entryX=1;entryY=0.5;entryDx=0;entryDy=0;dashed=1;endArrow=none;endFill=0;startArrow=openThin;startFill=0;startSize=20;" parent="1" source="5ZcLFVRebJDgtiHkzpdB-32" target="5ZcLFVRebJDgtiHkzpdB-5" edge="1">
          <mxGeometry x="0.8329" relative="1" as="geometry">
            <Array as="points">
              <mxPoint x="820" y="355" />
              <mxPoint x="820" y="1591" />
            </Array>
            <mxPoint as="offset" />
          </mxGeometry>
        </mxCell>
        <mxCell id="5ZcLFVRebJDgtiHkzpdB-79" value="&#xa;&lt;span style=&quot;color: rgb(0, 0, 0); font-family: Helvetica; font-size: 12px; font-style: normal; font-variant-ligatures: normal; font-variant-caps: normal; font-weight: 400; letter-spacing: normal; orphans: 2; text-align: center; text-indent: 0px; text-transform: none; widows: 2; word-spacing: 0px; -webkit-text-stroke-width: 0px; white-space: nowrap; background-color: rgb(251, 251, 251); text-decoration-thickness: initial; text-decoration-style: initial; text-decoration-color: initial; display: inline !important; float: none;&quot;&gt;&amp;lt;&amp;lt;include&amp;gt;&amp;gt;&lt;/span&gt;&#xa;&#xa;" style="edgeStyle=orthogonalEdgeStyle;rounded=0;orthogonalLoop=1;jettySize=auto;html=1;exitX=0;exitY=0.5;exitDx=0;exitDy=0;entryX=1;entryY=0.5;entryDx=0;entryDy=0;dashed=1;endArrow=none;endFill=0;startArrow=openThin;startFill=0;startSize=20;" parent="1" source="5ZcLFVRebJDgtiHkzpdB-32" target="5ZcLFVRebJDgtiHkzpdB-6" edge="1">
          <mxGeometry x="0.8559" relative="1" as="geometry">
            <Array as="points">
              <mxPoint x="820" y="355" />
              <mxPoint x="820" y="1641" />
            </Array>
            <mxPoint as="offset" />
          </mxGeometry>
        </mxCell>
        <mxCell id="5ZcLFVRebJDgtiHkzpdB-80" value="&#xa;&lt;span style=&quot;color: rgb(0, 0, 0); font-family: Helvetica; font-size: 12px; font-style: normal; font-variant-ligatures: normal; font-variant-caps: normal; font-weight: 400; letter-spacing: normal; orphans: 2; text-align: center; text-indent: 0px; text-transform: none; widows: 2; word-spacing: 0px; -webkit-text-stroke-width: 0px; white-space: nowrap; background-color: rgb(251, 251, 251); text-decoration-thickness: initial; text-decoration-style: initial; text-decoration-color: initial; display: inline !important; float: none;&quot;&gt;&amp;lt;&amp;lt;include&amp;gt;&amp;gt;&lt;/span&gt;&#xa;&#xa;" style="edgeStyle=orthogonalEdgeStyle;rounded=0;orthogonalLoop=1;jettySize=auto;html=1;exitX=0;exitY=0.5;exitDx=0;exitDy=0;entryX=1;entryY=0.5;entryDx=0;entryDy=0;dashed=1;endArrow=none;endFill=0;startArrow=openThin;startFill=0;startSize=20;" parent="1" source="5ZcLFVRebJDgtiHkzpdB-32" target="5ZcLFVRebJDgtiHkzpdB-13" edge="1">
          <mxGeometry x="0.8656" relative="1" as="geometry">
            <Array as="points">
              <mxPoint x="820" y="355" />
              <mxPoint x="820" y="1781" />
            </Array>
            <mxPoint as="offset" />
          </mxGeometry>
        </mxCell>
        <mxCell id="5ZcLFVRebJDgtiHkzpdB-81" value="&#xa;&lt;span style=&quot;color: rgb(0, 0, 0); font-family: Helvetica; font-size: 12px; font-style: normal; font-variant-ligatures: normal; font-variant-caps: normal; font-weight: 400; letter-spacing: normal; orphans: 2; text-align: center; text-indent: 0px; text-transform: none; widows: 2; word-spacing: 0px; -webkit-text-stroke-width: 0px; white-space: nowrap; background-color: rgb(251, 251, 251); text-decoration-thickness: initial; text-decoration-style: initial; text-decoration-color: initial; display: inline !important; float: none;&quot;&gt;&amp;lt;&amp;lt;include&amp;gt;&amp;gt;&lt;/span&gt;&#xa;&#xa;" style="edgeStyle=orthogonalEdgeStyle;rounded=0;orthogonalLoop=1;jettySize=auto;html=1;exitX=0;exitY=0.5;exitDx=0;exitDy=0;entryX=1;entryY=0.5;entryDx=0;entryDy=0;dashed=1;endArrow=none;endFill=0;startArrow=openThin;startFill=0;startSize=20;" parent="1" source="5ZcLFVRebJDgtiHkzpdB-32" target="5ZcLFVRebJDgtiHkzpdB-14" edge="1">
          <mxGeometry x="0.8505" y="-1" relative="1" as="geometry">
            <Array as="points">
              <mxPoint x="820" y="355" />
              <mxPoint x="820" y="1831" />
            </Array>
            <mxPoint as="offset" />
          </mxGeometry>
        </mxCell>
        <mxCell id="5ZcLFVRebJDgtiHkzpdB-82" value="&#xa;&lt;span style=&quot;color: rgb(0, 0, 0); font-family: Helvetica; font-size: 12px; font-style: normal; font-variant-ligatures: normal; font-variant-caps: normal; font-weight: 400; letter-spacing: normal; orphans: 2; text-align: center; text-indent: 0px; text-transform: none; widows: 2; word-spacing: 0px; -webkit-text-stroke-width: 0px; white-space: nowrap; background-color: rgb(251, 251, 251); text-decoration-thickness: initial; text-decoration-style: initial; text-decoration-color: initial; display: inline !important; float: none;&quot;&gt;&amp;lt;&amp;lt;include&amp;gt;&amp;gt;&lt;/span&gt;&#xa;&#xa;" style="edgeStyle=orthogonalEdgeStyle;rounded=0;orthogonalLoop=1;jettySize=auto;html=1;exitX=0;exitY=0.5;exitDx=0;exitDy=0;entryX=1;entryY=0.5;entryDx=0;entryDy=0;dashed=1;endArrow=none;endFill=0;startArrow=openThin;startFill=0;startSize=20;" parent="1" source="5ZcLFVRebJDgtiHkzpdB-32" target="5ZcLFVRebJDgtiHkzpdB-15" edge="1">
          <mxGeometry x="0.8662" relative="1" as="geometry">
            <Array as="points">
              <mxPoint x="820" y="355" />
              <mxPoint x="820" y="1881" />
            </Array>
            <mxPoint as="offset" />
          </mxGeometry>
        </mxCell>
        <mxCell id="5ZcLFVRebJDgtiHkzpdB-32" value="Authentification" style="ellipse;whiteSpace=wrap;html=1;" parent="1" vertex="1">
          <mxGeometry x="900" y="320" width="140" height="70" as="geometry" />
        </mxCell>
        <mxCell id="5ZcLFVRebJDgtiHkzpdB-83" value="&#xa;&lt;span style=&quot;color: rgb(0, 0, 0); font-family: Helvetica; font-size: 12px; font-style: normal; font-variant-ligatures: normal; font-variant-caps: normal; font-weight: 400; letter-spacing: normal; orphans: 2; text-align: center; text-indent: 0px; text-transform: none; widows: 2; word-spacing: 0px; -webkit-text-stroke-width: 0px; white-space: nowrap; background-color: rgb(251, 251, 251); text-decoration-thickness: initial; text-decoration-style: initial; text-decoration-color: initial; display: inline !important; float: none;&quot;&gt;&amp;lt;&amp;lt;include&amp;gt;&amp;gt;&lt;/span&gt;&#xa;&#xa;" style="edgeStyle=orthogonalEdgeStyle;rounded=0;orthogonalLoop=1;jettySize=auto;html=1;exitX=0;exitY=0.5;exitDx=0;exitDy=0;entryX=1;entryY=0.5;entryDx=0;entryDy=0;dashed=1;endArrow=none;endFill=0;startArrow=openThin;startFill=0;startSize=20;" parent="1" target="i-IRlz0IcXE_nXzK61zn-14" edge="1">
          <mxGeometry x="0.7821" relative="1" as="geometry">
            <mxPoint x="899.9999999999941" y="405" as="sourcePoint" />
            <mxPoint x="470" y="-542" as="targetPoint" />
            <Array as="points">
              <mxPoint x="820" y="405" />
              <mxPoint x="820" y="-542" />
            </Array>
            <mxPoint x="1" as="offset" />
          </mxGeometry>
        </mxCell>
      </root>
    </mxGraphModel>
  </diagram>
  <diagram id="PrHgA1jx0MzFiQ8bvlvs" name="class">
    <mxGraphModel dx="1702" dy="1687" grid="1" gridSize="10" guides="1" tooltips="1" connect="1" arrows="1" fold="1" page="1" pageScale="1" pageWidth="827" pageHeight="1169" background="none" math="0" shadow="0">
      <root>
        <mxCell id="0" />
        <mxCell id="1" parent="0" />
        <mxCell id="t86LqLUNXeEkSWL6Lqwz-129" style="rounded=0;orthogonalLoop=1;jettySize=auto;html=1;exitX=0;exitY=1;exitDx=0;exitDy=0;entryX=1;entryY=0;entryDx=0;entryDy=0;endArrow=none;endFill=0;" parent="1" source="t86LqLUNXeEkSWL6Lqwz-6" target="t86LqLUNXeEkSWL6Lqwz-104" edge="1">
          <mxGeometry relative="1" as="geometry" />
        </mxCell>
        <mxCell id="t86LqLUNXeEkSWL6Lqwz-136" value="1" style="edgeLabel;html=1;align=center;verticalAlign=middle;resizable=0;points=[];" parent="t86LqLUNXeEkSWL6Lqwz-129" vertex="1" connectable="0">
          <mxGeometry x="-0.8192" relative="1" as="geometry">
            <mxPoint x="10" as="offset" />
          </mxGeometry>
        </mxCell>
        <mxCell id="t86LqLUNXeEkSWL6Lqwz-137" value="0..*" style="edgeLabel;html=1;align=center;verticalAlign=middle;resizable=0;points=[];" parent="t86LqLUNXeEkSWL6Lqwz-129" vertex="1" connectable="0">
          <mxGeometry x="0.8715" y="-1" relative="1" as="geometry">
            <mxPoint x="10" as="offset" />
          </mxGeometry>
        </mxCell>
        <mxCell id="17Tb2t7uwjQv76PZtwNf-7" style="rounded=0;orthogonalLoop=1;jettySize=auto;html=1;exitX=0;exitY=0.5;exitDx=0;exitDy=0;entryX=1;entryY=0.5;entryDx=0;entryDy=0;endArrow=none;endFill=0;" parent="1" source="t86LqLUNXeEkSWL6Lqwz-6" target="t86LqLUNXeEkSWL6Lqwz-73" edge="1">
          <mxGeometry relative="1" as="geometry" />
        </mxCell>
        <mxCell id="17Tb2t7uwjQv76PZtwNf-12" value="1" style="edgeLabel;html=1;align=center;verticalAlign=middle;resizable=0;points=[];" parent="17Tb2t7uwjQv76PZtwNf-7" vertex="1" connectable="0">
          <mxGeometry x="-0.7819" y="2" relative="1" as="geometry">
            <mxPoint as="offset" />
          </mxGeometry>
        </mxCell>
        <mxCell id="17Tb2t7uwjQv76PZtwNf-13" value="0..*" style="edgeLabel;html=1;align=center;verticalAlign=middle;resizable=0;points=[];" parent="17Tb2t7uwjQv76PZtwNf-7" vertex="1" connectable="0">
          <mxGeometry x="0.8719" relative="1" as="geometry">
            <mxPoint as="offset" />
          </mxGeometry>
        </mxCell>
        <mxCell id="17Tb2t7uwjQv76PZtwNf-15" style="rounded=0;orthogonalLoop=1;jettySize=auto;html=1;exitX=1;exitY=0.5;exitDx=0;exitDy=0;entryX=0;entryY=0.5;entryDx=0;entryDy=0;endArrow=none;endFill=0;" parent="1" source="t86LqLUNXeEkSWL6Lqwz-6" target="t86LqLUNXeEkSWL6Lqwz-33" edge="1">
          <mxGeometry relative="1" as="geometry" />
        </mxCell>
        <mxCell id="17Tb2t7uwjQv76PZtwNf-21" value="1" style="edgeLabel;html=1;align=center;verticalAlign=middle;resizable=0;points=[];" parent="17Tb2t7uwjQv76PZtwNf-15" vertex="1" connectable="0">
          <mxGeometry x="-0.7841" y="2" relative="1" as="geometry">
            <mxPoint as="offset" />
          </mxGeometry>
        </mxCell>
        <mxCell id="17Tb2t7uwjQv76PZtwNf-22" value="1" style="edgeLabel;html=1;align=center;verticalAlign=middle;resizable=0;points=[];" parent="17Tb2t7uwjQv76PZtwNf-15" vertex="1" connectable="0">
          <mxGeometry x="0.7556" relative="1" as="geometry">
            <mxPoint as="offset" />
          </mxGeometry>
        </mxCell>
        <mxCell id="t86LqLUNXeEkSWL6Lqwz-6" value="Member" style="swimlane;fontStyle=1;align=center;verticalAlign=top;childLayout=stackLayout;horizontal=1;startSize=26;horizontalStack=0;resizeParent=1;resizeParentMax=0;resizeLast=0;collapsible=1;marginBottom=0;whiteSpace=wrap;html=1;" parent="1" vertex="1">
          <mxGeometry x="120" y="118" width="220" height="112" as="geometry">
            <mxRectangle x="110" y="240" width="90" height="30" as="alternateBounds" />
          </mxGeometry>
        </mxCell>
        <mxCell id="t86LqLUNXeEkSWL6Lqwz-8" value="" style="line;strokeWidth=1;fillColor=none;align=left;verticalAlign=middle;spacingTop=-1;spacingLeft=3;spacingRight=3;rotatable=0;labelPosition=right;points=[];portConstraint=eastwest;strokeColor=inherit;" parent="t86LqLUNXeEkSWL6Lqwz-6" vertex="1">
          <mxGeometry y="26" width="220" height="8" as="geometry" />
        </mxCell>
        <mxCell id="bFsF_W4BmdwzoqF3kAbE-36" value="+ addMember(Member): void;" style="text;strokeColor=none;fillColor=none;align=left;verticalAlign=top;spacingLeft=4;spacingRight=4;overflow=hidden;rotatable=0;points=[[0,0.5],[1,0.5]];portConstraint=eastwest;whiteSpace=wrap;html=1;" parent="t86LqLUNXeEkSWL6Lqwz-6" vertex="1">
          <mxGeometry y="34" width="220" height="26" as="geometry" />
        </mxCell>
        <mxCell id="bFsF_W4BmdwzoqF3kAbE-37" value="+ editMember(Member): boolean;" style="text;strokeColor=none;fillColor=none;align=left;verticalAlign=top;spacingLeft=4;spacingRight=4;overflow=hidden;rotatable=0;points=[[0,0.5],[1,0.5]];portConstraint=eastwest;whiteSpace=wrap;html=1;" parent="t86LqLUNXeEkSWL6Lqwz-6" vertex="1">
          <mxGeometry y="60" width="220" height="26" as="geometry" />
        </mxCell>
        <mxCell id="bFsF_W4BmdwzoqF3kAbE-38" value="+ deleteMember(Member): boolean;" style="text;strokeColor=none;fillColor=none;align=left;verticalAlign=top;spacingLeft=4;spacingRight=4;overflow=hidden;rotatable=0;points=[[0,0.5],[1,0.5]];portConstraint=eastwest;whiteSpace=wrap;html=1;" parent="t86LqLUNXeEkSWL6Lqwz-6" vertex="1">
          <mxGeometry y="86" width="220" height="26" as="geometry" />
        </mxCell>
        <mxCell id="t86LqLUNXeEkSWL6Lqwz-19" style="rounded=0;orthogonalLoop=1;jettySize=auto;html=1;exitX=0.5;exitY=0;exitDx=0;exitDy=0;endArrow=blockThin;endFill=0;endSize=18;entryX=0.5;entryY=1;entryDx=0;entryDy=0;edgeStyle=elbowEdgeStyle;elbow=vertical;" parent="1" source="t86LqLUNXeEkSWL6Lqwz-10" target="t86LqLUNXeEkSWL6Lqwz-93" edge="1">
          <mxGeometry relative="1" as="geometry">
            <Array as="points">
              <mxPoint x="1000" y="-80" />
            </Array>
          </mxGeometry>
        </mxCell>
        <mxCell id="b2N9MdVb3rkO5PRruxKs-4" style="rounded=0;orthogonalLoop=1;jettySize=auto;html=1;exitX=0;exitY=0.5;exitDx=0;exitDy=0;entryX=1;entryY=0.5;entryDx=0;entryDy=0;endArrow=none;endFill=0;" parent="1" source="t86LqLUNXeEkSWL6Lqwz-10" target="t86LqLUNXeEkSWL6Lqwz-49" edge="1">
          <mxGeometry relative="1" as="geometry" />
        </mxCell>
        <mxCell id="17Tb2t7uwjQv76PZtwNf-3" value="1" style="edgeLabel;html=1;align=center;verticalAlign=middle;resizable=0;points=[];" parent="b2N9MdVb3rkO5PRruxKs-4" vertex="1" connectable="0">
          <mxGeometry x="-0.8421" y="-1" relative="1" as="geometry">
            <mxPoint as="offset" />
          </mxGeometry>
        </mxCell>
        <mxCell id="17Tb2t7uwjQv76PZtwNf-4" value="0..*" style="edgeLabel;html=1;align=center;verticalAlign=middle;resizable=0;points=[];" parent="b2N9MdVb3rkO5PRruxKs-4" vertex="1" connectable="0">
          <mxGeometry x="0.7094" y="-1" relative="1" as="geometry">
            <mxPoint as="offset" />
          </mxGeometry>
        </mxCell>
        <mxCell id="17Tb2t7uwjQv76PZtwNf-6" style="rounded=0;orthogonalLoop=1;jettySize=auto;html=1;exitX=0;exitY=0;exitDx=0;exitDy=0;entryX=1;entryY=0.5;entryDx=0;entryDy=0;endArrow=none;endFill=0;" parent="1" source="t86LqLUNXeEkSWL6Lqwz-10" target="t86LqLUNXeEkSWL6Lqwz-29" edge="1">
          <mxGeometry relative="1" as="geometry" />
        </mxCell>
        <mxCell id="17Tb2t7uwjQv76PZtwNf-17" value="1" style="edgeLabel;html=1;align=center;verticalAlign=middle;resizable=0;points=[];" parent="17Tb2t7uwjQv76PZtwNf-6" vertex="1" connectable="0">
          <mxGeometry x="-0.8518" y="1" relative="1" as="geometry">
            <mxPoint as="offset" />
          </mxGeometry>
        </mxCell>
        <mxCell id="17Tb2t7uwjQv76PZtwNf-18" value="0..*" style="edgeLabel;html=1;align=center;verticalAlign=middle;resizable=0;points=[];" parent="17Tb2t7uwjQv76PZtwNf-6" vertex="1" connectable="0">
          <mxGeometry x="0.8648" y="-1" relative="1" as="geometry">
            <mxPoint as="offset" />
          </mxGeometry>
        </mxCell>
        <mxCell id="t86LqLUNXeEkSWL6Lqwz-10" value="Manager" style="swimlane;fontStyle=1;align=center;verticalAlign=top;childLayout=stackLayout;horizontal=1;startSize=26;horizontalStack=0;resizeParent=1;resizeParentMax=0;resizeLast=0;collapsible=1;marginBottom=0;whiteSpace=wrap;html=1;" parent="1" vertex="1">
          <mxGeometry x="1290" y="330" width="160" height="34" as="geometry">
            <mxRectangle x="1290" y="330" width="90" height="30" as="alternateBounds" />
          </mxGeometry>
        </mxCell>
        <mxCell id="t86LqLUNXeEkSWL6Lqwz-12" value="" style="line;strokeWidth=1;fillColor=none;align=left;verticalAlign=middle;spacingTop=-1;spacingLeft=3;spacingRight=3;rotatable=0;labelPosition=right;points=[];portConstraint=eastwest;strokeColor=inherit;" parent="t86LqLUNXeEkSWL6Lqwz-10" vertex="1">
          <mxGeometry y="26" width="160" height="8" as="geometry" />
        </mxCell>
        <mxCell id="t86LqLUNXeEkSWL6Lqwz-14" value="Admin" style="swimlane;fontStyle=1;align=center;verticalAlign=top;childLayout=stackLayout;horizontal=1;startSize=26;horizontalStack=0;resizeParent=1;resizeParentMax=0;resizeLast=0;collapsible=1;marginBottom=0;whiteSpace=wrap;html=1;" parent="1" vertex="1">
          <mxGeometry x="600" y="-40" width="100" height="34" as="geometry">
            <mxRectangle x="590" y="110" width="80" height="30" as="alternateBounds" />
          </mxGeometry>
        </mxCell>
        <mxCell id="t86LqLUNXeEkSWL6Lqwz-16" value="" style="line;strokeWidth=1;fillColor=none;align=left;verticalAlign=middle;spacingTop=-1;spacingLeft=3;spacingRight=3;rotatable=0;labelPosition=right;points=[];portConstraint=eastwest;strokeColor=inherit;" parent="t86LqLUNXeEkSWL6Lqwz-14" vertex="1">
          <mxGeometry y="26" width="100" height="8" as="geometry" />
        </mxCell>
        <mxCell id="t86LqLUNXeEkSWL6Lqwz-65" style="rounded=0;orthogonalLoop=1;jettySize=auto;html=1;exitX=0;exitY=0;exitDx=0;exitDy=0;entryX=1;entryY=1;entryDx=0;entryDy=0;endArrow=none;endFill=0;" parent="1" source="t86LqLUNXeEkSWL6Lqwz-21" target="t86LqLUNXeEkSWL6Lqwz-37" edge="1">
          <mxGeometry relative="1" as="geometry">
            <mxPoint x="500" y="670" as="targetPoint" />
          </mxGeometry>
        </mxCell>
        <mxCell id="t86LqLUNXeEkSWL6Lqwz-67" value="1" style="edgeLabel;html=1;align=center;verticalAlign=middle;resizable=0;points=[];" parent="t86LqLUNXeEkSWL6Lqwz-65" vertex="1" connectable="0">
          <mxGeometry x="-0.6554" y="1" relative="1" as="geometry">
            <mxPoint x="40" as="offset" />
          </mxGeometry>
        </mxCell>
        <mxCell id="t86LqLUNXeEkSWL6Lqwz-68" value="0..*" style="edgeLabel;html=1;align=center;verticalAlign=middle;resizable=0;points=[];" parent="t86LqLUNXeEkSWL6Lqwz-65" vertex="1" connectable="0">
          <mxGeometry x="0.8343" y="-1" relative="1" as="geometry">
            <mxPoint x="-10" y="-10" as="offset" />
          </mxGeometry>
        </mxCell>
        <mxCell id="t86LqLUNXeEkSWL6Lqwz-66" style="rounded=0;orthogonalLoop=1;jettySize=auto;html=1;exitX=1;exitY=0;exitDx=0;exitDy=0;endArrow=none;endFill=0;entryX=0.25;entryY=1;entryDx=0;entryDy=0;" parent="1" source="t86LqLUNXeEkSWL6Lqwz-21" target="t86LqLUNXeEkSWL6Lqwz-10" edge="1">
          <mxGeometry relative="1" as="geometry" />
        </mxCell>
        <mxCell id="t86LqLUNXeEkSWL6Lqwz-71" value="1" style="edgeLabel;html=1;align=center;verticalAlign=middle;resizable=0;points=[];" parent="t86LqLUNXeEkSWL6Lqwz-66" vertex="1" connectable="0">
          <mxGeometry x="0.881" y="-2" relative="1" as="geometry">
            <mxPoint x="20" y="-10" as="offset" />
          </mxGeometry>
        </mxCell>
        <mxCell id="t86LqLUNXeEkSWL6Lqwz-72" value="0..*" style="edgeLabel;html=1;align=center;verticalAlign=middle;resizable=0;points=[];" parent="t86LqLUNXeEkSWL6Lqwz-66" vertex="1" connectable="0">
          <mxGeometry x="-0.8946" y="-1" relative="1" as="geometry">
            <mxPoint y="10" as="offset" />
          </mxGeometry>
        </mxCell>
        <mxCell id="t86LqLUNXeEkSWL6Lqwz-87" style="rounded=0;orthogonalLoop=1;jettySize=auto;html=1;exitX=0.25;exitY=0;exitDx=0;exitDy=0;entryX=0.5;entryY=1;entryDx=0;entryDy=0;endArrow=none;endFill=0;" parent="1" source="t86LqLUNXeEkSWL6Lqwz-21" target="t86LqLUNXeEkSWL6Lqwz-45" edge="1">
          <mxGeometry relative="1" as="geometry" />
        </mxCell>
        <mxCell id="t86LqLUNXeEkSWL6Lqwz-88" value="0..*" style="edgeLabel;html=1;align=center;verticalAlign=middle;resizable=0;points=[];" parent="t86LqLUNXeEkSWL6Lqwz-87" vertex="1" connectable="0">
          <mxGeometry x="0.8391" y="-1" relative="1" as="geometry">
            <mxPoint x="10" as="offset" />
          </mxGeometry>
        </mxCell>
        <mxCell id="t86LqLUNXeEkSWL6Lqwz-89" value="1" style="edgeLabel;html=1;align=center;verticalAlign=middle;resizable=0;points=[];" parent="t86LqLUNXeEkSWL6Lqwz-87" vertex="1" connectable="0">
          <mxGeometry x="-0.8126" y="-2" relative="1" as="geometry">
            <mxPoint as="offset" />
          </mxGeometry>
        </mxCell>
        <mxCell id="t86LqLUNXeEkSWL6Lqwz-128" style="rounded=0;orthogonalLoop=1;jettySize=auto;html=1;exitX=0;exitY=0.5;exitDx=0;exitDy=0;entryX=1;entryY=0.5;entryDx=0;entryDy=0;endArrow=none;endFill=0;" parent="1" source="t86LqLUNXeEkSWL6Lqwz-21" target="t86LqLUNXeEkSWL6Lqwz-111" edge="1">
          <mxGeometry relative="1" as="geometry" />
        </mxCell>
        <mxCell id="t86LqLUNXeEkSWL6Lqwz-131" value="0..*" style="edgeLabel;html=1;align=center;verticalAlign=middle;resizable=0;points=[];" parent="t86LqLUNXeEkSWL6Lqwz-128" vertex="1" connectable="0">
          <mxGeometry x="0.8063" y="-1" relative="1" as="geometry">
            <mxPoint x="-10" y="10" as="offset" />
          </mxGeometry>
        </mxCell>
        <mxCell id="t86LqLUNXeEkSWL6Lqwz-132" value="1" style="edgeLabel;html=1;align=center;verticalAlign=middle;resizable=0;points=[];" parent="t86LqLUNXeEkSWL6Lqwz-128" vertex="1" connectable="0">
          <mxGeometry x="-0.8155" relative="1" as="geometry">
            <mxPoint y="10" as="offset" />
          </mxGeometry>
        </mxCell>
        <mxCell id="t86LqLUNXeEkSWL6Lqwz-21" value="Space" style="swimlane;fontStyle=1;align=center;verticalAlign=top;childLayout=stackLayout;horizontal=1;startSize=26;horizontalStack=0;resizeParent=1;resizeParentMax=0;resizeLast=0;collapsible=1;marginBottom=0;whiteSpace=wrap;html=1;" parent="1" vertex="1">
          <mxGeometry x="560" y="840" width="200" height="242" as="geometry">
            <mxRectangle x="510" y="840" width="80" height="30" as="alternateBounds" />
          </mxGeometry>
        </mxCell>
        <mxCell id="t86LqLUNXeEkSWL6Lqwz-22" value="-id: int;" style="text;strokeColor=none;fillColor=none;align=left;verticalAlign=top;spacingLeft=4;spacingRight=4;overflow=hidden;rotatable=0;points=[[0,0.5],[1,0.5]];portConstraint=eastwest;whiteSpace=wrap;html=1;" parent="t86LqLUNXeEkSWL6Lqwz-21" vertex="1">
          <mxGeometry y="26" width="200" height="26" as="geometry" />
        </mxCell>
        <mxCell id="17Tb2t7uwjQv76PZtwNf-34" value="-type: SpaceTypes;" style="text;strokeColor=none;fillColor=none;align=left;verticalAlign=top;spacingLeft=4;spacingRight=4;overflow=hidden;rotatable=0;points=[[0,0.5],[1,0.5]];portConstraint=eastwest;whiteSpace=wrap;html=1;" parent="t86LqLUNXeEkSWL6Lqwz-21" vertex="1">
          <mxGeometry y="52" width="200" height="26" as="geometry" />
        </mxCell>
        <mxCell id="9YlsFKtQrAiveUsG2HCW-4" value="-description; text;" style="text;strokeColor=none;fillColor=none;align=left;verticalAlign=top;spacingLeft=4;spacingRight=4;overflow=hidden;rotatable=0;points=[[0,0.5],[1,0.5]];portConstraint=eastwest;whiteSpace=wrap;html=1;" parent="t86LqLUNXeEkSWL6Lqwz-21" vertex="1">
          <mxGeometry y="78" width="200" height="26" as="geometry" />
        </mxCell>
        <mxCell id="9YlsFKtQrAiveUsG2HCW-1" value="-capacity: int;" style="text;strokeColor=none;fillColor=none;align=left;verticalAlign=top;spacingLeft=4;spacingRight=4;overflow=hidden;rotatable=0;points=[[0,0.5],[1,0.5]];portConstraint=eastwest;whiteSpace=wrap;html=1;" parent="t86LqLUNXeEkSWL6Lqwz-21" vertex="1">
          <mxGeometry y="104" width="200" height="26" as="geometry" />
        </mxCell>
        <mxCell id="9YlsFKtQrAiveUsG2HCW-2" value="-price: float;" style="text;strokeColor=none;fillColor=none;align=left;verticalAlign=top;spacingLeft=4;spacingRight=4;overflow=hidden;rotatable=0;points=[[0,0.5],[1,0.5]];portConstraint=eastwest;whiteSpace=wrap;html=1;" parent="t86LqLUNXeEkSWL6Lqwz-21" vertex="1">
          <mxGeometry y="130" width="200" height="26" as="geometry" />
        </mxCell>
        <mxCell id="t86LqLUNXeEkSWL6Lqwz-23" value="" style="line;strokeWidth=1;fillColor=none;align=left;verticalAlign=middle;spacingTop=-1;spacingLeft=3;spacingRight=3;rotatable=0;labelPosition=right;points=[];portConstraint=eastwest;strokeColor=inherit;" parent="t86LqLUNXeEkSWL6Lqwz-21" vertex="1">
          <mxGeometry y="156" width="200" height="8" as="geometry" />
        </mxCell>
        <mxCell id="t86LqLUNXeEkSWL6Lqwz-24" value="+ addSpace(Space): void;" style="text;strokeColor=none;fillColor=none;align=left;verticalAlign=top;spacingLeft=4;spacingRight=4;overflow=hidden;rotatable=0;points=[[0,0.5],[1,0.5]];portConstraint=eastwest;whiteSpace=wrap;html=1;" parent="t86LqLUNXeEkSWL6Lqwz-21" vertex="1">
          <mxGeometry y="164" width="200" height="26" as="geometry" />
        </mxCell>
        <mxCell id="bFsF_W4BmdwzoqF3kAbE-34" value="+ editSpace(Space): boolean;" style="text;strokeColor=none;fillColor=none;align=left;verticalAlign=top;spacingLeft=4;spacingRight=4;overflow=hidden;rotatable=0;points=[[0,0.5],[1,0.5]];portConstraint=eastwest;whiteSpace=wrap;html=1;" parent="t86LqLUNXeEkSWL6Lqwz-21" vertex="1">
          <mxGeometry y="190" width="200" height="26" as="geometry" />
        </mxCell>
        <mxCell id="bFsF_W4BmdwzoqF3kAbE-35" value="+ deleteSpace(Space): boolean;" style="text;strokeColor=none;fillColor=none;align=left;verticalAlign=top;spacingLeft=4;spacingRight=4;overflow=hidden;rotatable=0;points=[[0,0.5],[1,0.5]];portConstraint=eastwest;whiteSpace=wrap;html=1;" parent="t86LqLUNXeEkSWL6Lqwz-21" vertex="1">
          <mxGeometry y="216" width="200" height="26" as="geometry" />
        </mxCell>
        <mxCell id="t86LqLUNXeEkSWL6Lqwz-53" value="" style="rounded=0;orthogonalLoop=1;jettySize=auto;html=1;exitX=0;exitY=0;exitDx=0;exitDy=0;endArrow=none;endFill=0;entryX=0.75;entryY=1;entryDx=0;entryDy=0;" parent="1" source="t86LqLUNXeEkSWL6Lqwz-25" target="t86LqLUNXeEkSWL6Lqwz-6" edge="1">
          <mxGeometry x="-0.6907" y="-30" relative="1" as="geometry">
            <mxPoint x="210" y="590" as="sourcePoint" />
            <mxPoint x="210" y="396" as="targetPoint" />
            <mxPoint as="offset" />
          </mxGeometry>
        </mxCell>
        <mxCell id="t86LqLUNXeEkSWL6Lqwz-59" value="1" style="edgeLabel;html=1;align=center;verticalAlign=middle;resizable=0;points=[];" parent="t86LqLUNXeEkSWL6Lqwz-53" vertex="1" connectable="0">
          <mxGeometry x="0.6907" relative="1" as="geometry">
            <mxPoint y="-6" as="offset" />
          </mxGeometry>
        </mxCell>
        <mxCell id="t86LqLUNXeEkSWL6Lqwz-60" value="0..*" style="edgeLabel;html=1;align=center;verticalAlign=middle;resizable=0;points=[];" parent="t86LqLUNXeEkSWL6Lqwz-53" vertex="1" connectable="0">
          <mxGeometry x="-0.866" y="-1" relative="1" as="geometry">
            <mxPoint x="-10" y="-10" as="offset" />
          </mxGeometry>
        </mxCell>
        <mxCell id="t86LqLUNXeEkSWL6Lqwz-54" style="rounded=0;orthogonalLoop=1;jettySize=auto;html=1;exitX=0.5;exitY=1;exitDx=0;exitDy=0;entryX=0.5;entryY=0;entryDx=0;entryDy=0;endArrow=none;endFill=0;" parent="1" source="t86LqLUNXeEkSWL6Lqwz-25" target="t86LqLUNXeEkSWL6Lqwz-21" edge="1">
          <mxGeometry relative="1" as="geometry" />
        </mxCell>
        <mxCell id="t86LqLUNXeEkSWL6Lqwz-61" value="0..*" style="edgeLabel;html=1;align=center;verticalAlign=middle;resizable=0;points=[];" parent="t86LqLUNXeEkSWL6Lqwz-54" vertex="1" connectable="0">
          <mxGeometry x="-0.725" relative="1" as="geometry">
            <mxPoint x="-20" y="-9" as="offset" />
          </mxGeometry>
        </mxCell>
        <mxCell id="t86LqLUNXeEkSWL6Lqwz-62" value="1" style="edgeLabel;html=1;align=center;verticalAlign=middle;resizable=0;points=[];" parent="t86LqLUNXeEkSWL6Lqwz-54" vertex="1" connectable="0">
          <mxGeometry x="0.8" y="-2" relative="1" as="geometry">
            <mxPoint y="1" as="offset" />
          </mxGeometry>
        </mxCell>
        <mxCell id="t86LqLUNXeEkSWL6Lqwz-25" value="Booking" style="swimlane;fontStyle=1;align=center;verticalAlign=top;childLayout=stackLayout;horizontal=1;startSize=26;horizontalStack=0;resizeParent=1;resizeParentMax=0;resizeLast=0;collapsible=1;marginBottom=0;whiteSpace=wrap;html=1;" parent="1" vertex="1">
          <mxGeometry x="520" y="400" width="240" height="268" as="geometry">
            <mxRectangle x="510" y="470" width="90" height="30" as="alternateBounds" />
          </mxGeometry>
        </mxCell>
        <mxCell id="t86LqLUNXeEkSWL6Lqwz-26" value="-id: int;" style="text;strokeColor=none;fillColor=none;align=left;verticalAlign=top;spacingLeft=4;spacingRight=4;overflow=hidden;rotatable=0;points=[[0,0.5],[1,0.5]];portConstraint=eastwest;whiteSpace=wrap;html=1;" parent="t86LqLUNXeEkSWL6Lqwz-25" vertex="1">
          <mxGeometry y="26" width="240" height="26" as="geometry" />
        </mxCell>
        <mxCell id="bFsF_W4BmdwzoqF3kAbE-19" value="-booking_date: datetime;" style="text;strokeColor=none;fillColor=none;align=left;verticalAlign=top;spacingLeft=4;spacingRight=4;overflow=hidden;rotatable=0;points=[[0,0.5],[1,0.5]];portConstraint=eastwest;whiteSpace=wrap;html=1;" parent="t86LqLUNXeEkSWL6Lqwz-25" vertex="1">
          <mxGeometry y="52" width="240" height="26" as="geometry" />
        </mxCell>
        <mxCell id="bFsF_W4BmdwzoqF3kAbE-20" value="-start_date: datetime;" style="text;strokeColor=none;fillColor=none;align=left;verticalAlign=top;spacingLeft=4;spacingRight=4;overflow=hidden;rotatable=0;points=[[0,0.5],[1,0.5]];portConstraint=eastwest;whiteSpace=wrap;html=1;" parent="t86LqLUNXeEkSWL6Lqwz-25" vertex="1">
          <mxGeometry y="78" width="240" height="26" as="geometry" />
        </mxCell>
        <mxCell id="bFsF_W4BmdwzoqF3kAbE-21" value="-end_date: datetime;" style="text;strokeColor=none;fillColor=none;align=left;verticalAlign=top;spacingLeft=4;spacingRight=4;overflow=hidden;rotatable=0;points=[[0,0.5],[1,0.5]];portConstraint=eastwest;whiteSpace=wrap;html=1;" parent="t86LqLUNXeEkSWL6Lqwz-25" vertex="1">
          <mxGeometry y="104" width="240" height="26" as="geometry" />
        </mxCell>
        <mxCell id="bFsF_W4BmdwzoqF3kAbE-22" value="-status: BookingStatus;" style="text;strokeColor=none;fillColor=none;align=left;verticalAlign=top;spacingLeft=4;spacingRight=4;overflow=hidden;rotatable=0;points=[[0,0.5],[1,0.5]];portConstraint=eastwest;whiteSpace=wrap;html=1;" parent="t86LqLUNXeEkSWL6Lqwz-25" vertex="1">
          <mxGeometry y="130" width="240" height="26" as="geometry" />
        </mxCell>
        <mxCell id="t86LqLUNXeEkSWL6Lqwz-27" value="" style="line;strokeWidth=1;fillColor=none;align=left;verticalAlign=middle;spacingTop=-1;spacingLeft=3;spacingRight=3;rotatable=0;labelPosition=right;points=[];portConstraint=eastwest;strokeColor=inherit;" parent="t86LqLUNXeEkSWL6Lqwz-25" vertex="1">
          <mxGeometry y="156" width="240" height="8" as="geometry" />
        </mxCell>
        <mxCell id="bFsF_W4BmdwzoqF3kAbE-39" value="+ addBooking(Booking): void;" style="text;strokeColor=none;fillColor=none;align=left;verticalAlign=top;spacingLeft=4;spacingRight=4;overflow=hidden;rotatable=0;points=[[0,0.5],[1,0.5]];portConstraint=eastwest;whiteSpace=wrap;html=1;" parent="t86LqLUNXeEkSWL6Lqwz-25" vertex="1">
          <mxGeometry y="164" width="240" height="26" as="geometry" />
        </mxCell>
        <mxCell id="bFsF_W4BmdwzoqF3kAbE-40" value="+ editBooking(Booking): boolean;" style="text;strokeColor=none;fillColor=none;align=left;verticalAlign=top;spacingLeft=4;spacingRight=4;overflow=hidden;rotatable=0;points=[[0,0.5],[1,0.5]];portConstraint=eastwest;whiteSpace=wrap;html=1;" parent="t86LqLUNXeEkSWL6Lqwz-25" vertex="1">
          <mxGeometry y="190" width="240" height="26" as="geometry" />
        </mxCell>
        <mxCell id="bFsF_W4BmdwzoqF3kAbE-41" value="+ cancelBooking(Booking): boolean;" style="text;strokeColor=none;fillColor=none;align=left;verticalAlign=top;spacingLeft=4;spacingRight=4;overflow=hidden;rotatable=0;points=[[0,0.5],[1,0.5]];portConstraint=eastwest;whiteSpace=wrap;html=1;" parent="t86LqLUNXeEkSWL6Lqwz-25" vertex="1">
          <mxGeometry y="216" width="240" height="26" as="geometry" />
        </mxCell>
        <mxCell id="bFsF_W4BmdwzoqF3kAbE-42" value="+ deleteBooking(Booking): boolean;" style="text;strokeColor=none;fillColor=none;align=left;verticalAlign=top;spacingLeft=4;spacingRight=4;overflow=hidden;rotatable=0;points=[[0,0.5],[1,0.5]];portConstraint=eastwest;whiteSpace=wrap;html=1;" parent="t86LqLUNXeEkSWL6Lqwz-25" vertex="1">
          <mxGeometry y="242" width="240" height="26" as="geometry" />
        </mxCell>
        <mxCell id="17Tb2t7uwjQv76PZtwNf-16" style="rounded=0;orthogonalLoop=1;jettySize=auto;html=1;exitX=0;exitY=0.5;exitDx=0;exitDy=0;entryX=1;entryY=0.5;entryDx=0;entryDy=0;endArrow=none;endFill=0;" parent="1" source="t86LqLUNXeEkSWL6Lqwz-29" target="t86LqLUNXeEkSWL6Lqwz-33" edge="1">
          <mxGeometry relative="1" as="geometry" />
        </mxCell>
        <mxCell id="17Tb2t7uwjQv76PZtwNf-19" value="1" style="edgeLabel;html=1;align=center;verticalAlign=middle;resizable=0;points=[];" parent="17Tb2t7uwjQv76PZtwNf-16" vertex="1" connectable="0">
          <mxGeometry x="-0.7516" relative="1" as="geometry">
            <mxPoint y="-10" as="offset" />
          </mxGeometry>
        </mxCell>
        <mxCell id="17Tb2t7uwjQv76PZtwNf-20" value="0..*" style="edgeLabel;html=1;align=center;verticalAlign=middle;resizable=0;points=[];" parent="17Tb2t7uwjQv76PZtwNf-16" vertex="1" connectable="0">
          <mxGeometry x="0.7208" relative="1" as="geometry">
            <mxPoint y="-10" as="offset" />
          </mxGeometry>
        </mxCell>
        <mxCell id="t86LqLUNXeEkSWL6Lqwz-29" value="Plan" style="swimlane;fontStyle=1;align=center;verticalAlign=top;childLayout=stackLayout;horizontal=1;startSize=26;horizontalStack=0;resizeParent=1;resizeParentMax=0;resizeLast=0;collapsible=1;marginBottom=0;whiteSpace=wrap;html=1;" parent="1" vertex="1">
          <mxGeometry x="920" y="80" width="220" height="242" as="geometry">
            <mxRectangle x="790" y="220" width="70" height="30" as="alternateBounds" />
          </mxGeometry>
        </mxCell>
        <mxCell id="t86LqLUNXeEkSWL6Lqwz-30" value="-id: int;" style="text;strokeColor=none;fillColor=none;align=left;verticalAlign=top;spacingLeft=4;spacingRight=4;overflow=hidden;rotatable=0;points=[[0,0.5],[1,0.5]];portConstraint=eastwest;whiteSpace=wrap;html=1;" parent="t86LqLUNXeEkSWL6Lqwz-29" vertex="1">
          <mxGeometry y="26" width="220" height="26" as="geometry" />
        </mxCell>
        <mxCell id="bFsF_W4BmdwzoqF3kAbE-9" value="-title: string;" style="text;strokeColor=none;fillColor=none;align=left;verticalAlign=top;spacingLeft=4;spacingRight=4;overflow=hidden;rotatable=0;points=[[0,0.5],[1,0.5]];portConstraint=eastwest;whiteSpace=wrap;html=1;" parent="t86LqLUNXeEkSWL6Lqwz-29" vertex="1">
          <mxGeometry y="52" width="220" height="26" as="geometry" />
        </mxCell>
        <mxCell id="bFsF_W4BmdwzoqF3kAbE-10" value="-description: text;" style="text;strokeColor=none;fillColor=none;align=left;verticalAlign=top;spacingLeft=4;spacingRight=4;overflow=hidden;rotatable=0;points=[[0,0.5],[1,0.5]];portConstraint=eastwest;whiteSpace=wrap;html=1;" parent="t86LqLUNXeEkSWL6Lqwz-29" vertex="1">
          <mxGeometry y="78" width="220" height="26" as="geometry" />
        </mxCell>
        <mxCell id="bFsF_W4BmdwzoqF3kAbE-11" value="-period: datetime;" style="text;strokeColor=none;fillColor=none;align=left;verticalAlign=top;spacingLeft=4;spacingRight=4;overflow=hidden;rotatable=0;points=[[0,0.5],[1,0.5]];portConstraint=eastwest;whiteSpace=wrap;html=1;" parent="t86LqLUNXeEkSWL6Lqwz-29" vertex="1">
          <mxGeometry y="104" width="220" height="26" as="geometry" />
        </mxCell>
        <mxCell id="bFsF_W4BmdwzoqF3kAbE-17" value="-price: float;" style="text;strokeColor=none;fillColor=none;align=left;verticalAlign=top;spacingLeft=4;spacingRight=4;overflow=hidden;rotatable=0;points=[[0,0.5],[1,0.5]];portConstraint=eastwest;whiteSpace=wrap;html=1;" parent="t86LqLUNXeEkSWL6Lqwz-29" vertex="1">
          <mxGeometry y="130" width="220" height="26" as="geometry" />
        </mxCell>
        <mxCell id="t86LqLUNXeEkSWL6Lqwz-31" value="" style="line;strokeWidth=1;fillColor=none;align=left;verticalAlign=middle;spacingTop=-1;spacingLeft=3;spacingRight=3;rotatable=0;labelPosition=right;points=[];portConstraint=eastwest;strokeColor=inherit;" parent="t86LqLUNXeEkSWL6Lqwz-29" vertex="1">
          <mxGeometry y="156" width="220" height="8" as="geometry" />
        </mxCell>
        <mxCell id="bFsF_W4BmdwzoqF3kAbE-43" value="+ addPlan(Plan): void;" style="text;strokeColor=none;fillColor=none;align=left;verticalAlign=top;spacingLeft=4;spacingRight=4;overflow=hidden;rotatable=0;points=[[0,0.5],[1,0.5]];portConstraint=eastwest;whiteSpace=wrap;html=1;" parent="t86LqLUNXeEkSWL6Lqwz-29" vertex="1">
          <mxGeometry y="164" width="220" height="26" as="geometry" />
        </mxCell>
        <mxCell id="bFsF_W4BmdwzoqF3kAbE-45" value="+ editPlan(Plan): boolean;" style="text;strokeColor=none;fillColor=none;align=left;verticalAlign=top;spacingLeft=4;spacingRight=4;overflow=hidden;rotatable=0;points=[[0,0.5],[1,0.5]];portConstraint=eastwest;whiteSpace=wrap;html=1;" parent="t86LqLUNXeEkSWL6Lqwz-29" vertex="1">
          <mxGeometry y="190" width="220" height="26" as="geometry" />
        </mxCell>
        <mxCell id="bFsF_W4BmdwzoqF3kAbE-44" value="+ deletePlan(Plan): boolean;" style="text;strokeColor=none;fillColor=none;align=left;verticalAlign=top;spacingLeft=4;spacingRight=4;overflow=hidden;rotatable=0;points=[[0,0.5],[1,0.5]];portConstraint=eastwest;whiteSpace=wrap;html=1;" parent="t86LqLUNXeEkSWL6Lqwz-29" vertex="1">
          <mxGeometry y="216" width="220" height="26" as="geometry" />
        </mxCell>
        <mxCell id="t86LqLUNXeEkSWL6Lqwz-33" value="Subscription" style="swimlane;fontStyle=1;align=center;verticalAlign=top;childLayout=stackLayout;horizontal=1;startSize=26;horizontalStack=0;resizeParent=1;resizeParentMax=0;resizeLast=0;collapsible=1;marginBottom=0;whiteSpace=wrap;html=1;" parent="1" vertex="1">
          <mxGeometry x="480" y="80" width="320" height="242" as="geometry">
            <mxRectangle x="460" y="150" width="110" height="30" as="alternateBounds" />
          </mxGeometry>
        </mxCell>
        <mxCell id="t86LqLUNXeEkSWL6Lqwz-34" value="-id: int;" style="text;strokeColor=none;fillColor=none;align=left;verticalAlign=top;spacingLeft=4;spacingRight=4;overflow=hidden;rotatable=0;points=[[0,0.5],[1,0.5]];portConstraint=eastwest;whiteSpace=wrap;html=1;" parent="t86LqLUNXeEkSWL6Lqwz-33" vertex="1">
          <mxGeometry y="26" width="320" height="26" as="geometry" />
        </mxCell>
        <mxCell id="bFsF_W4BmdwzoqF3kAbE-12" value="-start_date: datetime;" style="text;strokeColor=none;fillColor=none;align=left;verticalAlign=top;spacingLeft=4;spacingRight=4;overflow=hidden;rotatable=0;points=[[0,0.5],[1,0.5]];portConstraint=eastwest;whiteSpace=wrap;html=1;" parent="t86LqLUNXeEkSWL6Lqwz-33" vertex="1">
          <mxGeometry y="52" width="320" height="26" as="geometry" />
        </mxCell>
        <mxCell id="bFsF_W4BmdwzoqF3kAbE-13" value="-end_date: datetime;" style="text;strokeColor=none;fillColor=none;align=left;verticalAlign=top;spacingLeft=4;spacingRight=4;overflow=hidden;rotatable=0;points=[[0,0.5],[1,0.5]];portConstraint=eastwest;whiteSpace=wrap;html=1;" parent="t86LqLUNXeEkSWL6Lqwz-33" vertex="1">
          <mxGeometry y="78" width="320" height="26" as="geometry" />
        </mxCell>
        <mxCell id="bFsF_W4BmdwzoqF3kAbE-14" value="-is_expired: boolean;" style="text;strokeColor=none;fillColor=none;align=left;verticalAlign=top;spacingLeft=4;spacingRight=4;overflow=hidden;rotatable=0;points=[[0,0.5],[1,0.5]];portConstraint=eastwest;whiteSpace=wrap;html=1;" parent="t86LqLUNXeEkSWL6Lqwz-33" vertex="1">
          <mxGeometry y="104" width="320" height="26" as="geometry" />
        </mxCell>
        <mxCell id="bFsF_W4BmdwzoqF3kAbE-49" value="-is_canceled: boolean;" style="text;strokeColor=none;fillColor=none;align=left;verticalAlign=top;spacingLeft=4;spacingRight=4;overflow=hidden;rotatable=0;points=[[0,0.5],[1,0.5]];portConstraint=eastwest;whiteSpace=wrap;html=1;" parent="t86LqLUNXeEkSWL6Lqwz-33" vertex="1">
          <mxGeometry y="130" width="320" height="26" as="geometry" />
        </mxCell>
        <mxCell id="t86LqLUNXeEkSWL6Lqwz-35" value="" style="line;strokeWidth=1;fillColor=none;align=left;verticalAlign=middle;spacingTop=-1;spacingLeft=3;spacingRight=3;rotatable=0;labelPosition=right;points=[];portConstraint=eastwest;strokeColor=inherit;" parent="t86LqLUNXeEkSWL6Lqwz-33" vertex="1">
          <mxGeometry y="156" width="320" height="8" as="geometry" />
        </mxCell>
        <mxCell id="bFsF_W4BmdwzoqF3kAbE-46" value="+ addSubscription(&lt;span style=&quot;text-align: center;&quot;&gt;Subscription,&amp;nbsp;&lt;/span&gt;Plan, Member): void;" style="text;strokeColor=none;fillColor=none;align=left;verticalAlign=top;spacingLeft=4;spacingRight=4;overflow=hidden;rotatable=0;points=[[0,0.5],[1,0.5]];portConstraint=eastwest;whiteSpace=wrap;html=1;" parent="t86LqLUNXeEkSWL6Lqwz-33" vertex="1">
          <mxGeometry y="164" width="320" height="26" as="geometry" />
        </mxCell>
        <mxCell id="bFsF_W4BmdwzoqF3kAbE-48" value="+ cancelSubscription(&lt;span style=&quot;text-align: center;&quot;&gt;Subscription&lt;/span&gt;): boolean;" style="text;strokeColor=none;fillColor=none;align=left;verticalAlign=top;spacingLeft=4;spacingRight=4;overflow=hidden;rotatable=0;points=[[0,0.5],[1,0.5]];portConstraint=eastwest;whiteSpace=wrap;html=1;" parent="t86LqLUNXeEkSWL6Lqwz-33" vertex="1">
          <mxGeometry y="190" width="320" height="26" as="geometry" />
        </mxCell>
        <mxCell id="bFsF_W4BmdwzoqF3kAbE-47" value="+ renew&lt;span style=&quot;text-align: center;&quot;&gt;Subscription&lt;/span&gt;(&lt;span style=&quot;text-align: center;&quot;&gt;Subscription&lt;/span&gt;): boolean;" style="text;strokeColor=none;fillColor=none;align=left;verticalAlign=top;spacingLeft=4;spacingRight=4;overflow=hidden;rotatable=0;points=[[0,0.5],[1,0.5]];portConstraint=eastwest;whiteSpace=wrap;html=1;" parent="t86LqLUNXeEkSWL6Lqwz-33" vertex="1">
          <mxGeometry y="216" width="320" height="26" as="geometry" />
        </mxCell>
        <mxCell id="t86LqLUNXeEkSWL6Lqwz-63" style="rounded=0;orthogonalLoop=1;jettySize=auto;html=1;exitX=0.5;exitY=0;exitDx=0;exitDy=0;endArrow=none;endFill=0;entryX=0.25;entryY=1;entryDx=0;entryDy=0;" parent="1" source="t86LqLUNXeEkSWL6Lqwz-37" target="t86LqLUNXeEkSWL6Lqwz-6" edge="1">
          <mxGeometry relative="1" as="geometry" />
        </mxCell>
        <mxCell id="t86LqLUNXeEkSWL6Lqwz-69" value="1" style="edgeLabel;html=1;align=center;verticalAlign=middle;resizable=0;points=[];" parent="t86LqLUNXeEkSWL6Lqwz-63" vertex="1" connectable="0">
          <mxGeometry x="0.8504" y="1" relative="1" as="geometry">
            <mxPoint x="10" as="offset" />
          </mxGeometry>
        </mxCell>
        <mxCell id="t86LqLUNXeEkSWL6Lqwz-70" value="0..*" style="edgeLabel;html=1;align=center;verticalAlign=middle;resizable=0;points=[];" parent="t86LqLUNXeEkSWL6Lqwz-63" vertex="1" connectable="0">
          <mxGeometry x="-0.7876" y="1" relative="1" as="geometry">
            <mxPoint x="10" y="20" as="offset" />
          </mxGeometry>
        </mxCell>
        <mxCell id="t86LqLUNXeEkSWL6Lqwz-37" value="Favorite" style="swimlane;fontStyle=1;align=center;verticalAlign=top;childLayout=stackLayout;horizontal=1;startSize=26;horizontalStack=0;resizeParent=1;resizeParentMax=0;resizeLast=0;collapsible=1;marginBottom=0;whiteSpace=wrap;html=1;" parent="1" vertex="1">
          <mxGeometry x="-40" y="680" width="240" height="86" as="geometry">
            <mxRectangle y="640" width="90" height="30" as="alternateBounds" />
          </mxGeometry>
        </mxCell>
        <mxCell id="t86LqLUNXeEkSWL6Lqwz-39" value="" style="line;strokeWidth=1;fillColor=none;align=left;verticalAlign=middle;spacingTop=-1;spacingLeft=3;spacingRight=3;rotatable=0;labelPosition=right;points=[];portConstraint=eastwest;strokeColor=inherit;" parent="t86LqLUNXeEkSWL6Lqwz-37" vertex="1">
          <mxGeometry y="26" width="240" height="8" as="geometry" />
        </mxCell>
        <mxCell id="t86LqLUNXeEkSWL6Lqwz-40" value="+ saveSpace(Space, Member): void;" style="text;strokeColor=none;fillColor=none;align=left;verticalAlign=top;spacingLeft=4;spacingRight=4;overflow=hidden;rotatable=0;points=[[0,0.5],[1,0.5]];portConstraint=eastwest;whiteSpace=wrap;html=1;" parent="t86LqLUNXeEkSWL6Lqwz-37" vertex="1">
          <mxGeometry y="34" width="240" height="26" as="geometry" />
        </mxCell>
        <mxCell id="bFsF_W4BmdwzoqF3kAbE-33" value="+ unsaveSpace(Space, Member): void;" style="text;strokeColor=none;fillColor=none;align=left;verticalAlign=top;spacingLeft=4;spacingRight=4;overflow=hidden;rotatable=0;points=[[0,0.5],[1,0.5]];portConstraint=eastwest;whiteSpace=wrap;html=1;" parent="t86LqLUNXeEkSWL6Lqwz-37" vertex="1">
          <mxGeometry y="60" width="240" height="26" as="geometry" />
        </mxCell>
        <mxCell id="t86LqLUNXeEkSWL6Lqwz-90" style="rounded=0;orthogonalLoop=1;jettySize=auto;html=1;exitX=0.5;exitY=0;exitDx=0;exitDy=0;entryX=0.5;entryY=1;entryDx=0;entryDy=0;endArrow=none;endFill=0;" parent="1" source="t86LqLUNXeEkSWL6Lqwz-45" target="t86LqLUNXeEkSWL6Lqwz-6" edge="1">
          <mxGeometry relative="1" as="geometry" />
        </mxCell>
        <mxCell id="t86LqLUNXeEkSWL6Lqwz-91" value="1" style="edgeLabel;html=1;align=center;verticalAlign=middle;resizable=0;points=[];" parent="t86LqLUNXeEkSWL6Lqwz-90" vertex="1" connectable="0">
          <mxGeometry x="0.8766" y="-1" relative="1" as="geometry">
            <mxPoint x="10" as="offset" />
          </mxGeometry>
        </mxCell>
        <mxCell id="t86LqLUNXeEkSWL6Lqwz-92" value="0..*" style="edgeLabel;html=1;align=center;verticalAlign=middle;resizable=0;points=[];" parent="t86LqLUNXeEkSWL6Lqwz-90" vertex="1" connectable="0">
          <mxGeometry x="-0.8093" y="-1" relative="1" as="geometry">
            <mxPoint x="9" as="offset" />
          </mxGeometry>
        </mxCell>
        <mxCell id="t86LqLUNXeEkSWL6Lqwz-45" value="Review" style="swimlane;fontStyle=1;align=center;verticalAlign=top;childLayout=stackLayout;horizontal=1;startSize=26;horizontalStack=0;resizeParent=1;resizeParentMax=0;resizeLast=0;collapsible=1;marginBottom=0;whiteSpace=wrap;html=1;" parent="1" vertex="1">
          <mxGeometry x="180" y="440" width="280" height="190" as="geometry">
            <mxRectangle x="420" y="540" width="90" height="30" as="alternateBounds" />
          </mxGeometry>
        </mxCell>
        <mxCell id="t86LqLUNXeEkSWL6Lqwz-46" value="-id: int;" style="text;strokeColor=none;fillColor=none;align=left;verticalAlign=top;spacingLeft=4;spacingRight=4;overflow=hidden;rotatable=0;points=[[0,0.5],[1,0.5]];portConstraint=eastwest;whiteSpace=wrap;html=1;" parent="t86LqLUNXeEkSWL6Lqwz-45" vertex="1">
          <mxGeometry y="26" width="280" height="26" as="geometry" />
        </mxCell>
        <mxCell id="bFsF_W4BmdwzoqF3kAbE-15" value="-rate: int;" style="text;strokeColor=none;fillColor=none;align=left;verticalAlign=top;spacingLeft=4;spacingRight=4;overflow=hidden;rotatable=0;points=[[0,0.5],[1,0.5]];portConstraint=eastwest;whiteSpace=wrap;html=1;" parent="t86LqLUNXeEkSWL6Lqwz-45" vertex="1">
          <mxGeometry y="52" width="280" height="26" as="geometry" />
        </mxCell>
        <mxCell id="bFsF_W4BmdwzoqF3kAbE-16" value="-comment: text;" style="text;strokeColor=none;fillColor=none;align=left;verticalAlign=top;spacingLeft=4;spacingRight=4;overflow=hidden;rotatable=0;points=[[0,0.5],[1,0.5]];portConstraint=eastwest;whiteSpace=wrap;html=1;" parent="t86LqLUNXeEkSWL6Lqwz-45" vertex="1">
          <mxGeometry y="78" width="280" height="26" as="geometry" />
        </mxCell>
        <mxCell id="t86LqLUNXeEkSWL6Lqwz-47" value="" style="line;strokeWidth=1;fillColor=none;align=left;verticalAlign=middle;spacingTop=-1;spacingLeft=3;spacingRight=3;rotatable=0;labelPosition=right;points=[];portConstraint=eastwest;strokeColor=inherit;" parent="t86LqLUNXeEkSWL6Lqwz-45" vertex="1">
          <mxGeometry y="104" width="280" height="8" as="geometry" />
        </mxCell>
        <mxCell id="t86LqLUNXeEkSWL6Lqwz-48" value="+ addReview(Review, Member, Spaces): void;" style="text;strokeColor=none;fillColor=none;align=left;verticalAlign=top;spacingLeft=4;spacingRight=4;overflow=hidden;rotatable=0;points=[[0,0.5],[1,0.5]];portConstraint=eastwest;whiteSpace=wrap;html=1;" parent="t86LqLUNXeEkSWL6Lqwz-45" vertex="1">
          <mxGeometry y="112" width="280" height="26" as="geometry" />
        </mxCell>
        <mxCell id="ILEr_ANIYUZvp2dThsKy-1" value="+ editReview(Review): boolean;" style="text;strokeColor=none;fillColor=none;align=left;verticalAlign=top;spacingLeft=4;spacingRight=4;overflow=hidden;rotatable=0;points=[[0,0.5],[1,0.5]];portConstraint=eastwest;whiteSpace=wrap;html=1;" parent="t86LqLUNXeEkSWL6Lqwz-45" vertex="1">
          <mxGeometry y="138" width="280" height="26" as="geometry" />
        </mxCell>
        <mxCell id="ILEr_ANIYUZvp2dThsKy-2" value="+ deleteReview(Review): boolean;" style="text;strokeColor=none;fillColor=none;align=left;verticalAlign=top;spacingLeft=4;spacingRight=4;overflow=hidden;rotatable=0;points=[[0,0.5],[1,0.5]];portConstraint=eastwest;whiteSpace=wrap;html=1;" parent="t86LqLUNXeEkSWL6Lqwz-45" vertex="1">
          <mxGeometry y="164" width="280" height="26" as="geometry" />
        </mxCell>
        <mxCell id="t86LqLUNXeEkSWL6Lqwz-49" value="Service" style="swimlane;fontStyle=1;align=center;verticalAlign=top;childLayout=stackLayout;horizontal=1;startSize=26;horizontalStack=0;resizeParent=1;resizeParentMax=0;resizeLast=0;collapsible=1;marginBottom=0;whiteSpace=wrap;html=1;" parent="1" vertex="1">
          <mxGeometry x="880" y="360" width="200" height="190" as="geometry">
            <mxRectangle x="860" y="380" width="90" height="30" as="alternateBounds" />
          </mxGeometry>
        </mxCell>
        <mxCell id="t86LqLUNXeEkSWL6Lqwz-50" value="-id: int;" style="text;strokeColor=none;fillColor=none;align=left;verticalAlign=top;spacingLeft=4;spacingRight=4;overflow=hidden;rotatable=0;points=[[0,0.5],[1,0.5]];portConstraint=eastwest;whiteSpace=wrap;html=1;" parent="t86LqLUNXeEkSWL6Lqwz-49" vertex="1">
          <mxGeometry y="26" width="200" height="26" as="geometry" />
        </mxCell>
        <mxCell id="bFsF_W4BmdwzoqF3kAbE-1" value="-name: ServiceTypes;" style="text;strokeColor=none;fillColor=none;align=left;verticalAlign=top;spacingLeft=4;spacingRight=4;overflow=hidden;rotatable=0;points=[[0,0.5],[1,0.5]];portConstraint=eastwest;whiteSpace=wrap;html=1;" parent="t86LqLUNXeEkSWL6Lqwz-49" vertex="1">
          <mxGeometry y="52" width="200" height="26" as="geometry" />
        </mxCell>
        <mxCell id="9YlsFKtQrAiveUsG2HCW-3" value="-price: float;" style="text;strokeColor=none;fillColor=none;align=left;verticalAlign=top;spacingLeft=4;spacingRight=4;overflow=hidden;rotatable=0;points=[[0,0.5],[1,0.5]];portConstraint=eastwest;whiteSpace=wrap;html=1;" parent="t86LqLUNXeEkSWL6Lqwz-49" vertex="1">
          <mxGeometry y="78" width="200" height="26" as="geometry" />
        </mxCell>
        <mxCell id="t86LqLUNXeEkSWL6Lqwz-51" value="" style="line;strokeWidth=1;fillColor=none;align=left;verticalAlign=middle;spacingTop=-1;spacingLeft=3;spacingRight=3;rotatable=0;labelPosition=right;points=[];portConstraint=eastwest;strokeColor=inherit;" parent="t86LqLUNXeEkSWL6Lqwz-49" vertex="1">
          <mxGeometry y="104" width="200" height="8" as="geometry" />
        </mxCell>
        <mxCell id="3d2dyjxlok9ldZC0zlSb-4" value="+ addService(Service): void;" style="text;strokeColor=none;fillColor=none;align=left;verticalAlign=top;spacingLeft=4;spacingRight=4;overflow=hidden;rotatable=0;points=[[0,0.5],[1,0.5]];portConstraint=eastwest;whiteSpace=wrap;html=1;" parent="t86LqLUNXeEkSWL6Lqwz-49" vertex="1">
          <mxGeometry y="112" width="200" height="26" as="geometry" />
        </mxCell>
        <mxCell id="3d2dyjxlok9ldZC0zlSb-6" value="+ deleteService(Service): boolean;" style="text;strokeColor=none;fillColor=none;align=left;verticalAlign=top;spacingLeft=4;spacingRight=4;overflow=hidden;rotatable=0;points=[[0,0.5],[1,0.5]];portConstraint=eastwest;whiteSpace=wrap;html=1;" parent="t86LqLUNXeEkSWL6Lqwz-49" vertex="1">
          <mxGeometry y="138" width="200" height="26" as="geometry" />
        </mxCell>
        <mxCell id="3d2dyjxlok9ldZC0zlSb-5" value="+ editService(Service): boolean;" style="text;strokeColor=none;fillColor=none;align=left;verticalAlign=top;spacingLeft=4;spacingRight=4;overflow=hidden;rotatable=0;points=[[0,0.5],[1,0.5]];portConstraint=eastwest;whiteSpace=wrap;html=1;" parent="t86LqLUNXeEkSWL6Lqwz-49" vertex="1">
          <mxGeometry y="164" width="200" height="26" as="geometry" />
        </mxCell>
        <mxCell id="t86LqLUNXeEkSWL6Lqwz-73" value="Payment" style="swimlane;fontStyle=1;align=center;verticalAlign=top;childLayout=stackLayout;horizontal=1;startSize=26;horizontalStack=0;resizeParent=1;resizeParentMax=0;resizeLast=0;collapsible=1;marginBottom=0;whiteSpace=wrap;html=1;" parent="1" vertex="1">
          <mxGeometry x="-280" y="40" width="240" height="268" as="geometry">
            <mxRectangle x="-190" y="220" width="90" height="30" as="alternateBounds" />
          </mxGeometry>
        </mxCell>
        <mxCell id="t86LqLUNXeEkSWL6Lqwz-74" value="-id: int;" style="text;strokeColor=none;fillColor=none;align=left;verticalAlign=top;spacingLeft=4;spacingRight=4;overflow=hidden;rotatable=0;points=[[0,0.5],[1,0.5]];portConstraint=eastwest;whiteSpace=wrap;html=1;" parent="t86LqLUNXeEkSWL6Lqwz-73" vertex="1">
          <mxGeometry y="26" width="240" height="26" as="geometry" />
        </mxCell>
        <mxCell id="bFsF_W4BmdwzoqF3kAbE-31" value="-payable: string;" style="text;strokeColor=none;fillColor=none;align=left;verticalAlign=top;spacingLeft=4;spacingRight=4;overflow=hidden;rotatable=0;points=[[0,0.5],[1,0.5]];portConstraint=eastwest;whiteSpace=wrap;html=1;" parent="t86LqLUNXeEkSWL6Lqwz-73" vertex="1">
          <mxGeometry y="52" width="240" height="26" as="geometry" />
        </mxCell>
        <mxCell id="bFsF_W4BmdwzoqF3kAbE-32" value="-payable_id: int;" style="text;strokeColor=none;fillColor=none;align=left;verticalAlign=top;spacingLeft=4;spacingRight=4;overflow=hidden;rotatable=0;points=[[0,0.5],[1,0.5]];portConstraint=eastwest;whiteSpace=wrap;html=1;" parent="t86LqLUNXeEkSWL6Lqwz-73" vertex="1">
          <mxGeometry y="78" width="240" height="26" as="geometry" />
        </mxCell>
        <mxCell id="bFsF_W4BmdwzoqF3kAbE-30" value="-is_payed: boolean;" style="text;strokeColor=none;fillColor=none;align=left;verticalAlign=top;spacingLeft=4;spacingRight=4;overflow=hidden;rotatable=0;points=[[0,0.5],[1,0.5]];portConstraint=eastwest;whiteSpace=wrap;html=1;" parent="t86LqLUNXeEkSWL6Lqwz-73" vertex="1">
          <mxGeometry y="104" width="240" height="26" as="geometry" />
        </mxCell>
        <mxCell id="bFsF_W4BmdwzoqF3kAbE-29" value="-total_price: float;" style="text;strokeColor=none;fillColor=none;align=left;verticalAlign=top;spacingLeft=4;spacingRight=4;overflow=hidden;rotatable=0;points=[[0,0.5],[1,0.5]];portConstraint=eastwest;whiteSpace=wrap;html=1;" parent="t86LqLUNXeEkSWL6Lqwz-73" vertex="1">
          <mxGeometry y="130" width="240" height="26" as="geometry" />
        </mxCell>
        <mxCell id="t86LqLUNXeEkSWL6Lqwz-75" value="" style="line;strokeWidth=1;fillColor=none;align=left;verticalAlign=middle;spacingTop=-1;spacingLeft=3;spacingRight=3;rotatable=0;labelPosition=right;points=[];portConstraint=eastwest;strokeColor=inherit;" parent="t86LqLUNXeEkSWL6Lqwz-73" vertex="1">
          <mxGeometry y="156" width="240" height="8" as="geometry" />
        </mxCell>
        <mxCell id="t86LqLUNXeEkSWL6Lqwz-76" value="+ addPayement(Payement): void;" style="text;strokeColor=none;fillColor=none;align=left;verticalAlign=top;spacingLeft=4;spacingRight=4;overflow=hidden;rotatable=0;points=[[0,0.5],[1,0.5]];portConstraint=eastwest;whiteSpace=wrap;html=1;" parent="t86LqLUNXeEkSWL6Lqwz-73" vertex="1">
          <mxGeometry y="164" width="240" height="26" as="geometry" />
        </mxCell>
        <mxCell id="3d2dyjxlok9ldZC0zlSb-2" value="+ editPayement(Payement): boolean;" style="text;strokeColor=none;fillColor=none;align=left;verticalAlign=top;spacingLeft=4;spacingRight=4;overflow=hidden;rotatable=0;points=[[0,0.5],[1,0.5]];portConstraint=eastwest;whiteSpace=wrap;html=1;" parent="t86LqLUNXeEkSWL6Lqwz-73" vertex="1">
          <mxGeometry y="190" width="240" height="26" as="geometry" />
        </mxCell>
        <mxCell id="3d2dyjxlok9ldZC0zlSb-3" value="+ deletePayement(Payement): boolean;" style="text;strokeColor=none;fillColor=none;align=left;verticalAlign=top;spacingLeft=4;spacingRight=4;overflow=hidden;rotatable=0;points=[[0,0.5],[1,0.5]];portConstraint=eastwest;whiteSpace=wrap;html=1;" parent="t86LqLUNXeEkSWL6Lqwz-73" vertex="1">
          <mxGeometry y="216" width="240" height="26" as="geometry" />
        </mxCell>
        <mxCell id="3d2dyjxlok9ldZC0zlSb-1" value="+ makePayement(Payement): boolean;" style="text;strokeColor=none;fillColor=none;align=left;verticalAlign=top;spacingLeft=4;spacingRight=4;overflow=hidden;rotatable=0;points=[[0,0.5],[1,0.5]];portConstraint=eastwest;whiteSpace=wrap;html=1;" parent="t86LqLUNXeEkSWL6Lqwz-73" vertex="1">
          <mxGeometry y="242" width="240" height="26" as="geometry" />
        </mxCell>
        <mxCell id="t86LqLUNXeEkSWL6Lqwz-93" value="User" style="swimlane;fontStyle=1;align=center;verticalAlign=top;childLayout=stackLayout;horizontal=1;startSize=26;horizontalStack=0;resizeParent=1;resizeParentMax=0;resizeLast=0;collapsible=1;marginBottom=0;whiteSpace=wrap;html=1;" parent="1" vertex="1">
          <mxGeometry x="470" y="-480" width="360" height="320" as="geometry">
            <mxRectangle x="595" y="-200" width="70" height="30" as="alternateBounds" />
          </mxGeometry>
        </mxCell>
        <mxCell id="t86LqLUNXeEkSWL6Lqwz-94" value="-id: int;" style="text;strokeColor=none;fillColor=none;align=left;verticalAlign=top;spacingLeft=4;spacingRight=4;overflow=hidden;rotatable=0;points=[[0,0.5],[1,0.5]];portConstraint=eastwest;whiteSpace=wrap;html=1;" parent="t86LqLUNXeEkSWL6Lqwz-93" vertex="1">
          <mxGeometry y="26" width="360" height="26" as="geometry" />
        </mxCell>
        <mxCell id="t86LqLUNXeEkSWL6Lqwz-95" value="-first_name: string;" style="text;strokeColor=none;fillColor=none;align=left;verticalAlign=top;spacingLeft=4;spacingRight=4;overflow=hidden;rotatable=0;points=[[0,0.5],[1,0.5]];portConstraint=eastwest;whiteSpace=wrap;html=1;" parent="t86LqLUNXeEkSWL6Lqwz-93" vertex="1">
          <mxGeometry y="52" width="360" height="26" as="geometry" />
        </mxCell>
        <mxCell id="t86LqLUNXeEkSWL6Lqwz-96" value="-last_name: string;" style="text;strokeColor=none;fillColor=none;align=left;verticalAlign=top;spacingLeft=4;spacingRight=4;overflow=hidden;rotatable=0;points=[[0,0.5],[1,0.5]];portConstraint=eastwest;whiteSpace=wrap;html=1;" parent="t86LqLUNXeEkSWL6Lqwz-93" vertex="1">
          <mxGeometry y="78" width="360" height="26" as="geometry" />
        </mxCell>
        <mxCell id="t86LqLUNXeEkSWL6Lqwz-97" value="-role: Role;" style="text;strokeColor=none;fillColor=none;align=left;verticalAlign=top;spacingLeft=4;spacingRight=4;overflow=hidden;rotatable=0;points=[[0,0.5],[1,0.5]];portConstraint=eastwest;whiteSpace=wrap;html=1;" parent="t86LqLUNXeEkSWL6Lqwz-93" vertex="1">
          <mxGeometry y="104" width="360" height="26" as="geometry" />
        </mxCell>
        <mxCell id="t86LqLUNXeEkSWL6Lqwz-98" value="-email:string;" style="text;strokeColor=none;fillColor=none;align=left;verticalAlign=top;spacingLeft=4;spacingRight=4;overflow=hidden;rotatable=0;points=[[0,0.5],[1,0.5]];portConstraint=eastwest;whiteSpace=wrap;html=1;" parent="t86LqLUNXeEkSWL6Lqwz-93" vertex="1">
          <mxGeometry y="130" width="360" height="26" as="geometry" />
        </mxCell>
        <mxCell id="t86LqLUNXeEkSWL6Lqwz-99" value="-password: string;" style="text;strokeColor=none;fillColor=none;align=left;verticalAlign=top;spacingLeft=4;spacingRight=4;overflow=hidden;rotatable=0;points=[[0,0.5],[1,0.5]];portConstraint=eastwest;whiteSpace=wrap;html=1;" parent="t86LqLUNXeEkSWL6Lqwz-93" vertex="1">
          <mxGeometry y="156" width="360" height="26" as="geometry" />
        </mxCell>
        <mxCell id="t86LqLUNXeEkSWL6Lqwz-100" value="" style="line;strokeWidth=1;fillColor=none;align=left;verticalAlign=middle;spacingTop=-1;spacingLeft=3;spacingRight=3;rotatable=0;labelPosition=right;points=[];portConstraint=eastwest;strokeColor=inherit;" parent="t86LqLUNXeEkSWL6Lqwz-93" vertex="1">
          <mxGeometry y="182" width="360" height="8" as="geometry" />
        </mxCell>
        <mxCell id="t86LqLUNXeEkSWL6Lqwz-101" value="+ addUser(User):void;" style="text;strokeColor=none;fillColor=none;align=left;verticalAlign=top;spacingLeft=4;spacingRight=4;overflow=hidden;rotatable=0;points=[[0,0.5],[1,0.5]];portConstraint=eastwest;whiteSpace=wrap;html=1;" parent="t86LqLUNXeEkSWL6Lqwz-93" vertex="1">
          <mxGeometry y="190" width="360" height="26" as="geometry" />
        </mxCell>
        <mxCell id="t86LqLUNXeEkSWL6Lqwz-102" value="+ editUser(User):boolean;" style="text;strokeColor=none;fillColor=none;align=left;verticalAlign=top;spacingLeft=4;spacingRight=4;overflow=hidden;rotatable=0;points=[[0,0.5],[1,0.5]];portConstraint=eastwest;whiteSpace=wrap;html=1;" parent="t86LqLUNXeEkSWL6Lqwz-93" vertex="1">
          <mxGeometry y="216" width="360" height="26" as="geometry" />
        </mxCell>
        <mxCell id="t86LqLUNXeEkSWL6Lqwz-103" value="+ deleteUser(User):boolean;" style="text;strokeColor=none;fillColor=none;align=left;verticalAlign=top;spacingLeft=4;spacingRight=4;overflow=hidden;rotatable=0;points=[[0,0.5],[1,0.5]];portConstraint=eastwest;whiteSpace=wrap;html=1;" parent="t86LqLUNXeEkSWL6Lqwz-93" vertex="1">
          <mxGeometry y="242" width="360" height="26" as="geometry" />
        </mxCell>
        <mxCell id="17Tb2t7uwjQv76PZtwNf-28" value="+ resetUserPassword(User, string newPassword):void;" style="text;strokeColor=none;fillColor=none;align=left;verticalAlign=top;spacingLeft=4;spacingRight=4;overflow=hidden;rotatable=0;points=[[0,0.5],[1,0.5]];portConstraint=eastwest;whiteSpace=wrap;html=1;" parent="t86LqLUNXeEkSWL6Lqwz-93" vertex="1">
          <mxGeometry y="268" width="360" height="26" as="geometry" />
        </mxCell>
        <mxCell id="9YlsFKtQrAiveUsG2HCW-5" value="+ restrectUser(User):boolean;" style="text;strokeColor=none;fillColor=none;align=left;verticalAlign=top;spacingLeft=4;spacingRight=4;overflow=hidden;rotatable=0;points=[[0,0.5],[1,0.5]];portConstraint=eastwest;whiteSpace=wrap;html=1;" parent="t86LqLUNXeEkSWL6Lqwz-93" vertex="1">
          <mxGeometry y="294" width="360" height="26" as="geometry" />
        </mxCell>
        <mxCell id="t86LqLUNXeEkSWL6Lqwz-104" value="&lt;div style=&quot;text-align: left;&quot;&gt;Registration&lt;/div&gt;" style="swimlane;fontStyle=1;align=center;verticalAlign=top;childLayout=stackLayout;horizontal=1;startSize=26;horizontalStack=0;resizeParent=1;resizeParentMax=0;resizeLast=0;collapsible=1;marginBottom=0;whiteSpace=wrap;html=1;" parent="1" vertex="1">
          <mxGeometry x="-290" y="440" width="240" height="164" as="geometry">
            <mxRectangle x="5" y="430" width="110" height="30" as="alternateBounds" />
          </mxGeometry>
        </mxCell>
        <mxCell id="t86LqLUNXeEkSWL6Lqwz-105" value="-id: int;" style="text;strokeColor=none;fillColor=none;align=left;verticalAlign=top;spacingLeft=4;spacingRight=4;overflow=hidden;rotatable=0;points=[[0,0.5],[1,0.5]];portConstraint=eastwest;whiteSpace=wrap;html=1;" parent="t86LqLUNXeEkSWL6Lqwz-104" vertex="1">
          <mxGeometry y="26" width="240" height="26" as="geometry" />
        </mxCell>
        <mxCell id="t86LqLUNXeEkSWL6Lqwz-106" value="-date: date;" style="text;strokeColor=none;fillColor=none;align=left;verticalAlign=top;spacingLeft=4;spacingRight=4;overflow=hidden;rotatable=0;points=[[0,0.5],[1,0.5]];portConstraint=eastwest;whiteSpace=wrap;html=1;" parent="t86LqLUNXeEkSWL6Lqwz-104" vertex="1">
          <mxGeometry y="52" width="240" height="26" as="geometry" />
        </mxCell>
        <mxCell id="t86LqLUNXeEkSWL6Lqwz-107" value="" style="line;strokeWidth=1;fillColor=none;align=left;verticalAlign=middle;spacingTop=-1;spacingLeft=3;spacingRight=3;rotatable=0;labelPosition=right;points=[];portConstraint=eastwest;strokeColor=inherit;" parent="t86LqLUNXeEkSWL6Lqwz-104" vertex="1">
          <mxGeometry y="78" width="240" height="8" as="geometry" />
        </mxCell>
        <mxCell id="t86LqLUNXeEkSWL6Lqwz-108" value="+addRegistration(User, Event):void;" style="text;strokeColor=none;fillColor=none;align=left;verticalAlign=top;spacingLeft=4;spacingRight=4;overflow=hidden;rotatable=0;points=[[0,0.5],[1,0.5]];portConstraint=eastwest;whiteSpace=wrap;html=1;" parent="t86LqLUNXeEkSWL6Lqwz-104" vertex="1">
          <mxGeometry y="86" width="240" height="26" as="geometry" />
        </mxCell>
        <mxCell id="t86LqLUNXeEkSWL6Lqwz-109" value="+editRegistration(Registration):void;" style="text;strokeColor=none;fillColor=none;align=left;verticalAlign=top;spacingLeft=4;spacingRight=4;overflow=hidden;rotatable=0;points=[[0,0.5],[1,0.5]];portConstraint=eastwest;whiteSpace=wrap;html=1;" parent="t86LqLUNXeEkSWL6Lqwz-104" vertex="1">
          <mxGeometry y="112" width="240" height="26" as="geometry" />
        </mxCell>
        <mxCell id="t86LqLUNXeEkSWL6Lqwz-110" value="+deleteRegistration(Registration):boolean;" style="text;strokeColor=none;fillColor=none;align=left;verticalAlign=top;spacingLeft=4;spacingRight=4;overflow=hidden;rotatable=0;points=[[0,0.5],[1,0.5]];portConstraint=eastwest;whiteSpace=wrap;html=1;" parent="t86LqLUNXeEkSWL6Lqwz-104" vertex="1">
          <mxGeometry y="138" width="240" height="26" as="geometry" />
        </mxCell>
        <mxCell id="t86LqLUNXeEkSWL6Lqwz-130" style="rounded=0;orthogonalLoop=1;jettySize=auto;html=1;exitX=0.5;exitY=0;exitDx=0;exitDy=0;entryX=0.5;entryY=1;entryDx=0;entryDy=0;endArrow=none;endFill=0;" parent="1" source="t86LqLUNXeEkSWL6Lqwz-111" target="t86LqLUNXeEkSWL6Lqwz-104" edge="1">
          <mxGeometry relative="1" as="geometry" />
        </mxCell>
        <mxCell id="t86LqLUNXeEkSWL6Lqwz-134" value="0..*" style="edgeLabel;html=1;align=center;verticalAlign=middle;resizable=0;points=[];" parent="t86LqLUNXeEkSWL6Lqwz-130" vertex="1" connectable="0">
          <mxGeometry x="0.8315" relative="1" as="geometry">
            <mxPoint x="20" as="offset" />
          </mxGeometry>
        </mxCell>
        <mxCell id="t86LqLUNXeEkSWL6Lqwz-135" value="1" style="edgeLabel;html=1;align=center;verticalAlign=middle;resizable=0;points=[];" parent="t86LqLUNXeEkSWL6Lqwz-130" vertex="1" connectable="0">
          <mxGeometry x="-0.8013" y="1" relative="1" as="geometry">
            <mxPoint x="10" as="offset" />
          </mxGeometry>
        </mxCell>
        <mxCell id="t86LqLUNXeEkSWL6Lqwz-111" value="Event" style="swimlane;fontStyle=1;align=center;verticalAlign=top;childLayout=stackLayout;horizontal=1;startSize=26;horizontalStack=0;resizeParent=1;resizeParentMax=0;resizeLast=0;collapsible=1;marginBottom=0;whiteSpace=wrap;html=1;" parent="1" vertex="1">
          <mxGeometry x="-310" y="840" width="280" height="242" as="geometry">
            <mxRectangle x="-100" y="720" width="80" height="30" as="alternateBounds" />
          </mxGeometry>
        </mxCell>
        <mxCell id="t86LqLUNXeEkSWL6Lqwz-112" value="-id: int;" style="text;strokeColor=none;fillColor=none;align=left;verticalAlign=top;spacingLeft=4;spacingRight=4;overflow=hidden;rotatable=0;points=[[0,0.5],[1,0.5]];portConstraint=eastwest;whiteSpace=wrap;html=1;" parent="t86LqLUNXeEkSWL6Lqwz-111" vertex="1">
          <mxGeometry y="26" width="280" height="26" as="geometry" />
        </mxCell>
        <mxCell id="t86LqLUNXeEkSWL6Lqwz-113" value="&lt;span class=&quot;hljs-operator&quot;&gt;-&lt;/span&gt; title: String;" style="text;strokeColor=none;fillColor=none;align=left;verticalAlign=top;spacingLeft=4;spacingRight=4;overflow=hidden;rotatable=0;points=[[0,0.5],[1,0.5]];portConstraint=eastwest;whiteSpace=wrap;html=1;" parent="t86LqLUNXeEkSWL6Lqwz-111" vertex="1">
          <mxGeometry y="52" width="280" height="26" as="geometry" />
        </mxCell>
        <mxCell id="t86LqLUNXeEkSWL6Lqwz-114" value="&lt;span class=&quot;hljs-operator&quot;&gt;-&lt;/span&gt; &lt;span class=&quot;hljs-type&quot;&gt;date&lt;/span&gt;: Date;" style="text;strokeColor=none;fillColor=none;align=left;verticalAlign=top;spacingLeft=4;spacingRight=4;overflow=hidden;rotatable=0;points=[[0,0.5],[1,0.5]];portConstraint=eastwest;whiteSpace=wrap;html=1;" parent="t86LqLUNXeEkSWL6Lqwz-111" vertex="1">
          <mxGeometry y="78" width="280" height="26" as="geometry" />
        </mxCell>
        <mxCell id="t86LqLUNXeEkSWL6Lqwz-115" value="&lt;span class=&quot;hljs-operator&quot;&gt;-&lt;/span&gt; location: String;" style="text;strokeColor=none;fillColor=none;align=left;verticalAlign=top;spacingLeft=4;spacingRight=4;overflow=hidden;rotatable=0;points=[[0,0.5],[1,0.5]];portConstraint=eastwest;whiteSpace=wrap;html=1;" parent="t86LqLUNXeEkSWL6Lqwz-111" vertex="1">
          <mxGeometry y="104" width="280" height="26" as="geometry" />
        </mxCell>
        <mxCell id="t86LqLUNXeEkSWL6Lqwz-116" value="&lt;span class=&quot;hljs-operator&quot;&gt;-&lt;/span&gt; type: EventType;&amp;nbsp;" style="text;strokeColor=none;fillColor=none;align=left;verticalAlign=top;spacingLeft=4;spacingRight=4;overflow=hidden;rotatable=0;points=[[0,0.5],[1,0.5]];portConstraint=eastwest;whiteSpace=wrap;html=1;" parent="t86LqLUNXeEkSWL6Lqwz-111" vertex="1">
          <mxGeometry y="130" width="280" height="26" as="geometry" />
        </mxCell>
        <mxCell id="t86LqLUNXeEkSWL6Lqwz-117" value="" style="line;strokeWidth=1;fillColor=none;align=left;verticalAlign=middle;spacingTop=-1;spacingLeft=3;spacingRight=3;rotatable=0;labelPosition=right;points=[];portConstraint=eastwest;strokeColor=inherit;" parent="t86LqLUNXeEkSWL6Lqwz-111" vertex="1">
          <mxGeometry y="156" width="280" height="8" as="geometry" />
        </mxCell>
        <mxCell id="t86LqLUNXeEkSWL6Lqwz-118" value="+ addEvent(title, date, location, type): void;" style="text;strokeColor=none;fillColor=none;align=left;verticalAlign=top;spacingLeft=4;spacingRight=4;overflow=hidden;rotatable=0;points=[[0,0.5],[1,0.5]];portConstraint=eastwest;whiteSpace=wrap;html=1;" parent="t86LqLUNXeEkSWL6Lqwz-111" vertex="1">
          <mxGeometry y="164" width="280" height="26" as="geometry" />
        </mxCell>
        <mxCell id="t86LqLUNXeEkSWL6Lqwz-119" value="+ editEvent(Event): void;" style="text;strokeColor=none;fillColor=none;align=left;verticalAlign=top;spacingLeft=4;spacingRight=4;overflow=hidden;rotatable=0;points=[[0,0.5],[1,0.5]];portConstraint=eastwest;whiteSpace=wrap;html=1;" parent="t86LqLUNXeEkSWL6Lqwz-111" vertex="1">
          <mxGeometry y="190" width="280" height="26" as="geometry" />
        </mxCell>
        <mxCell id="t86LqLUNXeEkSWL6Lqwz-120" value="+ deleteEvent(Event): boolean;" style="text;strokeColor=none;fillColor=none;align=left;verticalAlign=top;spacingLeft=4;spacingRight=4;overflow=hidden;rotatable=0;points=[[0,0.5],[1,0.5]];portConstraint=eastwest;whiteSpace=wrap;html=1;" parent="t86LqLUNXeEkSWL6Lqwz-111" vertex="1">
          <mxGeometry y="216" width="280" height="26" as="geometry" />
        </mxCell>
        <mxCell id="t86LqLUNXeEkSWL6Lqwz-121" value="&amp;lt;&amp;lt;enumeration&amp;gt;&amp;gt;&lt;br&gt;&lt;b&gt;EventType&lt;/b&gt;" style="swimlane;fontStyle=0;align=center;verticalAlign=top;childLayout=stackLayout;horizontal=1;startSize=40;horizontalStack=0;resizeParent=1;resizeParentMax=0;resizeLast=0;collapsible=0;marginBottom=0;html=1;whiteSpace=wrap;" parent="1" vertex="1">
          <mxGeometry x="-310" y="1118" width="140" height="160" as="geometry" />
        </mxCell>
        <mxCell id="t86LqLUNXeEkSWL6Lqwz-122" value="conferenc&lt;span style=&quot;background-color: initial;&quot;&gt;e&lt;/span&gt;" style="text;html=1;strokeColor=none;fillColor=none;align=left;verticalAlign=middle;spacingLeft=4;spacingRight=4;overflow=hidden;rotatable=0;points=[[0,0.5],[1,0.5]];portConstraint=eastwest;whiteSpace=wrap;" parent="t86LqLUNXeEkSWL6Lqwz-121" vertex="1">
          <mxGeometry y="40" width="140" height="30" as="geometry" />
        </mxCell>
        <mxCell id="t86LqLUNXeEkSWL6Lqwz-123" value="seminar" style="text;html=1;strokeColor=none;fillColor=none;align=left;verticalAlign=middle;spacingLeft=4;spacingRight=4;overflow=hidden;rotatable=0;points=[[0,0.5],[1,0.5]];portConstraint=eastwest;whiteSpace=wrap;" parent="t86LqLUNXeEkSWL6Lqwz-121" vertex="1">
          <mxGeometry y="70" width="140" height="30" as="geometry" />
        </mxCell>
        <mxCell id="t86LqLUNXeEkSWL6Lqwz-124" value="meeting" style="text;html=1;strokeColor=none;fillColor=none;align=left;verticalAlign=middle;spacingLeft=4;spacingRight=4;overflow=hidden;rotatable=0;points=[[0,0.5],[1,0.5]];portConstraint=eastwest;whiteSpace=wrap;" parent="t86LqLUNXeEkSWL6Lqwz-121" vertex="1">
          <mxGeometry y="100" width="140" height="30" as="geometry" />
        </mxCell>
        <mxCell id="t86LqLUNXeEkSWL6Lqwz-125" value="workshop" style="text;html=1;strokeColor=none;fillColor=none;align=left;verticalAlign=middle;spacingLeft=4;spacingRight=4;overflow=hidden;rotatable=0;points=[[0,0.5],[1,0.5]];portConstraint=eastwest;whiteSpace=wrap;" parent="t86LqLUNXeEkSWL6Lqwz-121" vertex="1">
          <mxGeometry y="130" width="140" height="30" as="geometry" />
        </mxCell>
        <mxCell id="t86LqLUNXeEkSWL6Lqwz-126" style="rounded=0;orthogonalLoop=1;jettySize=auto;html=1;exitX=0.5;exitY=0;exitDx=0;exitDy=0;endArrow=blockThin;endFill=0;endSize=18;entryX=0.5;entryY=1;entryDx=0;entryDy=0;edgeStyle=elbowEdgeStyle;elbow=vertical;" parent="1" source="t86LqLUNXeEkSWL6Lqwz-14" target="t86LqLUNXeEkSWL6Lqwz-93" edge="1">
          <mxGeometry relative="1" as="geometry">
            <mxPoint x="455" y="240" as="sourcePoint" />
            <mxPoint x="535" y="80" as="targetPoint" />
            <Array as="points" />
          </mxGeometry>
        </mxCell>
        <mxCell id="t86LqLUNXeEkSWL6Lqwz-127" style="rounded=0;orthogonalLoop=1;jettySize=auto;html=1;exitX=0.5;exitY=0;exitDx=0;exitDy=0;endArrow=blockThin;endFill=0;endSize=18;entryX=0.5;entryY=1;entryDx=0;entryDy=0;edgeStyle=elbowEdgeStyle;elbow=vertical;" parent="1" source="t86LqLUNXeEkSWL6Lqwz-6" target="t86LqLUNXeEkSWL6Lqwz-93" edge="1">
          <mxGeometry relative="1" as="geometry">
            <mxPoint x="650" y="240" as="sourcePoint" />
            <mxPoint x="535" y="80" as="targetPoint" />
            <Array as="points">
              <mxPoint x="440" y="-80" />
            </Array>
          </mxGeometry>
        </mxCell>
        <mxCell id="17Tb2t7uwjQv76PZtwNf-23" value="&amp;lt;&amp;lt;enumeration&amp;gt;&amp;gt;&lt;br&gt;&lt;b&gt;Role&lt;/b&gt;" style="swimlane;fontStyle=0;align=center;verticalAlign=top;childLayout=stackLayout;horizontal=1;startSize=40;horizontalStack=0;resizeParent=1;resizeParentMax=0;resizeLast=0;collapsible=0;marginBottom=0;html=1;whiteSpace=wrap;" parent="1" vertex="1">
          <mxGeometry x="240" y="-420" width="140" height="130" as="geometry" />
        </mxCell>
        <mxCell id="17Tb2t7uwjQv76PZtwNf-24" value="admin" style="text;html=1;strokeColor=none;fillColor=none;align=left;verticalAlign=middle;spacingLeft=4;spacingRight=4;overflow=hidden;rotatable=0;points=[[0,0.5],[1,0.5]];portConstraint=eastwest;whiteSpace=wrap;" parent="17Tb2t7uwjQv76PZtwNf-23" vertex="1">
          <mxGeometry y="40" width="140" height="30" as="geometry" />
        </mxCell>
        <mxCell id="17Tb2t7uwjQv76PZtwNf-25" value="member" style="text;html=1;strokeColor=none;fillColor=none;align=left;verticalAlign=middle;spacingLeft=4;spacingRight=4;overflow=hidden;rotatable=0;points=[[0,0.5],[1,0.5]];portConstraint=eastwest;whiteSpace=wrap;" parent="17Tb2t7uwjQv76PZtwNf-23" vertex="1">
          <mxGeometry y="70" width="140" height="30" as="geometry" />
        </mxCell>
        <mxCell id="17Tb2t7uwjQv76PZtwNf-26" value="manager" style="text;html=1;strokeColor=none;fillColor=none;align=left;verticalAlign=middle;spacingLeft=4;spacingRight=4;overflow=hidden;rotatable=0;points=[[0,0.5],[1,0.5]];portConstraint=eastwest;whiteSpace=wrap;" parent="17Tb2t7uwjQv76PZtwNf-23" vertex="1">
          <mxGeometry y="100" width="140" height="30" as="geometry" />
        </mxCell>
        <mxCell id="17Tb2t7uwjQv76PZtwNf-35" value="SpaceType" style="swimlane;fontStyle=1;align=center;verticalAlign=top;childLayout=stackLayout;horizontal=1;startSize=26;horizontalStack=0;resizeParent=1;resizeParentMax=0;resizeLast=0;collapsible=1;marginBottom=0;whiteSpace=wrap;html=1;" parent="1" vertex="1">
          <mxGeometry x="-80" y="1200" width="240" height="164" as="geometry">
            <mxRectangle x="510" y="840" width="80" height="30" as="alternateBounds" />
          </mxGeometry>
        </mxCell>
        <mxCell id="17Tb2t7uwjQv76PZtwNf-36" value="-id: int;" style="text;strokeColor=none;fillColor=none;align=left;verticalAlign=top;spacingLeft=4;spacingRight=4;overflow=hidden;rotatable=0;points=[[0,0.5],[1,0.5]];portConstraint=eastwest;whiteSpace=wrap;html=1;" parent="17Tb2t7uwjQv76PZtwNf-35" vertex="1">
          <mxGeometry y="26" width="240" height="26" as="geometry" />
        </mxCell>
        <mxCell id="17Tb2t7uwjQv76PZtwNf-37" value="-name: string;" style="text;strokeColor=none;fillColor=none;align=left;verticalAlign=top;spacingLeft=4;spacingRight=4;overflow=hidden;rotatable=0;points=[[0,0.5],[1,0.5]];portConstraint=eastwest;whiteSpace=wrap;html=1;" parent="17Tb2t7uwjQv76PZtwNf-35" vertex="1">
          <mxGeometry y="52" width="240" height="26" as="geometry" />
        </mxCell>
        <mxCell id="17Tb2t7uwjQv76PZtwNf-38" value="" style="line;strokeWidth=1;fillColor=none;align=left;verticalAlign=middle;spacingTop=-1;spacingLeft=3;spacingRight=3;rotatable=0;labelPosition=right;points=[];portConstraint=eastwest;strokeColor=inherit;" parent="17Tb2t7uwjQv76PZtwNf-35" vertex="1">
          <mxGeometry y="78" width="240" height="8" as="geometry" />
        </mxCell>
        <mxCell id="bFsF_W4BmdwzoqF3kAbE-53" value="+ addSpaceType(SpaceType): void;" style="text;strokeColor=none;fillColor=none;align=left;verticalAlign=top;spacingLeft=4;spacingRight=4;overflow=hidden;rotatable=0;points=[[0,0.5],[1,0.5]];portConstraint=eastwest;whiteSpace=wrap;html=1;" parent="17Tb2t7uwjQv76PZtwNf-35" vertex="1">
          <mxGeometry y="86" width="240" height="26" as="geometry" />
        </mxCell>
        <mxCell id="bFsF_W4BmdwzoqF3kAbE-55" value="+ deleteSpaceType(SpaceType): boolean;" style="text;strokeColor=none;fillColor=none;align=left;verticalAlign=top;spacingLeft=4;spacingRight=4;overflow=hidden;rotatable=0;points=[[0,0.5],[1,0.5]];portConstraint=eastwest;whiteSpace=wrap;html=1;" parent="17Tb2t7uwjQv76PZtwNf-35" vertex="1">
          <mxGeometry y="112" width="240" height="26" as="geometry" />
        </mxCell>
        <mxCell id="bFsF_W4BmdwzoqF3kAbE-54" value="+ editSpaceType(SpaceType): boolean;" style="text;strokeColor=none;fillColor=none;align=left;verticalAlign=top;spacingLeft=4;spacingRight=4;overflow=hidden;rotatable=0;points=[[0,0.5],[1,0.5]];portConstraint=eastwest;whiteSpace=wrap;html=1;" parent="17Tb2t7uwjQv76PZtwNf-35" vertex="1">
          <mxGeometry y="138" width="240" height="26" as="geometry" />
        </mxCell>
        <mxCell id="bFsF_W4BmdwzoqF3kAbE-2" value="ServiceType" style="swimlane;fontStyle=1;align=center;verticalAlign=top;childLayout=stackLayout;horizontal=1;startSize=26;horizontalStack=0;resizeParent=1;resizeParentMax=0;resizeLast=0;collapsible=1;marginBottom=0;whiteSpace=wrap;html=1;" parent="1" vertex="1">
          <mxGeometry x="200" y="1200" width="280" height="164" as="geometry">
            <mxRectangle x="510" y="840" width="80" height="30" as="alternateBounds" />
          </mxGeometry>
        </mxCell>
        <mxCell id="bFsF_W4BmdwzoqF3kAbE-3" value="-id: int;" style="text;strokeColor=none;fillColor=none;align=left;verticalAlign=top;spacingLeft=4;spacingRight=4;overflow=hidden;rotatable=0;points=[[0,0.5],[1,0.5]];portConstraint=eastwest;whiteSpace=wrap;html=1;" parent="bFsF_W4BmdwzoqF3kAbE-2" vertex="1">
          <mxGeometry y="26" width="280" height="26" as="geometry" />
        </mxCell>
        <mxCell id="bFsF_W4BmdwzoqF3kAbE-4" value="-name: string;" style="text;strokeColor=none;fillColor=none;align=left;verticalAlign=top;spacingLeft=4;spacingRight=4;overflow=hidden;rotatable=0;points=[[0,0.5],[1,0.5]];portConstraint=eastwest;whiteSpace=wrap;html=1;" parent="bFsF_W4BmdwzoqF3kAbE-2" vertex="1">
          <mxGeometry y="52" width="280" height="26" as="geometry" />
        </mxCell>
        <mxCell id="bFsF_W4BmdwzoqF3kAbE-5" value="" style="line;strokeWidth=1;fillColor=none;align=left;verticalAlign=middle;spacingTop=-1;spacingLeft=3;spacingRight=3;rotatable=0;labelPosition=right;points=[];portConstraint=eastwest;strokeColor=inherit;" parent="bFsF_W4BmdwzoqF3kAbE-2" vertex="1">
          <mxGeometry y="78" width="280" height="8" as="geometry" />
        </mxCell>
        <mxCell id="bFsF_W4BmdwzoqF3kAbE-56" value="+ add&lt;span style=&quot;text-align: center;&quot;&gt;ServiceType&lt;/span&gt;(&lt;span style=&quot;text-align: center;&quot;&gt;ServiceType&lt;/span&gt;): void;" style="text;strokeColor=none;fillColor=none;align=left;verticalAlign=top;spacingLeft=4;spacingRight=4;overflow=hidden;rotatable=0;points=[[0,0.5],[1,0.5]];portConstraint=eastwest;whiteSpace=wrap;html=1;" parent="bFsF_W4BmdwzoqF3kAbE-2" vertex="1">
          <mxGeometry y="86" width="280" height="26" as="geometry" />
        </mxCell>
        <mxCell id="bFsF_W4BmdwzoqF3kAbE-58" value="+ delete&lt;span style=&quot;text-align: center;&quot;&gt;ServiceType&lt;/span&gt;(&lt;span style=&quot;text-align: center;&quot;&gt;ServiceType&lt;/span&gt;): boolean;" style="text;strokeColor=none;fillColor=none;align=left;verticalAlign=top;spacingLeft=4;spacingRight=4;overflow=hidden;rotatable=0;points=[[0,0.5],[1,0.5]];portConstraint=eastwest;whiteSpace=wrap;html=1;" parent="bFsF_W4BmdwzoqF3kAbE-2" vertex="1">
          <mxGeometry y="112" width="280" height="26" as="geometry" />
        </mxCell>
        <mxCell id="bFsF_W4BmdwzoqF3kAbE-57" value="+ edit&lt;span style=&quot;text-align: center;&quot;&gt;ServiceType&lt;/span&gt;(&lt;span style=&quot;text-align: center;&quot;&gt;ServiceType&lt;/span&gt;): boolean;" style="text;strokeColor=none;fillColor=none;align=left;verticalAlign=top;spacingLeft=4;spacingRight=4;overflow=hidden;rotatable=0;points=[[0,0.5],[1,0.5]];portConstraint=eastwest;whiteSpace=wrap;html=1;" parent="bFsF_W4BmdwzoqF3kAbE-2" vertex="1">
          <mxGeometry y="138" width="280" height="26" as="geometry" />
        </mxCell>
        <mxCell id="bFsF_W4BmdwzoqF3kAbE-23" value="&amp;lt;&amp;lt;enumeration&amp;gt;&amp;gt;&lt;br&gt;&lt;b&gt;BookingStatus&lt;/b&gt;" style="swimlane;fontStyle=0;align=center;verticalAlign=top;childLayout=stackLayout;horizontal=1;startSize=40;horizontalStack=0;resizeParent=1;resizeParentMax=0;resizeLast=0;collapsible=0;marginBottom=0;html=1;whiteSpace=wrap;" parent="1" vertex="1">
          <mxGeometry x="780" y="560" width="100" height="160" as="geometry" />
        </mxCell>
        <mxCell id="bFsF_W4BmdwzoqF3kAbE-24" value="ongoing" style="text;html=1;strokeColor=none;fillColor=none;align=left;verticalAlign=middle;spacingLeft=4;spacingRight=4;overflow=hidden;rotatable=0;points=[[0,0.5],[1,0.5]];portConstraint=eastwest;whiteSpace=wrap;" parent="bFsF_W4BmdwzoqF3kAbE-23" vertex="1">
          <mxGeometry y="40" width="100" height="30" as="geometry" />
        </mxCell>
        <mxCell id="bFsF_W4BmdwzoqF3kAbE-25" value="confirmed" style="text;html=1;strokeColor=none;fillColor=none;align=left;verticalAlign=middle;spacingLeft=4;spacingRight=4;overflow=hidden;rotatable=0;points=[[0,0.5],[1,0.5]];portConstraint=eastwest;whiteSpace=wrap;" parent="bFsF_W4BmdwzoqF3kAbE-23" vertex="1">
          <mxGeometry y="70" width="100" height="30" as="geometry" />
        </mxCell>
        <mxCell id="bFsF_W4BmdwzoqF3kAbE-26" value="cancel" style="text;html=1;strokeColor=none;fillColor=none;align=left;verticalAlign=middle;spacingLeft=4;spacingRight=4;overflow=hidden;rotatable=0;points=[[0,0.5],[1,0.5]];portConstraint=eastwest;whiteSpace=wrap;" parent="bFsF_W4BmdwzoqF3kAbE-23" vertex="1">
          <mxGeometry y="100" width="100" height="30" as="geometry" />
        </mxCell>
        <mxCell id="bFsF_W4BmdwzoqF3kAbE-27" value="past" style="text;html=1;strokeColor=none;fillColor=none;align=left;verticalAlign=middle;spacingLeft=4;spacingRight=4;overflow=hidden;rotatable=0;points=[[0,0.5],[1,0.5]];portConstraint=eastwest;whiteSpace=wrap;" parent="bFsF_W4BmdwzoqF3kAbE-23" vertex="1">
          <mxGeometry y="130" width="100" height="30" as="geometry" />
        </mxCell>
      </root>
    </mxGraphModel>
  </diagram>
</mxfile>
